M48
; DRILL file {KiCad (6.0.7-1)-1} date Saturday, February 18, 2023 at 05:29:45 PM
; FORMAT={-:-/ absolute / inch / decimal}
; #@! TF.CreationDate,2023-02-18T17:29:45+08:00
; #@! TF.GenerationSoftware,Kicad,Pcbnew,(6.0.7-1)-1
; #@! TF.FileFunction,NonPlated,1,2,NPTH
FMAT,2
INCH
; #@! TA.AperFunction,NonPlated,NPTH,ComponentDrill
T1C0.0669
; #@! TA.AperFunction,NonPlated,NPTH,ComponentDrill
T2C0.1339
%
G90
G05
T1
X6.9205Y4.212
X7.1331Y4.8675
X7.3324Y4.0782
X7.3473Y5.5222
X7.545Y4.7337
X7.7354Y4.3714
X7.7591Y5.3884
X7.9461Y5.0269
X8.1473Y4.2376
X8.1662Y5.6797
X8.3579Y4.8931
X8.4854Y4.2927
X8.578Y5.5459
X8.7Y4.9462
X8.8973Y4.1589
X8.9142Y5.6009
X9.1119Y4.8124
X9.1154Y3.8577
X9.3261Y5.4671
X9.3335Y4.5143
X9.5272Y3.7238
X9.5441Y5.1679
X9.7145Y2.5564
X9.7454Y4.3805
X9.7591Y3.4974
X9.956Y5.0341
X9.9851Y4.1561
X10.0895Y2.3398
X10.1709Y3.3636
X10.2134Y4.8135
X10.3723Y2.1716
X10.3969Y4.0222
X10.6253Y4.6797
X10.7227Y1.917
X12.3688Y1.917
X12.4661Y4.6797
X12.6728Y4.0222
X12.7191Y2.1716
X12.878Y4.8135
X12.8831Y3.3636
X13.0019Y2.3398
X13.0847Y4.1561
X13.1354Y5.0341
X13.295Y3.4974
X13.3421Y4.3726
X13.3769Y2.5564
X13.5473Y5.1679
X13.5496Y3.7191
X13.754Y4.5065
X13.7653Y5.4671
X13.9615Y3.853
X13.9756Y4.8124
X14.1772Y5.6009
X14.1835Y4.1561
X14.3875Y4.9462
X14.5134Y5.5459
X14.5953Y4.29
X14.7256Y4.8892
X14.9252Y5.6797
X14.9335Y4.2369
X15.1375Y5.023
X15.3323Y5.3884
X15.3453Y4.3707
X15.5445Y4.7337
X15.7441Y5.5222
X15.7512Y4.0782
X15.9564Y4.8675
X16.1631Y4.212
T2
X7.1264Y4.1451
X7.339Y4.8006
X7.5532Y5.4553
X7.9414Y4.3045
X8.152Y4.96
X8.3721Y5.6128
X8.6914Y4.2258
X8.9059Y4.8793
X9.1201Y5.534
X9.3213Y3.7907
X9.5394Y4.4474
X9.7501Y5.101
X9.902Y2.4481
X9.965Y3.4305
X10.191Y4.0892
X10.4194Y4.7466
X10.5475Y2.0443
X12.5439Y2.0443
X12.6721Y4.7466
X12.8788Y4.0892
X13.089Y3.4305
X13.1894Y2.4481
X13.3414Y5.101
X13.548Y4.4395
X13.7555Y3.7861
X13.9713Y5.534
X14.1815Y4.8793
X14.3894Y4.2231
X14.7193Y5.6128
X14.9315Y4.9561
X15.1394Y4.3038
X15.5382Y5.4553
X15.7504Y4.8006
X15.9571Y4.1451
T0
M30
