%TF.GenerationSoftware,KiCad,Pcbnew,(6.0.7-1)-1*%
%TF.CreationDate,2023-02-18T17:29:48+08:00*%
%TF.ProjectId,karp2040,6b617270-3230-4343-902e-6b696361645f,rev?*%
%TF.SameCoordinates,Original*%
%TF.FileFunction,Copper,L1,Top*%
%TF.FilePolarity,Positive*%
%FSLAX46Y46*%
G04 Gerber Fmt 4.6, Leading zero omitted, Abs format (unit mm)*
G04 Created by KiCad (PCBNEW (6.0.7-1)-1) date 2023-02-18 17:29:48*
%MOMM*%
%LPD*%
G01*
G04 APERTURE LIST*
G04 Aperture macros list*
%AMRotRect*
0 Rectangle, with rotation*
0 The origin of the aperture is its center*
0 $1 length*
0 $2 width*
0 $3 Rotation angle, in degrees counterclockwise*
0 Add horizontal line*
21,1,$1,$2,0,0,$3*%
%AMFreePoly0*
4,1,50,0.004851,0.125700,0.009301,0.126657,0.029410,0.119120,0.057435,0.111610,0.063500,0.109985,0.069329,0.104156,0.076254,0.101560,0.089017,0.084468,0.109985,0.063500,0.112957,0.052407,0.119034,0.044268,0.120434,0.024505,0.127000,0.000000,0.123179,-0.014260,0.124085,-0.027055,0.115579,-0.042624,0.109985,-0.063500,0.097174,-0.076312,0.089801,-0.089803,-1.873000,-2.052605,
-1.873000,-6.950000,-1.876246,-6.972385,-1.875915,-6.977055,-1.877287,-6.979566,-1.878230,-6.986070,-1.895197,-7.012347,-1.910198,-7.039803,-3.260197,-8.389802,-3.289401,-8.411610,-3.359301,-8.426658,-3.426254,-8.401560,-3.469035,-8.344268,-3.474085,-8.272945,-3.439803,-8.210197,-2.127000,-6.897395,-2.127000,-2.000000,-2.123754,-1.977615,-2.124085,-1.972945,-2.122713,-1.970434,-2.121770,-1.963930,
-2.104806,-1.937658,-2.089803,-1.910197,-0.089803,0.089802,-0.065637,0.107848,-0.063500,0.109985,-0.062369,0.110288,-0.060599,0.111610,-0.044515,0.115071,0.000000,0.127000,0.004851,0.125700,0.004851,0.125700,$1*%
G04 Aperture macros list end*
%TA.AperFunction,ComponentPad*%
%ADD10O,2.500000X1.500000*%
%TD*%
%TA.AperFunction,ComponentPad*%
%ADD11O,1.500000X2.500000*%
%TD*%
%TA.AperFunction,ComponentPad*%
%ADD12C,2.000000*%
%TD*%
%TA.AperFunction,ComponentPad*%
%ADD13RotRect,0.900000X1.200000X324.000000*%
%TD*%
%TA.AperFunction,SMDPad,CuDef*%
%ADD14FreePoly0,324.000000*%
%TD*%
%TA.AperFunction,ComponentPad*%
%ADD15RotRect,0.900000X1.200000X18.000000*%
%TD*%
%TA.AperFunction,SMDPad,CuDef*%
%ADD16FreePoly0,18.000000*%
%TD*%
%TA.AperFunction,ComponentPad*%
%ADD17RotRect,0.900000X1.200000X342.000000*%
%TD*%
%TA.AperFunction,SMDPad,CuDef*%
%ADD18FreePoly0,342.000000*%
%TD*%
%TA.AperFunction,ComponentPad*%
%ADD19RotRect,0.900000X1.200000X30.000000*%
%TD*%
%TA.AperFunction,SMDPad,CuDef*%
%ADD20FreePoly0,30.000000*%
%TD*%
%TA.AperFunction,ComponentPad*%
%ADD21RotRect,0.900000X1.200000X330.000000*%
%TD*%
%TA.AperFunction,SMDPad,CuDef*%
%ADD22FreePoly0,330.000000*%
%TD*%
%TA.AperFunction,ComponentPad*%
%ADD23RotRect,0.900000X1.200000X36.000000*%
%TD*%
%TA.AperFunction,SMDPad,CuDef*%
%ADD24FreePoly0,36.000000*%
%TD*%
%TA.AperFunction,Conductor*%
%ADD25C,0.250000*%
%TD*%
G04 APERTURE END LIST*
D10*
%TO.P,U1,1,0*%
%TO.N,unconnected-(U1-Pad1)*%
X301380994Y126444726D03*
%TO.P,U1,2,1*%
%TO.N,unconnected-(U1-Pad2)*%
X301380994Y123904726D03*
%TO.P,U1,3,2*%
%TO.N,unconnected-(U1-Pad3)*%
X301380994Y121364726D03*
%TO.P,U1,4,3*%
%TO.N,unconnected-(U1-Pad4)*%
X301380994Y118824726D03*
%TO.P,U1,5,4*%
%TO.N,/C7*%
X301380994Y116284726D03*
%TO.P,U1,6,5*%
%TO.N,/C6*%
X301380994Y113744726D03*
%TO.P,U1,7,6*%
%TO.N,unconnected-(U1-Pad7)*%
X301380994Y111204726D03*
%TO.P,U1,8,7*%
%TO.N,/R1*%
X301380994Y108664726D03*
%TO.P,U1,9,8*%
%TO.N,/C8*%
X301380994Y106124726D03*
D11*
%TO.P,U1,10,9*%
%TO.N,/C9*%
X298340994Y105624726D03*
%TO.P,U1,11,10*%
%TO.N,/C10*%
X295800994Y105624726D03*
%TO.P,U1,12,11*%
%TO.N,unconnected-(U1-Pad12)*%
X293260994Y105624726D03*
%TO.P,U1,13,12*%
%TO.N,/C1*%
X290720994Y105624726D03*
%TO.P,U1,14,13*%
%TO.N,/C2*%
X288180994Y105624726D03*
D10*
%TO.P,U1,15,14*%
%TO.N,/R4*%
X285140994Y106124726D03*
%TO.P,U1,16,15*%
%TO.N,/R3*%
X285140994Y108664726D03*
%TO.P,U1,17,26*%
%TO.N,/R2*%
X285140994Y111204726D03*
%TO.P,U1,18,27*%
%TO.N,/C5*%
X285140994Y113744726D03*
%TO.P,U1,19,28*%
%TO.N,/C4*%
X285140994Y116284726D03*
%TO.P,U1,20,29*%
%TO.N,/C3*%
X285140994Y118824726D03*
%TO.P,U1,21,3V3*%
%TO.N,unconnected-(U1-Pad21)*%
X285140994Y121364726D03*
%TO.P,U1,22,GND*%
%TO.N,unconnected-(U1-Pad22)*%
X285140994Y123904726D03*
%TO.P,U1,23,5V*%
%TO.N,unconnected-(U1-Pad23)*%
X285140994Y126444726D03*
%TD*%
D12*
%TO.P,K8,1*%
%TO.N,/R4*%
X271373961Y56698503D03*
D13*
%TO.P,K8,2*%
%TO.N,/C2*%
X263926116Y49254572D03*
%TO.P,K8,3*%
%TO.N,N/C*%
X266595872Y47314880D03*
D12*
X266094527Y57938493D03*
D14*
X274184697Y52060641D03*
D12*
X274184697Y52060641D03*
%TD*%
%TO.P,K28,1*%
%TO.N,/R3*%
X363667342Y112877028D03*
D15*
%TO.P,K28,2*%
%TO.N,/C8*%
X365311876Y102476162D03*
%TO.P,K28,3*%
%TO.N,N/C*%
X368450362Y103495918D03*
D12*
X359560995Y109334724D03*
X369071561Y112424894D03*
D16*
X369071561Y112424894D03*
%TD*%
D12*
%TO.P,K27,1*%
%TO.N,/R2*%
X358387796Y129545958D03*
D15*
%TO.P,K27,2*%
%TO.N,/C8*%
X360032330Y119145092D03*
D12*
%TO.P,K27,3*%
%TO.N,N/C*%
X363792015Y129093824D03*
D16*
X363792015Y129093824D03*
D15*
X363170816Y120164848D03*
D12*
X354281449Y126003654D03*
%TD*%
%TO.P,K14,1*%
%TO.N,/R3*%
X238584196Y101895959D03*
D17*
%TO.P,K14,2*%
%TO.N,/C4*%
X233801176Y92514849D03*
D12*
%TO.P,K14,3*%
%TO.N,N/C*%
X233179977Y101443825D03*
D18*
X242690543Y98353655D03*
D12*
X242690543Y98353655D03*
D17*
X236939662Y91495093D03*
%TD*%
D12*
%TO.P,K19,1*%
%TO.N,/R2*%
X325297219Y109475713D03*
D15*
%TO.P,K19,2*%
%TO.N,/C6*%
X326941753Y99074847D03*
%TO.P,K19,3*%
%TO.N,N/C*%
X330080239Y100094603D03*
D16*
X330701438Y109023579D03*
D12*
X321190872Y105933409D03*
X330701438Y109023579D03*
%TD*%
%TO.P,K26,1*%
%TO.N,/R1*%
X353047219Y146175712D03*
D15*
%TO.P,K26,2*%
%TO.N,/C8*%
X354691753Y135774846D03*
D16*
%TO.P,K26,3*%
%TO.N,N/C*%
X358451438Y145723578D03*
D12*
X348940872Y142633408D03*
D15*
X357830239Y136794602D03*
D12*
X358451438Y145723578D03*
%TD*%
%TO.P,K17,1*%
%TO.N,/R3*%
X254934197Y92745960D03*
D17*
%TO.P,K17,2*%
%TO.N,/C5*%
X250151177Y83364850D03*
%TO.P,K17,3*%
%TO.N,N/C*%
X253289663Y82345094D03*
D12*
X249529978Y92293826D03*
X259040544Y89203656D03*
D18*
X259040544Y89203656D03*
%TD*%
D12*
%TO.P,K1,1*%
%TO.N,/R1*%
X193674771Y144175712D03*
D17*
%TO.P,K1,2*%
%TO.N,/C1*%
X188891751Y134794602D03*
D12*
%TO.P,K1,3*%
%TO.N,N/C*%
X197781118Y140633408D03*
D17*
X192030237Y133774846D03*
D12*
X188270552Y143723578D03*
D18*
X197781118Y140633408D03*
%TD*%
D12*
%TO.P,K3,1*%
%TO.N,/R3*%
X182834196Y110895958D03*
D17*
%TO.P,K3,2*%
%TO.N,/C1*%
X178051176Y101514848D03*
%TO.P,K3,3*%
%TO.N,N/C*%
X181189662Y100495092D03*
D18*
X186940543Y107353654D03*
D12*
X186940543Y107353654D03*
X177429977Y110443824D03*
%TD*%
%TO.P,K25,1*%
%TO.N,/R4*%
X332060995Y67291389D03*
D19*
%TO.P,K25,2*%
%TO.N,/C10*%
X335832053Y57459725D03*
D12*
%TO.P,K25,3*%
%TO.N,N/C*%
X337441122Y67972736D03*
X328780868Y62972736D03*
D19*
X338689937Y59109725D03*
D20*
X337441122Y67972736D03*
%TD*%
D12*
%TO.P,K7,1*%
%TO.N,/R3*%
X203534194Y114945960D03*
D17*
%TO.P,K7,2*%
%TO.N,/C2*%
X198751174Y105564850D03*
D18*
%TO.P,K7,3*%
%TO.N,N/C*%
X207640541Y111403656D03*
D17*
X201889660Y104545094D03*
D12*
X207640541Y111403656D03*
X198129975Y114493826D03*
%TD*%
%TO.P,K24,1*%
%TO.N,/R3*%
X347567342Y101777028D03*
D15*
%TO.P,K24,2*%
%TO.N,/C7*%
X349211876Y91376162D03*
%TO.P,K24,3*%
%TO.N,N/C*%
X352350362Y92395918D03*
D16*
X352971561Y101324894D03*
D12*
X343460995Y98234724D03*
X352971561Y101324894D03*
%TD*%
%TO.P,K23,1*%
%TO.N,/R2*%
X342297219Y118375714D03*
D15*
%TO.P,K23,2*%
%TO.N,/C7*%
X343941753Y107974848D03*
%TO.P,K23,3*%
%TO.N,N/C*%
X347080239Y108994604D03*
D16*
X347701438Y117923580D03*
D12*
X338190872Y114833410D03*
X347701438Y117923580D03*
%TD*%
%TO.P,K22,1*%
%TO.N,/R1*%
X337047219Y135175712D03*
D15*
%TO.P,K22,2*%
%TO.N,/C7*%
X338691753Y124774846D03*
%TO.P,K22,3*%
%TO.N,N/C*%
X341830239Y125794602D03*
D16*
X342451438Y134723578D03*
D12*
X342451438Y134723578D03*
X332940872Y131633408D03*
%TD*%
%TO.P,K31,1*%
%TO.N,/R3*%
X382717342Y114927028D03*
D15*
%TO.P,K31,2*%
%TO.N,/C9*%
X384361876Y104526162D03*
D16*
%TO.P,K31,3*%
%TO.N,N/C*%
X388121561Y114474894D03*
D12*
X388121561Y114474894D03*
D15*
X387500362Y105545918D03*
D12*
X378610995Y111384724D03*
%TD*%
%TO.P,K15,1*%
%TO.N,/R1*%
X266474771Y126175715D03*
D17*
%TO.P,K15,2*%
%TO.N,/C5*%
X261691751Y116794605D03*
%TO.P,K15,3*%
%TO.N,N/C*%
X264830237Y115774849D03*
D18*
X270581118Y122633411D03*
D12*
X270581118Y122633411D03*
X261070552Y125723581D03*
%TD*%
%TO.P,K16,1*%
%TO.N,/R2*%
X260674773Y109475714D03*
D17*
%TO.P,K16,2*%
%TO.N,/C5*%
X255891753Y100094604D03*
D12*
%TO.P,K16,3*%
%TO.N,N/C*%
X264781120Y105933410D03*
D18*
X264781120Y105933410D03*
D17*
X259030239Y99074848D03*
D12*
X255270554Y109023580D03*
%TD*%
%TO.P,K4,1*%
%TO.N,/R4*%
X254460994Y67291389D03*
D21*
%TO.P,K4,2*%
%TO.N,/C1*%
X247832052Y59109725D03*
%TO.P,K4,3*%
%TO.N,N/C*%
X250689936Y57459725D03*
D22*
X257741121Y62972736D03*
D12*
X249080867Y67972736D03*
X257741121Y62972736D03*
%TD*%
%TO.P,K10,1*%
%TO.N,/R2*%
X228034197Y129545959D03*
D17*
%TO.P,K10,2*%
%TO.N,/C3*%
X223251177Y120164849D03*
%TO.P,K10,3*%
%TO.N,N/C*%
X226389663Y119145093D03*
D12*
X232140544Y126003655D03*
D18*
X232140544Y126003655D03*
D12*
X222629978Y129093825D03*
%TD*%
%TO.P,K29,1*%
%TO.N,/R1*%
X372047218Y148175714D03*
D15*
%TO.P,K29,2*%
%TO.N,/C9*%
X373691752Y137774848D03*
D12*
%TO.P,K29,3*%
%TO.N,N/C*%
X377451437Y147723580D03*
D15*
X376830238Y138794604D03*
D12*
X367940871Y144633410D03*
D16*
X377451437Y147723580D03*
%TD*%
D12*
%TO.P,K13,1*%
%TO.N,/R2*%
X244124771Y118575715D03*
D17*
%TO.P,K13,2*%
%TO.N,/C4*%
X239341751Y109194605D03*
D12*
%TO.P,K13,3*%
%TO.N,N/C*%
X238720552Y118123581D03*
D17*
X242480237Y108174849D03*
D18*
X248231118Y115033411D03*
D12*
X248231118Y115033411D03*
%TD*%
%TO.P,K12,1*%
%TO.N,/R1*%
X249474771Y135175711D03*
D17*
%TO.P,K12,2*%
%TO.N,/C4*%
X244691751Y125794601D03*
D12*
%TO.P,K12,3*%
%TO.N,N/C*%
X244070552Y134723577D03*
D18*
X253581118Y131633407D03*
D17*
X247830237Y124774845D03*
D12*
X253581118Y131633407D03*
%TD*%
%TO.P,K5,1*%
%TO.N,/R1*%
X214474770Y148175714D03*
D17*
%TO.P,K5,2*%
%TO.N,/C2*%
X209691750Y138794604D03*
D18*
%TO.P,K5,3*%
%TO.N,N/C*%
X218581117Y144633410D03*
D12*
X209070551Y147723580D03*
D17*
X212830236Y137774848D03*
D12*
X218581117Y144633410D03*
%TD*%
%TO.P,K30,1*%
%TO.N,/R2*%
X377437795Y131495958D03*
D15*
%TO.P,K30,2*%
%TO.N,/C9*%
X379082329Y121095092D03*
%TO.P,K30,3*%
%TO.N,N/C*%
X382220815Y122114848D03*
D12*
X373331448Y127953654D03*
X382842014Y131043824D03*
D16*
X382842014Y131043824D03*
%TD*%
D12*
%TO.P,K6,1*%
%TO.N,/R2*%
X208884197Y131595960D03*
D17*
%TO.P,K6,2*%
%TO.N,/C2*%
X204101177Y122214850D03*
D18*
%TO.P,K6,3*%
%TO.N,N/C*%
X212990544Y128053656D03*
D12*
X203479978Y131143826D03*
D17*
X207239663Y121195094D03*
D12*
X212990544Y128053656D03*
%TD*%
%TO.P,K9,1*%
%TO.N,/R1*%
X233474773Y146175715D03*
D17*
%TO.P,K9,2*%
%TO.N,/C3*%
X228691753Y136794605D03*
%TO.P,K9,3*%
%TO.N,N/C*%
X231830239Y135774849D03*
D12*
X237581120Y142633411D03*
X228070554Y145723581D03*
D18*
X237581120Y142633411D03*
%TD*%
D12*
%TO.P,K32,1*%
%TO.N,/R1*%
X392847217Y144175712D03*
D15*
%TO.P,K32,2*%
%TO.N,/C10*%
X394491751Y133774846D03*
D12*
%TO.P,K32,3*%
%TO.N,N/C*%
X398251436Y143723578D03*
X388740870Y140633408D03*
D16*
X398251436Y143723578D03*
D15*
X397630237Y134794602D03*
%TD*%
D12*
%TO.P,K11,1*%
%TO.N,/R3*%
X222584197Y112945959D03*
D17*
%TO.P,K11,2*%
%TO.N,/C3*%
X217801177Y103564849D03*
D18*
%TO.P,K11,3*%
%TO.N,N/C*%
X226690544Y109403655D03*
D12*
X226690544Y109403655D03*
X217179978Y112493825D03*
D17*
X220939663Y102545093D03*
%TD*%
D12*
%TO.P,K20,1*%
%TO.N,/R3*%
X330637796Y92745959D03*
D15*
%TO.P,K20,2*%
%TO.N,/C6*%
X332282330Y82345093D03*
D16*
%TO.P,K20,3*%
%TO.N,N/C*%
X336042015Y92293825D03*
D12*
X336042015Y92293825D03*
D15*
X335420816Y83364849D03*
D12*
X326531449Y89203655D03*
%TD*%
%TO.P,K18,1*%
%TO.N,/R1*%
X320047218Y126175713D03*
D15*
%TO.P,K18,2*%
%TO.N,/C6*%
X321691752Y115774847D03*
D12*
%TO.P,K18,3*%
%TO.N,N/C*%
X315940871Y122633409D03*
D16*
X325451437Y125723579D03*
D15*
X324830238Y116794603D03*
D12*
X325451437Y125723579D03*
%TD*%
%TO.P,K21,1*%
%TO.N,/R4*%
X315148027Y56698503D03*
D23*
%TO.P,K21,2*%
%TO.N,/C9*%
X319926116Y47314880D03*
D12*
%TO.P,K21,3*%
%TO.N,N/C*%
X320427461Y57938493D03*
X312337291Y52060641D03*
D23*
X322595872Y49254572D03*
D24*
X320427461Y57938493D03*
%TD*%
D12*
%TO.P,K34,1*%
%TO.N,/R3*%
X403487795Y110895959D03*
D15*
%TO.P,K34,2*%
%TO.N,/C10*%
X405132329Y100495093D03*
%TO.P,K34,3*%
%TO.N,N/C*%
X408270815Y101514849D03*
D12*
X399381448Y107353655D03*
X408892014Y110443825D03*
D16*
X408892014Y110443825D03*
%TD*%
D12*
%TO.P,K33,1*%
%TO.N,/R2*%
X398237796Y127545959D03*
D15*
%TO.P,K33,2*%
%TO.N,/C10*%
X399882330Y117145093D03*
D12*
%TO.P,K33,3*%
%TO.N,N/C*%
X403642015Y127093825D03*
X394131449Y124003655D03*
D16*
X403642015Y127093825D03*
D15*
X403020816Y118164849D03*
%TD*%
D12*
%TO.P,K2,1*%
%TO.N,/R2*%
X188234196Y127545960D03*
D17*
%TO.P,K2,2*%
%TO.N,/C1*%
X183451176Y118164850D03*
D18*
%TO.P,K2,3*%
%TO.N,N/C*%
X192340543Y124003656D03*
D12*
X192340543Y124003656D03*
X182829977Y127093826D03*
D17*
X186589662Y117145094D03*
%TD*%
D25*
%TO.N,/C1*%
X290720994Y106124726D02*
X290720994Y56570994D01*
X195866024Y83700000D02*
X223241777Y83700000D01*
X290720994Y56570994D02*
X279400000Y45250000D01*
X279400000Y45250000D02*
X261100000Y45250000D01*
X188891751Y134794603D02*
X188311588Y134498995D01*
X247832052Y58416905D02*
X247832052Y59109725D01*
X183451175Y118164850D02*
X182927524Y117898036D01*
X182927524Y117898036D02*
X177865146Y102317640D01*
X223241777Y83700000D02*
X247832052Y59109725D01*
X188311588Y134498995D02*
X183265145Y118967641D01*
X178051176Y101514848D02*
X195866024Y83700000D01*
X260100000Y46250000D02*
X259998957Y46250000D01*
X261100000Y45250000D02*
X260100000Y46250000D01*
X259998957Y46250000D02*
X247832052Y58416905D01*
%TO.N,/R2*%
X285827390Y110754726D02*
X285959192Y110886528D01*
X261953785Y110754726D02*
X260674773Y109475714D01*
X261953785Y110754726D02*
X285827390Y110754726D01*
%TO.N,/R3*%
X254934197Y92745960D02*
X269722228Y92745960D01*
X269722228Y92745960D02*
X285640994Y108664726D01*
%TO.N,/R4*%
X254460994Y67291389D02*
X254460994Y74944726D01*
X254460994Y74944726D02*
X285640994Y106124726D01*
%TO.N,/C4*%
X247300000Y121800000D02*
X256800000Y121800000D01*
X271350000Y124700000D02*
X275450000Y120600000D01*
X277415274Y116284726D02*
X285640994Y116284726D01*
X238661219Y108847856D02*
X233615145Y93317640D01*
X244208548Y125548398D02*
X239155721Y109997395D01*
X275450000Y118250000D02*
X277415274Y116284726D01*
X268950000Y124700000D02*
X271350000Y124700000D01*
X244691751Y125794601D02*
X244691751Y124408249D01*
X268200000Y123950000D02*
X268950000Y124700000D01*
X258950000Y123950000D02*
X268200000Y123950000D01*
X239341751Y109194604D02*
X238661219Y108847856D01*
X275450000Y120600000D02*
X275450000Y118250000D01*
X256800000Y121800000D02*
X258950000Y123950000D01*
X244691750Y125794601D02*
X244208548Y125548398D01*
X244691751Y124408249D02*
X247300000Y121800000D01*
%TO.N,/C2*%
X258289954Y64297736D02*
X249252264Y64297736D01*
X203637442Y121978565D02*
X198565145Y106367640D01*
X208912360Y138397485D02*
X203915146Y123017640D01*
X227498826Y86051174D02*
X218264850Y86051174D01*
X218264850Y86051174D02*
X198751174Y105564850D01*
X204101176Y122214850D02*
X203637442Y121978565D01*
X263926116Y51124491D02*
X288180994Y75379368D01*
X259600000Y53580688D02*
X263926116Y49254572D01*
X288180994Y75379368D02*
X288180994Y106124726D01*
X263926116Y49254572D02*
X263926116Y51124491D01*
X209691750Y138794603D02*
X208912360Y138397485D01*
X259600000Y53580688D02*
X259600000Y62987690D01*
X249252264Y64297736D02*
X227498826Y86051174D01*
X259600000Y62987690D02*
X258289954Y64297736D01*
%TO.N,/C5*%
X261691751Y116794604D02*
X260617632Y116247314D01*
X261691751Y115708249D02*
X264850000Y112550000D01*
X260617632Y116247314D02*
X255476592Y100424822D01*
X284446268Y112550000D02*
X285640994Y113744726D01*
X255891754Y100094603D02*
X254991008Y99635651D01*
X261691751Y116794605D02*
X261691751Y115708249D01*
X264850000Y112550000D02*
X284446268Y112550000D01*
X254991008Y99635651D02*
X249965145Y84167641D01*
%TO.N,/C3*%
X269850000Y128300000D02*
X274850000Y123300000D01*
X228691753Y136794606D02*
X228111591Y136498998D01*
X220563002Y111891498D02*
X217793911Y110480575D01*
X283875274Y118824726D02*
X285640994Y118824726D01*
X231300000Y133000000D02*
X238300000Y133000000D01*
X217793911Y110480575D02*
X216424652Y106266431D01*
X228691753Y135608247D02*
X231300000Y133000000D01*
X279400000Y123300000D02*
X283875274Y118824726D01*
X223251177Y120164848D02*
X220563002Y111891498D01*
X238300000Y133000000D02*
X242400000Y137100000D01*
X252300000Y137100000D02*
X261100000Y128300000D01*
X261100000Y128300000D02*
X269850000Y128300000D01*
X228691753Y136794605D02*
X228691753Y135608247D01*
X228111591Y136498998D02*
X223065147Y120967639D01*
X216424652Y106266431D02*
X217801177Y103564850D01*
X242400000Y137100000D02*
X252300000Y137100000D01*
X274850000Y123300000D02*
X279400000Y123300000D01*
%TO.N,/C6*%
X321311319Y115028206D02*
X326319383Y99614973D01*
X321691752Y115774847D02*
X319661631Y113744726D01*
X326610724Y98425167D02*
X331659959Y82885218D01*
X321691752Y115774847D02*
X321311319Y115028206D01*
X326941753Y99074847D02*
X326610724Y98425167D01*
X319661631Y113744726D02*
X300880994Y113744726D01*
%TO.N,/C7*%
X338691753Y124774846D02*
X338291480Y123989266D01*
X311800000Y121000000D02*
X311800000Y120650000D01*
X343941752Y107974848D02*
X343593708Y107291772D01*
X343406220Y108247715D02*
X343941752Y107974848D01*
X311800000Y120650000D02*
X307434726Y116284726D01*
X307434726Y116284726D02*
X300880994Y116284726D01*
X338291480Y123989266D02*
X343406220Y108247715D01*
X338691753Y124774846D02*
X328775154Y124774846D01*
X319050000Y128250000D02*
X311800000Y121000000D01*
X325300000Y128250000D02*
X319050000Y128250000D01*
X328775154Y124774846D02*
X325300000Y128250000D01*
X343593708Y107291772D02*
X348589506Y91916288D01*
%TO.N,/C8*%
X359676103Y118445957D02*
X364689506Y103016288D01*
X354691753Y135774846D02*
X354148411Y134708479D01*
X300850000Y106093732D02*
X300880994Y106124726D01*
X365311876Y102476162D02*
X365311876Y79561876D01*
X300850000Y80750000D02*
X300850000Y106093732D01*
X359041171Y119650113D02*
X360032330Y119145092D01*
X365311876Y79561876D02*
X360550000Y74800000D01*
X360032330Y119145092D02*
X359676103Y118445957D01*
X306800000Y74800000D02*
X300850000Y80750000D01*
X360550000Y74800000D02*
X306800000Y74800000D01*
X354148411Y134708479D02*
X359041171Y119650113D01*
%TO.N,/C9*%
X373401174Y137204558D02*
X378459959Y121635217D01*
X379082329Y121095092D02*
X378745942Y120434895D01*
X378745942Y120434895D02*
X383739505Y105066288D01*
X310340996Y56900000D02*
X310150000Y56900000D01*
X386700000Y94250000D02*
X387550000Y94250000D01*
X332900000Y73900000D02*
X366350000Y73900000D01*
X386888038Y102000000D02*
X384361876Y104526162D01*
X298450000Y106015720D02*
X298340994Y106124726D01*
X373691751Y137774848D02*
X373401174Y137204558D01*
X387550000Y94250000D02*
X387550000Y102000000D01*
X324914880Y47314880D02*
X328200000Y50600000D01*
X327450000Y68450000D02*
X332900000Y73900000D01*
X310150000Y56900000D02*
X298450000Y68600000D01*
X319926116Y47314880D02*
X310340996Y56900000D01*
X319926116Y47314880D02*
X324914880Y47314880D01*
X366350000Y73900000D02*
X386700000Y94250000D01*
X387550000Y102000000D02*
X386888038Y102000000D01*
X327455868Y51344132D02*
X327455868Y68444132D01*
X328200000Y50600000D02*
X327455868Y51344132D01*
X298450000Y68600000D02*
X298450000Y106015720D01*
X327455868Y68444132D02*
X327450000Y68450000D01*
%TO.N,/C10*%
X315100000Y45450000D02*
X296950000Y45450000D01*
X394987236Y90350000D02*
X405132329Y100495093D01*
X341959725Y57459725D02*
X357400000Y72900000D01*
X367350000Y72900000D02*
X384800000Y90350000D01*
X335832053Y57459725D02*
X341959725Y57459725D01*
X357400000Y72900000D02*
X367350000Y72900000D01*
X394491750Y133774846D02*
X394211094Y133224028D01*
X326350000Y45200000D02*
X315350000Y45200000D01*
X394211094Y133224028D02*
X399259960Y117685218D01*
X399882330Y117145093D02*
X399511816Y116417919D01*
X335832053Y54682053D02*
X326350000Y45200000D01*
X295800994Y46599006D02*
X295800994Y106124726D01*
X315350000Y45200000D02*
X315100000Y45450000D01*
X384800000Y90350000D02*
X394987236Y90350000D01*
X335832053Y57459725D02*
X335832053Y54682053D01*
X399511816Y116417919D02*
X404509959Y101035218D01*
X296950000Y45450000D02*
X295800994Y46599006D01*
%TD*%
M02*
