%TF.GenerationSoftware,KiCad,Pcbnew,(6.0.7-1)-1*%
%TF.CreationDate,2023-02-18T17:29:48+08:00*%
%TF.ProjectId,karp2040,6b617270-3230-4343-902e-6b696361645f,rev?*%
%TF.SameCoordinates,Original*%
%TF.FileFunction,Copper,L2,Bot*%
%TF.FilePolarity,Positive*%
%FSLAX46Y46*%
G04 Gerber Fmt 4.6, Leading zero omitted, Abs format (unit mm)*
G04 Created by KiCad (PCBNEW (6.0.7-1)-1) date 2023-02-18 17:29:48*
%MOMM*%
%LPD*%
G01*
G04 APERTURE LIST*
G04 Aperture macros list*
%AMRotRect*
0 Rectangle, with rotation*
0 The origin of the aperture is its center*
0 $1 length*
0 $2 width*
0 $3 Rotation angle, in degrees counterclockwise*
0 Add horizontal line*
21,1,$1,$2,0,0,$3*%
%AMFreePoly0*
4,1,15,10.036070,0.121770,10.096138,0.082984,10.125733,0.017894,10.115473,-0.052868,10.068611,-0.106872,10.000000,-0.127000,0.000000,-0.127000,-0.036070,-0.121770,-0.096138,-0.082984,-0.125733,-0.017894,-0.115473,0.052867,-0.068611,0.106872,0.000000,0.127000,10.000000,0.127000,10.036070,0.121770,10.036070,0.121770,$1*%
G04 Aperture macros list end*
%TA.AperFunction,ComponentPad*%
%ADD10O,2.500000X1.500000*%
%TD*%
%TA.AperFunction,ComponentPad*%
%ADD11O,1.500000X2.500000*%
%TD*%
%TA.AperFunction,ComponentPad*%
%ADD12C,2.000000*%
%TD*%
%TA.AperFunction,ComponentPad*%
%ADD13RotRect,0.900000X1.200000X324.000000*%
%TD*%
%TA.AperFunction,SMDPad,CuDef*%
%ADD14FreePoly0,324.000000*%
%TD*%
%TA.AperFunction,ComponentPad*%
%ADD15RotRect,0.900000X1.200000X18.000000*%
%TD*%
%TA.AperFunction,SMDPad,CuDef*%
%ADD16FreePoly0,18.000000*%
%TD*%
%TA.AperFunction,ComponentPad*%
%ADD17RotRect,0.900000X1.200000X342.000000*%
%TD*%
%TA.AperFunction,SMDPad,CuDef*%
%ADD18FreePoly0,342.000000*%
%TD*%
%TA.AperFunction,ComponentPad*%
%ADD19RotRect,0.900000X1.200000X30.000000*%
%TD*%
%TA.AperFunction,SMDPad,CuDef*%
%ADD20FreePoly0,30.000000*%
%TD*%
%TA.AperFunction,ComponentPad*%
%ADD21RotRect,0.900000X1.200000X330.000000*%
%TD*%
%TA.AperFunction,SMDPad,CuDef*%
%ADD22FreePoly0,330.000000*%
%TD*%
%TA.AperFunction,ComponentPad*%
%ADD23RotRect,0.900000X1.200000X36.000000*%
%TD*%
%TA.AperFunction,SMDPad,CuDef*%
%ADD24FreePoly0,36.000000*%
%TD*%
%TA.AperFunction,Conductor*%
%ADD25C,0.250000*%
%TD*%
G04 APERTURE END LIST*
D10*
%TO.P,U1,1,0*%
%TO.N,unconnected-(U1-Pad1)*%
X301380994Y126444726D03*
%TO.P,U1,2,1*%
%TO.N,unconnected-(U1-Pad2)*%
X301380994Y123904726D03*
%TO.P,U1,3,2*%
%TO.N,unconnected-(U1-Pad3)*%
X301380994Y121364726D03*
%TO.P,U1,4,3*%
%TO.N,unconnected-(U1-Pad4)*%
X301380994Y118824726D03*
%TO.P,U1,5,4*%
%TO.N,/C7*%
X301380994Y116284726D03*
%TO.P,U1,6,5*%
%TO.N,/C6*%
X301380994Y113744726D03*
%TO.P,U1,7,6*%
%TO.N,unconnected-(U1-Pad7)*%
X301380994Y111204726D03*
%TO.P,U1,8,7*%
%TO.N,/R1*%
X301380994Y108664726D03*
%TO.P,U1,9,8*%
%TO.N,/C8*%
X301380994Y106124726D03*
D11*
%TO.P,U1,10,9*%
%TO.N,/C9*%
X298340994Y105624726D03*
%TO.P,U1,11,10*%
%TO.N,/C10*%
X295800994Y105624726D03*
%TO.P,U1,12,11*%
%TO.N,unconnected-(U1-Pad12)*%
X293260994Y105624726D03*
%TO.P,U1,13,12*%
%TO.N,/C1*%
X290720994Y105624726D03*
%TO.P,U1,14,13*%
%TO.N,/C2*%
X288180994Y105624726D03*
D10*
%TO.P,U1,15,14*%
%TO.N,/R4*%
X285140994Y106124726D03*
%TO.P,U1,16,15*%
%TO.N,/R3*%
X285140994Y108664726D03*
%TO.P,U1,17,26*%
%TO.N,/R2*%
X285140994Y111204726D03*
%TO.P,U1,18,27*%
%TO.N,/C5*%
X285140994Y113744726D03*
%TO.P,U1,19,28*%
%TO.N,/C4*%
X285140994Y116284726D03*
%TO.P,U1,20,29*%
%TO.N,/C3*%
X285140994Y118824726D03*
%TO.P,U1,21,3V3*%
%TO.N,unconnected-(U1-Pad21)*%
X285140994Y121364726D03*
%TO.P,U1,22,GND*%
%TO.N,unconnected-(U1-Pad22)*%
X285140994Y123904726D03*
%TO.P,U1,23,5V*%
%TO.N,unconnected-(U1-Pad23)*%
X285140994Y126444726D03*
%TD*%
D12*
%TO.P,K8,1*%
%TO.N,/R4*%
X271373961Y56698503D03*
D13*
%TO.P,K8,2*%
%TO.N,/C2*%
X263926116Y49254572D03*
%TO.P,K8,3*%
%TO.N,N/C*%
X266595872Y47314880D03*
D12*
X266094527Y57938493D03*
D14*
X266094527Y57938493D03*
D12*
X274184697Y52060641D03*
%TD*%
%TO.P,K28,1*%
%TO.N,/R3*%
X363667342Y112877028D03*
D15*
%TO.P,K28,2*%
%TO.N,/C8*%
X365311876Y102476162D03*
%TO.P,K28,3*%
%TO.N,N/C*%
X368450362Y103495918D03*
D16*
X359560995Y109334724D03*
D12*
X359560995Y109334724D03*
X369071561Y112424894D03*
%TD*%
%TO.P,K27,1*%
%TO.N,/R2*%
X358387796Y129545958D03*
D15*
%TO.P,K27,2*%
%TO.N,/C8*%
X360032330Y119145092D03*
D12*
%TO.P,K27,3*%
%TO.N,N/C*%
X363792015Y129093824D03*
D16*
X354281449Y126003654D03*
D15*
X363170816Y120164848D03*
D12*
X354281449Y126003654D03*
%TD*%
%TO.P,K14,1*%
%TO.N,/R3*%
X238584196Y101895959D03*
D17*
%TO.P,K14,2*%
%TO.N,/C4*%
X233801176Y92514849D03*
D12*
%TO.P,K14,3*%
%TO.N,N/C*%
X233179977Y101443825D03*
X242690543Y98353655D03*
D17*
X236939662Y91495093D03*
D18*
X233179977Y101443825D03*
%TD*%
D12*
%TO.P,K19,1*%
%TO.N,/R2*%
X325297219Y109475713D03*
D15*
%TO.P,K19,2*%
%TO.N,/C6*%
X326941753Y99074847D03*
D16*
%TO.P,K19,3*%
%TO.N,N/C*%
X321190872Y105933409D03*
D15*
X330080239Y100094603D03*
D12*
X321190872Y105933409D03*
X330701438Y109023579D03*
%TD*%
%TO.P,K26,1*%
%TO.N,/R1*%
X353047219Y146175712D03*
D15*
%TO.P,K26,2*%
%TO.N,/C8*%
X354691753Y135774846D03*
D12*
%TO.P,K26,3*%
%TO.N,N/C*%
X348940872Y142633408D03*
D15*
X357830239Y136794602D03*
D16*
X348940872Y142633408D03*
D12*
X358451438Y145723578D03*
%TD*%
%TO.P,K17,1*%
%TO.N,/R3*%
X254934197Y92745960D03*
D17*
%TO.P,K17,2*%
%TO.N,/C5*%
X250151177Y83364850D03*
%TO.P,K17,3*%
%TO.N,N/C*%
X253289663Y82345094D03*
D12*
X249529978Y92293826D03*
X259040544Y89203656D03*
D18*
X249529978Y92293826D03*
%TD*%
D12*
%TO.P,K1,1*%
%TO.N,/R1*%
X193674771Y144175712D03*
D17*
%TO.P,K1,2*%
%TO.N,/C1*%
X188891751Y134794602D03*
D12*
%TO.P,K1,3*%
%TO.N,N/C*%
X197781118Y140633408D03*
D18*
X188270552Y143723578D03*
D17*
X192030237Y133774846D03*
D12*
X188270552Y143723578D03*
%TD*%
%TO.P,K3,1*%
%TO.N,/R3*%
X182834196Y110895958D03*
D17*
%TO.P,K3,2*%
%TO.N,/C1*%
X178051176Y101514848D03*
%TO.P,K3,3*%
%TO.N,N/C*%
X181189662Y100495092D03*
D12*
X186940543Y107353654D03*
D18*
X177429977Y110443824D03*
D12*
X177429977Y110443824D03*
%TD*%
%TO.P,K25,1*%
%TO.N,/R4*%
X332060995Y67291389D03*
D19*
%TO.P,K25,2*%
%TO.N,/C10*%
X335832053Y57459725D03*
D12*
%TO.P,K25,3*%
%TO.N,N/C*%
X337441122Y67972736D03*
D20*
X328780868Y62972736D03*
D12*
X328780868Y62972736D03*
D19*
X338689937Y59109725D03*
%TD*%
D12*
%TO.P,K7,1*%
%TO.N,/R3*%
X203534194Y114945960D03*
D17*
%TO.P,K7,2*%
%TO.N,/C2*%
X198751174Y105564850D03*
%TO.P,K7,3*%
%TO.N,N/C*%
X201889660Y104545094D03*
D12*
X207640541Y111403656D03*
X198129975Y114493826D03*
D18*
X198129975Y114493826D03*
%TD*%
D12*
%TO.P,K24,1*%
%TO.N,/R3*%
X347567342Y101777028D03*
D15*
%TO.P,K24,2*%
%TO.N,/C7*%
X349211876Y91376162D03*
%TO.P,K24,3*%
%TO.N,N/C*%
X352350362Y92395918D03*
D12*
X343460995Y98234724D03*
D16*
X343460995Y98234724D03*
D12*
X352971561Y101324894D03*
%TD*%
%TO.P,K23,1*%
%TO.N,/R2*%
X342297219Y118375714D03*
D15*
%TO.P,K23,2*%
%TO.N,/C7*%
X343941753Y107974848D03*
%TO.P,K23,3*%
%TO.N,N/C*%
X347080239Y108994604D03*
D12*
X338190872Y114833410D03*
X347701438Y117923580D03*
D16*
X338190872Y114833410D03*
%TD*%
D12*
%TO.P,K22,1*%
%TO.N,/R1*%
X337047219Y135175712D03*
D15*
%TO.P,K22,2*%
%TO.N,/C7*%
X338691753Y124774846D03*
%TO.P,K22,3*%
%TO.N,N/C*%
X341830239Y125794602D03*
D16*
X332940872Y131633408D03*
D12*
X342451438Y134723578D03*
X332940872Y131633408D03*
%TD*%
%TO.P,K31,1*%
%TO.N,/R3*%
X382717342Y114927028D03*
D15*
%TO.P,K31,2*%
%TO.N,/C9*%
X384361876Y104526162D03*
D16*
%TO.P,K31,3*%
%TO.N,N/C*%
X378610995Y111384724D03*
D12*
X388121561Y114474894D03*
D15*
X387500362Y105545918D03*
D12*
X378610995Y111384724D03*
%TD*%
%TO.P,K15,1*%
%TO.N,/R1*%
X266474771Y126175715D03*
D17*
%TO.P,K15,2*%
%TO.N,/C5*%
X261691751Y116794605D03*
%TO.P,K15,3*%
%TO.N,N/C*%
X264830237Y115774849D03*
D18*
X261070552Y125723581D03*
D12*
X270581118Y122633411D03*
X261070552Y125723581D03*
%TD*%
%TO.P,K16,1*%
%TO.N,/R2*%
X260674773Y109475714D03*
D17*
%TO.P,K16,2*%
%TO.N,/C5*%
X255891753Y100094604D03*
D12*
%TO.P,K16,3*%
%TO.N,N/C*%
X264781120Y105933410D03*
D17*
X259030239Y99074848D03*
D18*
X255270554Y109023580D03*
D12*
X255270554Y109023580D03*
%TD*%
%TO.P,K4,1*%
%TO.N,/R4*%
X254460994Y67291389D03*
D21*
%TO.P,K4,2*%
%TO.N,/C1*%
X247832052Y59109725D03*
D22*
%TO.P,K4,3*%
%TO.N,N/C*%
X249080867Y67972736D03*
D21*
X250689936Y57459725D03*
D12*
X249080867Y67972736D03*
X257741121Y62972736D03*
%TD*%
%TO.P,K10,1*%
%TO.N,/R2*%
X228034197Y129545959D03*
D17*
%TO.P,K10,2*%
%TO.N,/C3*%
X223251177Y120164849D03*
%TO.P,K10,3*%
%TO.N,N/C*%
X226389663Y119145093D03*
D12*
X232140544Y126003655D03*
D18*
X222629978Y129093825D03*
D12*
X222629978Y129093825D03*
%TD*%
%TO.P,K29,1*%
%TO.N,/R1*%
X372047218Y148175714D03*
D15*
%TO.P,K29,2*%
%TO.N,/C9*%
X373691752Y137774848D03*
D12*
%TO.P,K29,3*%
%TO.N,N/C*%
X377451437Y147723580D03*
D15*
X376830238Y138794604D03*
D12*
X367940871Y144633410D03*
D16*
X367940871Y144633410D03*
%TD*%
D12*
%TO.P,K13,1*%
%TO.N,/R2*%
X244124771Y118575715D03*
D17*
%TO.P,K13,2*%
%TO.N,/C4*%
X239341751Y109194605D03*
D12*
%TO.P,K13,3*%
%TO.N,N/C*%
X238720552Y118123581D03*
D17*
X242480237Y108174849D03*
D12*
X248231118Y115033411D03*
D18*
X238720552Y118123581D03*
%TD*%
D12*
%TO.P,K12,1*%
%TO.N,/R1*%
X249474771Y135175711D03*
D17*
%TO.P,K12,2*%
%TO.N,/C4*%
X244691751Y125794601D03*
D18*
%TO.P,K12,3*%
%TO.N,N/C*%
X244070552Y134723577D03*
D12*
X244070552Y134723577D03*
D17*
X247830237Y124774845D03*
D12*
X253581118Y131633407D03*
%TD*%
%TO.P,K5,1*%
%TO.N,/R1*%
X214474770Y148175714D03*
D17*
%TO.P,K5,2*%
%TO.N,/C2*%
X209691750Y138794604D03*
D18*
%TO.P,K5,3*%
%TO.N,N/C*%
X209070551Y147723580D03*
D12*
X209070551Y147723580D03*
D17*
X212830236Y137774848D03*
D12*
X218581117Y144633410D03*
%TD*%
%TO.P,K30,1*%
%TO.N,/R2*%
X377437795Y131495958D03*
D15*
%TO.P,K30,2*%
%TO.N,/C9*%
X379082329Y121095092D03*
%TO.P,K30,3*%
%TO.N,N/C*%
X382220815Y122114848D03*
D12*
X373331448Y127953654D03*
X382842014Y131043824D03*
D16*
X373331448Y127953654D03*
%TD*%
D12*
%TO.P,K6,1*%
%TO.N,/R2*%
X208884197Y131595960D03*
D17*
%TO.P,K6,2*%
%TO.N,/C2*%
X204101177Y122214850D03*
D18*
%TO.P,K6,3*%
%TO.N,N/C*%
X203479978Y131143826D03*
D12*
X203479978Y131143826D03*
D17*
X207239663Y121195094D03*
D12*
X212990544Y128053656D03*
%TD*%
%TO.P,K9,1*%
%TO.N,/R1*%
X233474773Y146175715D03*
D17*
%TO.P,K9,2*%
%TO.N,/C3*%
X228691753Y136794605D03*
%TO.P,K9,3*%
%TO.N,N/C*%
X231830239Y135774849D03*
D12*
X237581120Y142633411D03*
X228070554Y145723581D03*
D18*
X228070554Y145723581D03*
%TD*%
D12*
%TO.P,K32,1*%
%TO.N,/R1*%
X392847217Y144175712D03*
D15*
%TO.P,K32,2*%
%TO.N,/C10*%
X394491751Y133774846D03*
D12*
%TO.P,K32,3*%
%TO.N,N/C*%
X398251436Y143723578D03*
D16*
X388740870Y140633408D03*
D12*
X388740870Y140633408D03*
D15*
X397630237Y134794602D03*
%TD*%
D12*
%TO.P,K11,1*%
%TO.N,/R3*%
X222584197Y112945959D03*
D17*
%TO.P,K11,2*%
%TO.N,/C3*%
X217801177Y103564849D03*
D12*
%TO.P,K11,3*%
%TO.N,N/C*%
X226690544Y109403655D03*
X217179978Y112493825D03*
D18*
X217179978Y112493825D03*
D17*
X220939663Y102545093D03*
%TD*%
D12*
%TO.P,K20,1*%
%TO.N,/R3*%
X330637796Y92745959D03*
D15*
%TO.P,K20,2*%
%TO.N,/C6*%
X332282330Y82345093D03*
D12*
%TO.P,K20,3*%
%TO.N,N/C*%
X336042015Y92293825D03*
D16*
X326531449Y89203655D03*
D15*
X335420816Y83364849D03*
D12*
X326531449Y89203655D03*
%TD*%
%TO.P,K18,1*%
%TO.N,/R1*%
X320047218Y126175713D03*
D15*
%TO.P,K18,2*%
%TO.N,/C6*%
X321691752Y115774847D03*
D12*
%TO.P,K18,3*%
%TO.N,N/C*%
X315940871Y122633409D03*
D16*
X315940871Y122633409D03*
D15*
X324830238Y116794603D03*
D12*
X325451437Y125723579D03*
%TD*%
%TO.P,K21,1*%
%TO.N,/R4*%
X315148027Y56698503D03*
D23*
%TO.P,K21,2*%
%TO.N,/C9*%
X319926116Y47314880D03*
D12*
%TO.P,K21,3*%
%TO.N,N/C*%
X320427461Y57938493D03*
X312337291Y52060641D03*
D24*
X312337291Y52060641D03*
D23*
X322595872Y49254572D03*
%TD*%
D12*
%TO.P,K34,1*%
%TO.N,/R3*%
X403487795Y110895959D03*
D15*
%TO.P,K34,2*%
%TO.N,/C10*%
X405132329Y100495093D03*
%TO.P,K34,3*%
%TO.N,N/C*%
X408270815Y101514849D03*
D12*
X399381448Y107353655D03*
D16*
X399381448Y107353655D03*
D12*
X408892014Y110443825D03*
%TD*%
%TO.P,K33,1*%
%TO.N,/R2*%
X398237796Y127545959D03*
D15*
%TO.P,K33,2*%
%TO.N,/C10*%
X399882330Y117145093D03*
D12*
%TO.P,K33,3*%
%TO.N,N/C*%
X403642015Y127093825D03*
D16*
X394131449Y124003655D03*
D12*
X394131449Y124003655D03*
D15*
X403020816Y118164849D03*
%TD*%
D12*
%TO.P,K2,1*%
%TO.N,/R2*%
X188234196Y127545960D03*
D17*
%TO.P,K2,2*%
%TO.N,/C1*%
X183451176Y118164850D03*
D12*
%TO.P,K2,3*%
%TO.N,N/C*%
X192340543Y124003656D03*
X182829977Y127093826D03*
D18*
X182829977Y127093826D03*
D17*
X186589662Y117145094D03*
%TD*%
D25*
%TO.N,/R1*%
X312600000Y124150000D02*
X314625713Y126175713D01*
X329305740Y132660353D02*
X337047220Y135175712D01*
X266474771Y126175715D02*
X270724285Y126175715D01*
X353047219Y146175712D02*
X359587336Y148300725D01*
X378474255Y150263985D02*
X381256286Y148846469D01*
X205133864Y145960244D02*
X206601694Y150477761D01*
X233474773Y146175714D02*
X239704221Y144151645D01*
X372047218Y148175714D02*
X378474255Y150263985D01*
X243246581Y137199373D02*
X249474770Y135175712D01*
X239704221Y144151645D02*
X243246581Y137199373D01*
X275350000Y96550000D02*
X276950000Y94950000D01*
X206908567Y150634121D02*
X214474770Y148175714D01*
X337047220Y135175712D02*
X342829174Y137054383D01*
X346578884Y144413603D02*
X346985837Y144206250D01*
X198533290Y142597084D02*
X205133864Y145960244D01*
X225843045Y148655414D02*
X233474773Y146175714D01*
X381256286Y148846469D02*
X383419405Y142189074D01*
X312600000Y108500000D02*
X312600000Y124150000D01*
X193674770Y144175712D02*
X198533290Y142597084D01*
X342829174Y137054383D02*
X346578884Y144413603D01*
X314625713Y126175713D02*
X320047218Y126175713D01*
X300880994Y108664726D02*
X312435274Y108664726D01*
X312600000Y95850000D02*
X312600000Y108500000D01*
X258208566Y128861566D02*
X266474770Y126175715D01*
X220841545Y146107022D02*
X225843045Y148655414D01*
X214474770Y148175714D02*
X220841545Y146107022D01*
X326630815Y128314853D02*
X328939928Y132846744D01*
X364588830Y145752337D02*
X372047218Y148175714D01*
X276950000Y94950000D02*
X311700000Y94950000D01*
X384709656Y141531658D02*
X392847217Y144175712D01*
X383419405Y142189074D02*
X384709656Y141531658D01*
X359587336Y148300725D02*
X364588830Y145752337D01*
X311700000Y94950000D02*
X312600000Y95850000D01*
X206601694Y150477761D02*
X206908567Y150634121D01*
X320047218Y126175712D02*
X326630815Y128314853D01*
X275350000Y121550000D02*
X275350000Y96550000D01*
X249474770Y135175712D02*
X256085844Y133027643D01*
X328939928Y132846744D02*
X329305740Y132660353D01*
X312435274Y108664726D02*
X312600000Y108500000D01*
X256085844Y133027643D02*
X258208566Y128861566D01*
X270724285Y126175715D02*
X275350000Y121550000D01*
X346985837Y144206250D02*
X353047219Y146175712D01*
%TO.N,/R2*%
X199401599Y128318146D02*
X200977585Y133168533D01*
X351325524Y127251287D02*
X358387796Y129545958D01*
X272650000Y100878817D02*
X272650000Y94450000D01*
X333573994Y115541366D02*
X342297219Y118375714D01*
X228034197Y129545959D02*
X235578469Y127094676D01*
X260674773Y109475714D02*
X264053103Y109475714D01*
X314400000Y101350000D02*
X322525713Y109475713D01*
X365285369Y131787115D02*
X370654385Y129051465D01*
X391758637Y125440752D02*
X398237796Y127545958D01*
X272950000Y94150000D02*
X313150000Y94150000D01*
X347697184Y120130269D02*
X351325524Y127251287D01*
X272650000Y94450000D02*
X272950000Y94150000D01*
X244124771Y118575715D02*
X250259599Y116582387D01*
X386981502Y132358689D02*
X388727448Y126985220D01*
X220343835Y132044709D02*
X228034197Y129545959D01*
X313150000Y94150000D02*
X314400000Y95400000D01*
X322525713Y109475713D02*
X325297219Y109475713D01*
X314400000Y95400000D02*
X314400000Y101350000D01*
X188234196Y127545959D02*
X194127801Y125631012D01*
X264053103Y109475714D02*
X272650000Y100878817D01*
X202171720Y133776976D02*
X208884196Y131595959D01*
X208884196Y131595959D02*
X215343852Y129497091D01*
X194127801Y125631012D02*
X199401599Y128318146D01*
X370801194Y129339595D02*
X377437796Y131495958D01*
X252532666Y112121245D02*
X260674773Y109475713D01*
X235578469Y127094676D02*
X239084686Y120213338D01*
X239084686Y120213338D02*
X244124771Y118575715D01*
X358387796Y129545958D02*
X365285369Y131787115D01*
X331512332Y111495125D02*
X333573994Y115541366D01*
X325297219Y109475713D02*
X331512332Y111495125D01*
X384299233Y133725374D02*
X386981502Y132358689D01*
X200977585Y133168533D02*
X202171720Y133776976D01*
X342297219Y118375714D02*
X347697184Y120130269D01*
X388727448Y126985220D02*
X391758637Y125440752D01*
X215343852Y129497091D02*
X220343835Y132044709D01*
X370654385Y129051465D02*
X370801194Y129339595D01*
X250259599Y116582387D02*
X252532666Y112121245D01*
X377437796Y131495958D02*
X384299233Y133725374D01*
%TO.N,/R3*%
X356930949Y110688241D02*
X363667342Y112877028D01*
X232893955Y105028565D02*
X237800327Y103434388D01*
X230104935Y110502322D02*
X232893955Y105028565D01*
X182834195Y110895958D02*
X188382366Y109093248D01*
X222584197Y112945958D02*
X230104935Y110502322D01*
X393725122Y110471339D02*
X397017687Y108793693D01*
X375349444Y112533053D02*
X382717342Y114927028D01*
X195251169Y116838862D02*
X196207990Y117326387D01*
X330637796Y92745958D02*
X338307375Y95237956D01*
X370388399Y115060832D02*
X375349444Y112533053D01*
X363667342Y112877028D02*
X370388399Y115060832D01*
X392056430Y115607044D02*
X393725122Y110471339D01*
X203534193Y114945959D02*
X210901813Y112552074D01*
X215922779Y115110384D02*
X222584197Y112945958D01*
X193597928Y111750711D02*
X195251169Y116838862D01*
X237800327Y103434388D02*
X238584196Y101895958D01*
X389234869Y117044701D02*
X392056430Y115607044D01*
X356775092Y110767655D02*
X356930949Y110688241D01*
X338307375Y95237956D02*
X340463049Y99468703D01*
X248479941Y94843074D02*
X254934196Y92745958D01*
X397017687Y108793693D02*
X403487795Y110895958D01*
X347567342Y101777028D02*
X353112100Y103578629D01*
X188382366Y109093248D02*
X193597928Y111750711D01*
X340463049Y99468703D02*
X347567342Y101777028D01*
X353112100Y103578629D02*
X356775092Y110767655D01*
X238584196Y101895958D02*
X246136663Y99442014D01*
X246136663Y99442014D02*
X248479941Y94843074D01*
X254934197Y92745960D02*
X330637796Y92745959D01*
X382717342Y114927028D02*
X389234869Y117044701D01*
X196207990Y117326387D02*
X203534193Y114945959D01*
X210901813Y112552074D02*
X215922779Y115110384D01*
%TO.N,/R4*%
X271373961Y56698502D02*
X315148027Y56698502D01*
X325534251Y67084726D02*
X325660995Y67084726D01*
X325660995Y67084726D02*
X325867656Y67291389D01*
X254460994Y67291389D02*
X260781074Y67291389D01*
X325867656Y67291389D02*
X332060996Y67291389D01*
X260781074Y67291389D02*
X271373961Y56698502D01*
X315148027Y56698502D02*
X325534251Y67084726D01*
%TD*%
M02*
