%TF.GenerationSoftware,KiCad,Pcbnew,(6.0.7-1)-1*%
%TF.CreationDate,2023-02-18T17:29:49+08:00*%
%TF.ProjectId,karp2040,6b617270-3230-4343-902e-6b696361645f,rev?*%
%TF.SameCoordinates,Original*%
%TF.FileFunction,Soldermask,Top*%
%TF.FilePolarity,Negative*%
%FSLAX46Y46*%
G04 Gerber Fmt 4.6, Leading zero omitted, Abs format (unit mm)*
G04 Created by KiCad (PCBNEW (6.0.7-1)-1) date 2023-02-18 17:29:49*
%MOMM*%
%LPD*%
G01*
G04 APERTURE LIST*
G04 Aperture macros list*
%AMRotRect*
0 Rectangle, with rotation*
0 The origin of the aperture is its center*
0 $1 length*
0 $2 width*
0 $3 Rotation angle, in degrees counterclockwise*
0 Add horizontal line*
21,1,$1,$2,0,0,$3*%
G04 Aperture macros list end*
%ADD10O,2.500000X1.500000*%
%ADD11O,1.500000X2.500000*%
%ADD12C,1.700000*%
%ADD13C,3.400000*%
%ADD14C,2.000000*%
%ADD15RotRect,0.900000X1.200000X324.000000*%
%ADD16RotRect,0.900000X1.200000X18.000000*%
%ADD17RotRect,0.900000X1.200000X342.000000*%
%ADD18RotRect,0.900000X1.200000X30.000000*%
%ADD19RotRect,0.900000X1.200000X330.000000*%
%ADD20RotRect,0.900000X1.200000X36.000000*%
G04 APERTURE END LIST*
D10*
%TO.C,U1*%
X301380994Y126444726D03*
X301380994Y123904726D03*
X301380994Y121364726D03*
X301380994Y118824726D03*
X301380994Y116284726D03*
X301380994Y113744726D03*
X301380994Y111204726D03*
X301380994Y108664726D03*
X301380994Y106124726D03*
D11*
X298340994Y105624726D03*
X295800994Y105624726D03*
X293260994Y105624726D03*
X290720994Y105624726D03*
X288180994Y105624726D03*
D10*
X285140994Y106124726D03*
X285140994Y108664726D03*
X285140994Y111204726D03*
X285140994Y113744726D03*
X285140994Y116284726D03*
X285140994Y118824726D03*
X285140994Y121364726D03*
X285140994Y123904726D03*
X285140994Y126444726D03*
%TD*%
D12*
%TO.C,K8*%
X272355621Y48692484D03*
D13*
X267906028Y51925302D03*
D12*
X263456434Y55158121D03*
D14*
X271373961Y56698503D03*
D15*
X263926116Y49254572D03*
X266595872Y47314880D03*
D14*
X266094527Y57938493D03*
%TD*%
D13*
%TO.C,K28*%
X365490543Y107265794D03*
D12*
X370721353Y108965388D03*
X360259732Y105566201D03*
D14*
X363667342Y112877028D03*
D16*
X365311876Y102476162D03*
X368450362Y103495918D03*
D14*
X359560995Y109334724D03*
%TD*%
D12*
%TO.C,K27*%
X354980186Y122235131D03*
X365441807Y125634318D03*
D13*
X360210997Y123934724D03*
D14*
X358387796Y129545958D03*
D16*
X360032330Y119145092D03*
X363170816Y120164848D03*
D14*
X354281449Y126003654D03*
%TD*%
D12*
%TO.C,K14*%
X231530185Y97984319D03*
D13*
X236760995Y96284725D03*
D12*
X241991806Y94585132D03*
D14*
X238584196Y101895959D03*
D17*
X233801176Y92514849D03*
D14*
X233179977Y101443825D03*
D17*
X236939662Y91495093D03*
%TD*%
D12*
%TO.C,K19*%
X332351230Y105564073D03*
D13*
X327120420Y103864479D03*
D12*
X321889609Y102164886D03*
D14*
X325297219Y109475713D03*
D16*
X326941753Y99074847D03*
X330080239Y100094603D03*
D14*
X321190872Y105933409D03*
%TD*%
D13*
%TO.C,K26*%
X354870420Y140564478D03*
D12*
X360101230Y142264072D03*
X349639609Y138864885D03*
D14*
X353047219Y146175712D03*
D16*
X354691753Y135774846D03*
D14*
X348940872Y142633408D03*
D16*
X357830239Y136794602D03*
%TD*%
D12*
%TO.C,K17*%
X258341807Y85435133D03*
X247880186Y88834320D03*
D13*
X253110996Y87134726D03*
D14*
X254934197Y92745960D03*
D17*
X250151177Y83364850D03*
X253289663Y82345094D03*
D14*
X249529978Y92293826D03*
%TD*%
D13*
%TO.C,K1*%
X191851570Y138564478D03*
D12*
X186620760Y140264072D03*
X197082381Y136864885D03*
D14*
X193674771Y144175712D03*
D17*
X188891751Y134794602D03*
X192030237Y133774846D03*
D14*
X188270552Y143723578D03*
%TD*%
D12*
%TO.C,K3*%
X175780185Y106984318D03*
D13*
X181010995Y105284724D03*
D12*
X186241806Y103585131D03*
D14*
X182834196Y110895958D03*
D17*
X178051176Y101514848D03*
X181189662Y100495092D03*
D14*
X177429977Y110443824D03*
%TD*%
D12*
%TO.C,K25*%
X330247855Y59431839D03*
D13*
X335010995Y62181839D03*
D12*
X339774135Y64931839D03*
D14*
X332060995Y67291389D03*
D18*
X335832053Y57459725D03*
D14*
X328780868Y62972736D03*
D18*
X338689937Y59109725D03*
%TD*%
D13*
%TO.C,K7*%
X201710993Y109334726D03*
D12*
X196480183Y111034320D03*
X206941804Y107635133D03*
D14*
X203534194Y114945960D03*
D17*
X198751174Y105564850D03*
X201889660Y104545094D03*
D14*
X198129975Y114493826D03*
%TD*%
D13*
%TO.C,K24*%
X349390543Y96165794D03*
D12*
X344159732Y94466201D03*
X354621353Y97865388D03*
D14*
X347567342Y101777028D03*
D16*
X349211876Y91376162D03*
X352350362Y92395918D03*
D14*
X343460995Y98234724D03*
%TD*%
D12*
%TO.C,K23*%
X338889609Y111064887D03*
X349351230Y114464074D03*
D13*
X344120420Y112764480D03*
D14*
X342297219Y118375714D03*
D16*
X343941753Y107974848D03*
X347080239Y108994604D03*
D14*
X338190872Y114833410D03*
%TD*%
D13*
%TO.C,K22*%
X338870420Y129564478D03*
D12*
X333639609Y127864885D03*
X344101230Y131264072D03*
D14*
X337047219Y135175712D03*
D16*
X338691753Y124774846D03*
X341830239Y125794602D03*
D14*
X332940872Y131633408D03*
%TD*%
D13*
%TO.C,K31*%
X384540543Y109315794D03*
D12*
X389771353Y111015388D03*
X379309732Y107616201D03*
D14*
X382717342Y114927028D03*
D16*
X384361876Y104526162D03*
X387500362Y105545918D03*
D14*
X378610995Y111384724D03*
%TD*%
D12*
%TO.C,K15*%
X269882381Y118864888D03*
D13*
X264651570Y120564481D03*
D12*
X259420760Y122264075D03*
D14*
X266474771Y126175715D03*
D17*
X261691751Y116794605D03*
X264830237Y115774849D03*
D14*
X261070552Y125723581D03*
%TD*%
D12*
%TO.C,K16*%
X253620762Y105564074D03*
X264082383Y102164887D03*
D13*
X258851572Y103864480D03*
D14*
X260674773Y109475714D03*
D17*
X255891753Y100094604D03*
X259030239Y99074848D03*
D14*
X255270554Y109023580D03*
%TD*%
D12*
%TO.C,K4*%
X256274134Y59431839D03*
X246747854Y64931839D03*
D13*
X251510994Y62181839D03*
D14*
X254460994Y67291389D03*
D19*
X247832052Y59109725D03*
X250689936Y57459725D03*
D14*
X249080867Y67972736D03*
%TD*%
D13*
%TO.C,K10*%
X226210996Y123934725D03*
D12*
X231441807Y122235132D03*
X220980186Y125634319D03*
D14*
X228034197Y129545959D03*
D17*
X223251177Y120164849D03*
X226389663Y119145093D03*
D14*
X222629978Y129093825D03*
%TD*%
D13*
%TO.C,K29*%
X373870419Y142564480D03*
D12*
X368639608Y140864887D03*
X379101229Y144264074D03*
D14*
X372047218Y148175714D03*
D16*
X373691752Y137774848D03*
X376830238Y138794604D03*
D14*
X367940871Y144633410D03*
%TD*%
D12*
%TO.C,K13*%
X247532381Y111264888D03*
X237070760Y114664075D03*
D13*
X242301570Y112964481D03*
D14*
X244124771Y118575715D03*
D17*
X239341751Y109194605D03*
D14*
X238720552Y118123581D03*
D17*
X242480237Y108174849D03*
%TD*%
D12*
%TO.C,K12*%
X242420760Y131264071D03*
X252882381Y127864884D03*
D13*
X247651570Y129564477D03*
D14*
X249474771Y135175711D03*
D17*
X244691751Y125794601D03*
D14*
X244070552Y134723577D03*
D17*
X247830237Y124774845D03*
%TD*%
D12*
%TO.C,K5*%
X217882380Y140864887D03*
X207420759Y144264074D03*
D13*
X212651569Y142564480D03*
D14*
X214474770Y148175714D03*
D17*
X209691750Y138794604D03*
D14*
X209070551Y147723580D03*
D17*
X212830236Y137774848D03*
%TD*%
D12*
%TO.C,K30*%
X374030185Y124185131D03*
X384491806Y127584318D03*
D13*
X379260996Y125884724D03*
D14*
X377437795Y131495958D03*
D16*
X379082329Y121095092D03*
X382220815Y122114848D03*
D14*
X373331448Y127953654D03*
%TD*%
D12*
%TO.C,K6*%
X201830186Y127684320D03*
X212291807Y124285133D03*
D13*
X207060996Y125984726D03*
D14*
X208884197Y131595960D03*
D17*
X204101177Y122214850D03*
D14*
X203479978Y131143826D03*
D17*
X207239663Y121195094D03*
%TD*%
D13*
%TO.C,K9*%
X231651572Y140564481D03*
D12*
X236882383Y138864888D03*
X226420762Y142264075D03*
D14*
X233474773Y146175715D03*
D17*
X228691753Y136794605D03*
X231830239Y135774849D03*
D14*
X228070554Y145723581D03*
%TD*%
D12*
%TO.C,K32*%
X399901228Y140264072D03*
D13*
X394670418Y138564478D03*
D12*
X389439607Y136864885D03*
D14*
X392847217Y144175712D03*
D16*
X394491751Y133774846D03*
D14*
X388740870Y140633408D03*
D16*
X397630237Y134794602D03*
%TD*%
D12*
%TO.C,K11*%
X225991807Y105635132D03*
X215530186Y109034319D03*
D13*
X220760996Y107334725D03*
D14*
X222584197Y112945959D03*
D17*
X217801177Y103564849D03*
D14*
X217179978Y112493825D03*
D17*
X220939663Y102545093D03*
%TD*%
D12*
%TO.C,K20*%
X337691807Y88834319D03*
D13*
X332460997Y87134725D03*
D12*
X327230186Y85435132D03*
D14*
X330637796Y92745959D03*
D16*
X332282330Y82345093D03*
X335420816Y83364849D03*
D14*
X326531449Y89203655D03*
%TD*%
D12*
%TO.C,K18*%
X316639608Y118864886D03*
D13*
X321870419Y120564479D03*
D12*
X327101229Y122264073D03*
D14*
X320047218Y126175713D03*
D16*
X321691752Y115774847D03*
D14*
X315940871Y122633409D03*
D16*
X324830238Y116794603D03*
%TD*%
D12*
%TO.C,K21*%
X314166367Y48692484D03*
D13*
X318615960Y51925302D03*
D12*
X323065554Y55158121D03*
D14*
X315148027Y56698503D03*
D20*
X319926116Y47314880D03*
D14*
X312337291Y52060641D03*
D20*
X322595872Y49254572D03*
%TD*%
D12*
%TO.C,K34*%
X400080185Y103585132D03*
X410541806Y106984319D03*
D13*
X405310996Y105284725D03*
D14*
X403487795Y110895959D03*
D16*
X405132329Y100495093D03*
X408270815Y101514849D03*
D14*
X399381448Y107353655D03*
%TD*%
D12*
%TO.C,K33*%
X405291807Y123634319D03*
X394830186Y120235132D03*
D13*
X400060997Y121934725D03*
D14*
X398237796Y127545959D03*
D16*
X399882330Y117145093D03*
D14*
X394131449Y124003655D03*
D16*
X403020816Y118164849D03*
%TD*%
D12*
%TO.C,K2*%
X181180185Y123634320D03*
D13*
X186410995Y121934726D03*
D12*
X191641806Y120235133D03*
D14*
X188234196Y127545960D03*
D17*
X183451176Y118164850D03*
D14*
X182829977Y127093826D03*
D17*
X186589662Y117145094D03*
%TD*%
M02*
