M48
; DRILL file {KiCad (6.0.7-1)-1} date Saturday, February 18, 2023 at 05:29:45 PM
; FORMAT={-:-/ absolute / inch / decimal}
; #@! TF.CreationDate,2023-02-18T17:29:45+08:00
; #@! TF.GenerationSoftware,Kicad,Pcbnew,(6.0.7-1)-1
; #@! TF.FileFunction,Plated,1,2,PTH
FMAT,2
INCH
; #@! TA.AperFunction,Plated,PTH,ComponentDrill
T1C0.0157
; #@! TA.AperFunction,Plated,PTH,ComponentDrill
T2C0.0394
; #@! TA.AperFunction,Plated,PTH,ComponentDrill
T3C0.0472
%
G90
G05
T1
X7.0099Y3.9966
X7.1335Y3.9565
X7.2225Y4.6522
X7.346Y4.612
X7.4367Y5.3069
X7.5602Y5.2667
X7.8248Y4.1561
X7.9484Y4.1159
X8.0355Y4.8116
X8.159Y4.7715
X8.2556Y5.4644
X8.3791Y5.4242
X8.5748Y4.0774
X8.6984Y4.0372
X8.7894Y4.7309
X8.913Y4.6908
X9.0036Y5.3856
X9.1272Y5.3455
X9.2048Y3.6423
X9.3283Y3.6022
X9.4229Y4.299
X9.5465Y4.2589
X9.6335Y4.9525
X9.7571Y4.9124
X9.7572Y2.3272
X9.8485Y3.2821
X9.8697Y2.2622
X9.972Y3.2419
X10.0745Y3.9407
X10.198Y3.9006
X10.3028Y4.5982
X10.3908Y1.9392
X10.4264Y4.5581
X10.4959Y1.8628
X12.5955Y1.8628
X12.665Y4.5581
X12.7006Y1.9392
X12.7886Y4.5982
X12.8717Y3.9006
X12.9953Y3.9407
X13.082Y3.2419
X13.2055Y3.2821
X13.2217Y2.2622
X13.3342Y2.3272
X13.3343Y4.9124
X13.4579Y4.9525
X13.541Y4.251
X13.6646Y4.2911
X13.7485Y3.5975
X13.8721Y3.6376
X13.9642Y5.3455
X14.0878Y5.3856
X14.1745Y4.6908
X14.2981Y4.7309
X14.3824Y4.0345
X14.5059Y4.0746
X14.7123Y5.4242
X14.8358Y5.4644
X14.9245Y4.7675
X15.0481Y4.8077
X15.1324Y4.1152
X15.2559Y4.1554
X15.5312Y5.2667
X15.6547Y5.3069
X15.7434Y4.612
X15.867Y4.6522
X15.9501Y3.9565
X16.0737Y3.9966
T2
X11.2457Y4.9781
X11.2457Y4.8781
X11.2457Y4.7781
X11.2457Y4.6781
X11.2457Y4.5781
X11.2457Y4.4781
X11.2457Y4.3781
X11.2457Y4.2781
X11.2457Y4.1781
X11.3457Y4.1781
X11.4457Y4.1781
X11.5457Y4.1781
X11.6457Y4.1781
X11.7457Y4.1781
X11.8457Y4.9781
X11.8457Y4.8781
X11.8457Y4.7781
X11.8457Y4.6781
X11.8457Y4.5781
X11.8457Y4.4781
X11.8457Y4.3781
X11.8457Y4.2781
X11.8457Y4.1781
T3
X6.9854Y4.3482
X7.198Y5.0037
X7.1982Y4.366
X7.3599Y4.2265
X7.4108Y5.0215
X7.4122Y5.6584
X7.5725Y4.882
X7.625Y5.6762
X7.7867Y5.5367
X7.8004Y4.5076
X8.011Y5.1631
X8.0132Y4.5254
X8.1748Y4.386
X8.2238Y5.1809
X8.2311Y5.8159
X8.3855Y5.0415
X8.4439Y5.8337
X8.5504Y4.4289
X8.6056Y5.6942
X8.7632Y4.4467
X8.765Y5.0824
X8.9248Y4.3072
X8.9777Y5.1002
X8.9792Y5.7371
X9.1394Y4.9608
X9.1803Y3.9939
X9.1919Y5.7549
X9.3536Y5.6155
X9.3931Y4.0117
X9.3984Y4.6505
X9.5547Y3.8722
X9.6091Y5.3041
X9.6112Y4.6683
X9.7729Y4.5289
X9.8063Y2.6761
X9.8218Y5.3219
X9.824Y3.6336
X9.9835Y5.1824
X10.0181Y2.6493
X10.0368Y3.6514
X10.05Y4.2923
X10.1473Y2.4792
X10.1984Y3.512
X10.2628Y4.3101
X10.2784Y4.9497
X10.4245Y4.1706
X10.4762Y2.281
X10.4911Y4.9675
X10.6528Y4.8281
X10.684Y2.2322
X10.7947Y2.0496
X12.2967Y2.0496
X12.4074Y2.2322
X12.4386Y4.8281
X12.6003Y4.9675
X12.6153Y2.281
X12.6453Y4.1706
X12.807Y4.3101
X12.813Y4.9497
X12.8556Y3.512
X12.9441Y2.4792
X13.0172Y3.6514
X13.0197Y4.2923
X13.0733Y2.6493
X13.1079Y5.1824
X13.23Y3.6336
X13.2696Y5.3219
X13.2851Y2.6761
X13.3146Y4.521
X13.4763Y4.6605
X13.4823Y5.3041
X13.5221Y3.8675
X13.6838Y4.007
X13.689Y4.6427
X13.7378Y5.6155
X13.8965Y3.9892
X13.8995Y5.7549
X13.9481Y4.9608
X14.1098Y5.1002
X14.1123Y5.7371
X14.1559Y4.3045
X14.3176Y4.444
X14.3225Y5.0824
X14.4859Y5.6942
X14.5304Y4.4262
X14.6475Y5.8337
X14.6981Y5.0375
X14.8598Y5.177
X14.8603Y5.8159
X14.9059Y4.3852
X15.0676Y4.5247
X15.0725Y5.1592
X15.2804Y4.5069
X15.3048Y5.5367
X15.4664Y5.6762
X15.517Y4.882
X15.6787Y5.0215
X15.6792Y5.6584
X15.7237Y4.2265
X15.8853Y4.366
X15.8914Y5.0037
X16.0981Y4.3482
T0
M30
