%TF.GenerationSoftware,KiCad,Pcbnew,(6.0.7-1)-1*%
%TF.CreationDate,2023-02-18T17:29:48+08:00*%
%TF.ProjectId,karp2040,6b617270-3230-4343-902e-6b696361645f,rev?*%
%TF.SameCoordinates,Original*%
%TF.FileFunction,Legend,Top*%
%TF.FilePolarity,Positive*%
%FSLAX46Y46*%
G04 Gerber Fmt 4.6, Leading zero omitted, Abs format (unit mm)*
G04 Created by KiCad (PCBNEW (6.0.7-1)-1) date 2023-02-18 17:29:48*
%MOMM*%
%LPD*%
G01*
G04 APERTURE LIST*
%ADD10C,0.180000*%
%ADD11C,0.150000*%
%ADD12C,0.120000*%
G04 APERTURE END LIST*
D10*
X285559523Y47755238D02*
X285559523Y49755238D01*
X286702380Y47755238D02*
X285845238Y48898095D01*
X286702380Y49755238D02*
X285559523Y48612380D01*
X287464285Y48326666D02*
X288416666Y48326666D01*
X287273809Y47755238D02*
X287940476Y49755238D01*
X288607142Y47755238D01*
X290416666Y47755238D02*
X289750000Y48707619D01*
X289273809Y47755238D02*
X289273809Y49755238D01*
X290035714Y49755238D01*
X290226190Y49660000D01*
X290321428Y49564761D01*
X290416666Y49374285D01*
X290416666Y49088571D01*
X290321428Y48898095D01*
X290226190Y48802857D01*
X290035714Y48707619D01*
X289273809Y48707619D01*
X291273809Y47755238D02*
X291273809Y49755238D01*
X292035714Y49755238D01*
X292226190Y49660000D01*
X292321428Y49564761D01*
X292416666Y49374285D01*
X292416666Y49088571D01*
X292321428Y48898095D01*
X292226190Y48802857D01*
X292035714Y48707619D01*
X291273809Y48707619D01*
X293178571Y49564761D02*
X293273809Y49660000D01*
X293464285Y49755238D01*
X293940476Y49755238D01*
X294130952Y49660000D01*
X294226190Y49564761D01*
X294321428Y49374285D01*
X294321428Y49183809D01*
X294226190Y48898095D01*
X293083333Y47755238D01*
X294321428Y47755238D01*
X295559523Y49755238D02*
X295750000Y49755238D01*
X295940476Y49660000D01*
X296035714Y49564761D01*
X296130952Y49374285D01*
X296226190Y48993333D01*
X296226190Y48517142D01*
X296130952Y48136190D01*
X296035714Y47945714D01*
X295940476Y47850476D01*
X295750000Y47755238D01*
X295559523Y47755238D01*
X295369047Y47850476D01*
X295273809Y47945714D01*
X295178571Y48136190D01*
X295083333Y48517142D01*
X295083333Y48993333D01*
X295178571Y49374285D01*
X295273809Y49564761D01*
X295369047Y49660000D01*
X295559523Y49755238D01*
X297940476Y49088571D02*
X297940476Y47755238D01*
X297464285Y49850476D02*
X296988095Y48421904D01*
X298226190Y48421904D01*
X299369047Y49755238D02*
X299559523Y49755238D01*
X299750000Y49660000D01*
X299845238Y49564761D01*
X299940476Y49374285D01*
X300035714Y48993333D01*
X300035714Y48517142D01*
X299940476Y48136190D01*
X299845238Y47945714D01*
X299750000Y47850476D01*
X299559523Y47755238D01*
X299369047Y47755238D01*
X299178571Y47850476D01*
X299083333Y47945714D01*
X298988095Y48136190D01*
X298892857Y48517142D01*
X298892857Y48993333D01*
X298988095Y49374285D01*
X299083333Y49564761D01*
X299178571Y49660000D01*
X299369047Y49755238D01*
X285702380Y45868571D02*
X284178571Y45297142D01*
X285702380Y44725714D01*
X286654761Y45868571D02*
X286654761Y44154285D01*
X286559523Y43963809D01*
X286369047Y43868571D01*
X286273809Y43868571D01*
X286654761Y46535238D02*
X286559523Y46440000D01*
X286654761Y46344761D01*
X286750000Y46440000D01*
X286654761Y46535238D01*
X286654761Y46344761D01*
X288464285Y44535238D02*
X288464285Y45582857D01*
X288369047Y45773333D01*
X288178571Y45868571D01*
X287797619Y45868571D01*
X287607142Y45773333D01*
X288464285Y44630476D02*
X288273809Y44535238D01*
X287797619Y44535238D01*
X287607142Y44630476D01*
X287511904Y44820952D01*
X287511904Y45011428D01*
X287607142Y45201904D01*
X287797619Y45297142D01*
X288273809Y45297142D01*
X288464285Y45392380D01*
X289416666Y44535238D02*
X289416666Y45868571D01*
X289416666Y45678095D02*
X289511904Y45773333D01*
X289702380Y45868571D01*
X289988095Y45868571D01*
X290178571Y45773333D01*
X290273809Y45582857D01*
X290273809Y44535238D01*
X290273809Y45582857D02*
X290369047Y45773333D01*
X290559523Y45868571D01*
X290845238Y45868571D01*
X291035714Y45773333D01*
X291130952Y45582857D01*
X291130952Y44535238D01*
X292083333Y44535238D02*
X292083333Y45868571D01*
X292083333Y45678095D02*
X292178571Y45773333D01*
X292369047Y45868571D01*
X292654761Y45868571D01*
X292845238Y45773333D01*
X292940476Y45582857D01*
X292940476Y44535238D01*
X292940476Y45582857D02*
X293035714Y45773333D01*
X293226190Y45868571D01*
X293511904Y45868571D01*
X293702380Y45773333D01*
X293797619Y45582857D01*
X293797619Y44535238D01*
X295511904Y44630476D02*
X295321428Y44535238D01*
X294940476Y44535238D01*
X294750000Y44630476D01*
X294654761Y44820952D01*
X294654761Y45582857D01*
X294750000Y45773333D01*
X294940476Y45868571D01*
X295321428Y45868571D01*
X295511904Y45773333D01*
X295607142Y45582857D01*
X295607142Y45392380D01*
X294654761Y45201904D01*
X296464285Y44535238D02*
X296464285Y45868571D01*
X296464285Y45487619D02*
X296559523Y45678095D01*
X296654761Y45773333D01*
X296845238Y45868571D01*
X297035714Y45868571D01*
X299130952Y46630476D02*
X297416666Y44059047D01*
X299797619Y45868571D02*
X301321428Y45297142D01*
X299797619Y44725714D01*
D11*
%TO.C,U1*%
X287599089Y124334726D02*
X287503851Y124382345D01*
X287360994Y124382345D01*
X287218136Y124334726D01*
X287122898Y124239487D01*
X287075279Y124144249D01*
X287027660Y123953773D01*
X287027660Y123810916D01*
X287075279Y123620440D01*
X287122898Y123525202D01*
X287218136Y123429964D01*
X287360994Y123382345D01*
X287456232Y123382345D01*
X287599089Y123429964D01*
X287646708Y123477583D01*
X287646708Y123810916D01*
X287456232Y123810916D01*
X288075279Y123382345D02*
X288075279Y124382345D01*
X288646708Y123382345D01*
X288646708Y124382345D01*
X289122898Y123382345D02*
X289122898Y124382345D01*
X289360994Y124382345D01*
X289503851Y124334726D01*
X289599089Y124239487D01*
X289646708Y124144249D01*
X289694327Y123953773D01*
X289694327Y123810916D01*
X289646708Y123620440D01*
X289599089Y123525202D01*
X289503851Y123429964D01*
X289360994Y123382345D01*
X289122898Y123382345D01*
%TO.C,G\u002A\u002A\u002A*%
G36*
X292819129Y68472050D02*
G01*
X293474914Y68455218D01*
X292730732Y68393976D01*
X292228511Y68327869D01*
X291898712Y68222212D01*
X291767822Y68134428D01*
X291614291Y68029260D01*
X291549112Y68052163D01*
X291549094Y68053681D01*
X291645539Y68214464D01*
X291905038Y68347784D01*
X292282839Y68438899D01*
X292734187Y68473068D01*
X292819129Y68472050D01*
G37*
G36*
X298055241Y71350775D02*
G01*
X297809855Y71171023D01*
X297445882Y70949568D01*
X297034903Y70729451D01*
X296962985Y70694034D01*
X296570228Y70489838D01*
X296229867Y70288597D01*
X296003520Y70127338D01*
X295974051Y70099782D01*
X295871959Y70003764D01*
X295896989Y70052620D01*
X295911334Y70071280D01*
X296003914Y70213572D01*
X295954365Y70256666D01*
X295911334Y70258165D01*
X295655615Y70182681D01*
X295315313Y69979275D01*
X294937948Y69680942D01*
X294588487Y69339736D01*
X294380444Y69128189D01*
X294258435Y69033580D01*
X294247614Y69075173D01*
X294250167Y69080604D01*
X294349475Y69337326D01*
X294320107Y69432213D01*
X294159841Y69366401D01*
X293967908Y69224784D01*
X293648643Y69017416D01*
X293315867Y68873420D01*
X293213195Y68848108D01*
X292850323Y68786326D01*
X293266717Y68985451D01*
X293510610Y69121947D01*
X293725912Y69274369D01*
X293880156Y69412002D01*
X293940872Y69504130D01*
X293875594Y69520036D01*
X293809848Y69499275D01*
X293622382Y69435872D01*
X293301487Y69333699D01*
X292913170Y69213735D01*
X292872963Y69201504D01*
X292368395Y69014692D01*
X291979126Y68803361D01*
X291835364Y68687052D01*
X291656395Y68527281D01*
X291556570Y68475416D01*
X291549094Y68487636D01*
X291621989Y68602834D01*
X291804564Y68786905D01*
X291884989Y68857110D01*
X292220883Y69139746D01*
X291754866Y69060178D01*
X291267925Y69007736D01*
X290668886Y68987740D01*
X290034734Y68998615D01*
X289442454Y69038784D01*
X288969029Y69106673D01*
X288916816Y69118253D01*
X288381622Y69285056D01*
X287830492Y69523415D01*
X287357978Y69790512D01*
X287229012Y69882595D01*
X287086215Y70002087D01*
X287113508Y70041659D01*
X287246362Y70047047D01*
X287443725Y70099233D01*
X287512751Y70172886D01*
X287616703Y70239090D01*
X287691637Y70210100D01*
X287749985Y70123478D01*
X287629092Y70017286D01*
X287581395Y69990468D01*
X287448517Y69909557D01*
X287433204Y69843536D01*
X287559827Y69759601D01*
X287852759Y69624950D01*
X287853066Y69624814D01*
X288883081Y69279289D01*
X290004332Y69118956D01*
X291217732Y69143838D01*
X292524191Y69353959D01*
X293924621Y69749341D01*
X294024613Y69783412D01*
X294536476Y69955854D01*
X295054612Y70124045D01*
X295496952Y70261577D01*
X295654762Y70307955D01*
X296143160Y70477197D01*
X296725914Y70724008D01*
X297323538Y71011391D01*
X297856548Y71302349D01*
X298055241Y71425304D01*
X298367537Y71629039D01*
X298055241Y71350775D01*
G37*
G36*
X295590485Y69547620D02*
G01*
X295493188Y69377361D01*
X295264579Y69060062D01*
X294980030Y68760661D01*
X294690997Y68524940D01*
X294448936Y68398680D01*
X294382152Y68388858D01*
X294343673Y68424530D01*
X294474569Y68509226D01*
X294536997Y68537910D01*
X294779817Y68702290D01*
X295059575Y68975802D01*
X295249426Y69210474D01*
X295488784Y69532996D01*
X295629273Y69699337D01*
X295665103Y69705534D01*
X295590485Y69547620D01*
G37*
G36*
X295296635Y68749128D02*
G01*
X295244586Y68697079D01*
X295192537Y68749128D01*
X295244586Y68801177D01*
X295296635Y68749128D01*
G37*
G36*
X302400729Y77352132D02*
G01*
X302359552Y77113042D01*
X302267442Y76766877D01*
X302138359Y76356443D01*
X301986264Y75924544D01*
X301825117Y75513988D01*
X301668878Y75167578D01*
X301583826Y75009222D01*
X301465761Y74878946D01*
X301304735Y74905215D01*
X301238852Y74938372D01*
X301020839Y75009324D01*
X300859243Y74937458D01*
X300725183Y74720394D01*
X300747828Y74483525D01*
X300885150Y74334675D01*
X300997241Y74250570D01*
X300988134Y74140217D01*
X300883701Y73966608D01*
X300662081Y73705579D01*
X300448054Y73527130D01*
X300250657Y73324054D01*
X300180491Y73020037D01*
X300178881Y72979164D01*
X300165538Y72758892D01*
X300137828Y72732179D01*
X300100808Y72837341D01*
X300061423Y72920139D01*
X299992972Y72929794D01*
X299872821Y72847835D01*
X299678334Y72655791D01*
X299386878Y72335192D01*
X299134218Y72048554D01*
X298671595Y71509238D01*
X298336924Y71086049D01*
X298111319Y70747520D01*
X297975896Y70462182D01*
X297911770Y70198566D01*
X297899094Y69990465D01*
X297910038Y69740927D01*
X297979016Y69648091D01*
X298160245Y69660495D01*
X298231972Y69674515D01*
X298655116Y69818147D01*
X299021704Y70087413D01*
X299367851Y70496529D01*
X299542613Y70712761D01*
X299640635Y70783666D01*
X299652055Y70734975D01*
X299559000Y70554516D01*
X299358220Y70306926D01*
X299194022Y70141332D01*
X298800537Y69826361D01*
X298425476Y69617672D01*
X298107259Y69530930D01*
X297884307Y69581798D01*
X297864394Y69599264D01*
X297803113Y69777955D01*
X297801198Y70075468D01*
X297852506Y70413005D01*
X297950893Y70711767D01*
X297951177Y70712364D01*
X298138380Y71027796D01*
X298368684Y71323320D01*
X298533757Y71527547D01*
X298606902Y71671078D01*
X298606314Y71686565D01*
X298667502Y71784674D01*
X298851864Y72003077D01*
X299135263Y72314946D01*
X299493558Y72693454D01*
X299746424Y72953597D01*
X300910230Y74139214D01*
X300708183Y74396075D01*
X300575486Y74623113D01*
X300595097Y74815775D01*
X300614752Y74855887D01*
X300825141Y75085643D01*
X301088465Y75126309D01*
X301248196Y75060025D01*
X301367882Y75009546D01*
X301466870Y75057850D01*
X301580542Y75238819D01*
X301702881Y75495440D01*
X301870167Y75912753D01*
X302034956Y76406760D01*
X302130068Y76748103D01*
X302225536Y77093750D01*
X302313548Y77342150D01*
X302375551Y77441218D01*
X302377014Y77441341D01*
X302400729Y77352132D01*
G37*
G36*
X292872752Y71333659D02*
G01*
X292940017Y71247488D01*
X293079259Y71126448D01*
X293250703Y71091341D01*
X293456350Y71044067D01*
X293630589Y70933696D01*
X293723297Y70807404D01*
X293684350Y70712368D01*
X293662939Y70703344D01*
X293512838Y70616856D01*
X293273388Y70445039D01*
X293142447Y70342623D01*
X292825750Y70114986D01*
X292505940Y69925908D01*
X292411249Y69880904D01*
X292111179Y69807187D01*
X291670351Y69764763D01*
X291154153Y69755764D01*
X290627972Y69782325D01*
X290351963Y69813719D01*
X290056850Y69880495D01*
X289968587Y69966301D01*
X290086840Y70069620D01*
X290411277Y70188935D01*
X290435651Y70196093D01*
X290767815Y70287316D01*
X291023301Y70347814D01*
X291120298Y70362652D01*
X291252418Y70441456D01*
X291399461Y70618231D01*
X291608618Y70840746D01*
X291922012Y71073281D01*
X292266630Y71270897D01*
X292569457Y71388656D01*
X292675551Y71403636D01*
X292872752Y71333659D01*
G37*
G36*
X286129801Y73523190D02*
G01*
X286135979Y73492265D01*
X286190583Y73369187D01*
X286337653Y73116169D01*
X286552074Y72775090D01*
X286713431Y72529356D01*
X286925338Y72200627D01*
X287053158Y71978919D01*
X287084835Y71887172D01*
X287031489Y71924128D01*
X286841940Y72149694D01*
X286604077Y72480662D01*
X286392139Y72808964D01*
X286012183Y73433554D01*
X286053597Y72808964D01*
X286169465Y72157978D01*
X286411832Y71507855D01*
X286747447Y70933602D01*
X287029157Y70608289D01*
X287223931Y70409357D01*
X287316926Y70282671D01*
X287309600Y70258554D01*
X287191699Y70327990D01*
X286988464Y70505730D01*
X286844782Y70648923D01*
X286409791Y71196812D01*
X286129415Y71793806D01*
X285979615Y72497254D01*
X285953914Y72774414D01*
X285934158Y73226433D01*
X285951442Y73491684D01*
X286007187Y73588524D01*
X286017006Y73589702D01*
X286129801Y73523190D01*
G37*
G36*
X294382696Y72580028D02*
G01*
X294629955Y72458707D01*
X294918208Y72206641D01*
X295040280Y72068728D01*
X295290406Y71793045D01*
X295497470Y71654550D01*
X295726316Y71612377D01*
X295765270Y71611833D01*
X296193966Y71563373D01*
X296550288Y71433932D01*
X296786318Y71247415D01*
X296856516Y71067432D01*
X296773348Y70978663D01*
X296561699Y70843364D01*
X296445864Y70781162D01*
X296103962Y70642787D01*
X295752350Y70593854D01*
X295308015Y70625453D01*
X295174130Y70644675D01*
X294952968Y70703826D01*
X294794304Y70830887D01*
X294660515Y71071876D01*
X294525712Y71437758D01*
X294390108Y71806372D01*
X294246035Y72147458D01*
X294194412Y72254194D01*
X294081747Y72498155D01*
X294096977Y72601120D01*
X294262266Y72601448D01*
X294382696Y72580028D01*
G37*
G36*
X299772864Y71039292D02*
G01*
X299720815Y70987243D01*
X299668766Y71039292D01*
X299720815Y71091341D01*
X299772864Y71039292D01*
G37*
G36*
X287629247Y71505513D02*
G01*
X287787220Y71447672D01*
X288248602Y71327790D01*
X288828937Y71268301D01*
X289446647Y71273616D01*
X289935569Y71331539D01*
X290175514Y71370851D01*
X290228274Y71362663D01*
X290110225Y71303156D01*
X290091717Y71295125D01*
X289708847Y71192416D01*
X289208852Y71141428D01*
X288676928Y71144770D01*
X288198270Y71205049D01*
X288081487Y71233581D01*
X287763658Y71340709D01*
X287523226Y71453113D01*
X287456897Y71501218D01*
X287463825Y71543733D01*
X287629247Y71505513D01*
G37*
G36*
X299843975Y71423154D02*
G01*
X299856385Y71260461D01*
X299835757Y71223633D01*
X299788443Y71254679D01*
X299781083Y71360262D01*
X299806506Y71471338D01*
X299843975Y71423154D01*
G37*
G36*
X287761326Y75976552D02*
G01*
X287804035Y75732756D01*
X287854468Y75363326D01*
X287893765Y75026078D01*
X288023264Y73944364D01*
X288153459Y73069410D01*
X288284629Y72399776D01*
X288417049Y71934027D01*
X288536119Y71689906D01*
X288646738Y71501441D01*
X288650296Y71406391D01*
X288637456Y71403636D01*
X288533835Y71478620D01*
X288530241Y71504467D01*
X288452559Y71577760D01*
X288400119Y71573578D01*
X288317446Y71566536D01*
X288330915Y71579801D01*
X288334303Y71690486D01*
X288278936Y71935928D01*
X288210004Y72161306D01*
X288150289Y72402723D01*
X288080479Y72783286D01*
X288005464Y73263116D01*
X287930132Y73802331D01*
X287859375Y74361050D01*
X287798082Y74899393D01*
X287751143Y75377479D01*
X287723447Y75755427D01*
X287719884Y75993356D01*
X287732730Y76053938D01*
X287761326Y75976552D01*
G37*
G36*
X289432427Y71473035D02*
G01*
X289418138Y71411149D01*
X289363028Y71403636D01*
X289277344Y71441724D01*
X289293629Y71473035D01*
X289417170Y71485493D01*
X289432427Y71473035D01*
G37*
G36*
X290941805Y72406505D02*
G01*
X291116294Y72375392D01*
X291235629Y72332987D01*
X291199380Y72305181D01*
X290991216Y72289609D01*
X290594810Y72283906D01*
X290483515Y72283740D01*
X289810249Y72252003D01*
X289332451Y72157049D01*
X289051128Y71999263D01*
X288967286Y71779032D01*
X288979109Y71707091D01*
X289003346Y71532669D01*
X288948642Y71536941D01*
X288894010Y71612764D01*
X288867460Y71830099D01*
X288996549Y72059839D01*
X289225855Y72226127D01*
X289566529Y72327062D01*
X290025178Y72395436D01*
X290513152Y72424250D01*
X290941805Y72406505D01*
G37*
G36*
X287465607Y72236837D02*
G01*
X287495744Y72199772D01*
X287721170Y71953190D01*
X287935300Y71769340D01*
X288055074Y71656863D01*
X288024905Y71611833D01*
X287870943Y71680463D01*
X287652992Y71851562D01*
X287585349Y71916120D01*
X287393656Y72136176D01*
X287288149Y72312420D01*
X287281061Y72346552D01*
X287334356Y72361759D01*
X287465607Y72236837D01*
G37*
G36*
X299948074Y71839548D02*
G01*
X299960484Y71676855D01*
X299939856Y71640026D01*
X299892542Y71671072D01*
X299885181Y71776655D01*
X299910604Y71887732D01*
X299948074Y71839548D01*
G37*
G36*
X300048049Y72434512D02*
G01*
X300053200Y72416614D01*
X300068440Y72189855D01*
X300049343Y72104319D01*
X300015169Y72100858D01*
X300001212Y72263820D01*
X300001355Y72288472D01*
X300016366Y72449924D01*
X300048049Y72434512D01*
G37*
G36*
X293930746Y74353911D02*
G01*
X293729054Y74054974D01*
X293715603Y74035798D01*
X293407619Y73634335D01*
X293049615Y73225113D01*
X292675068Y72840125D01*
X292317451Y72511364D01*
X292010241Y72270824D01*
X291786910Y72150498D01*
X291734856Y72142701D01*
X291574184Y72156280D01*
X291612939Y72189401D01*
X291705241Y72220775D01*
X292085532Y72421311D01*
X292525731Y72798040D01*
X293033313Y73357817D01*
X293282975Y73667775D01*
X293605484Y74072065D01*
X293839878Y74349937D01*
X293977795Y74494278D01*
X294010872Y74497974D01*
X293930746Y74353911D01*
G37*
G36*
X287281061Y72600767D02*
G01*
X287229012Y72548718D01*
X287176963Y72600767D01*
X287229012Y72652816D01*
X287281061Y72600767D01*
G37*
G36*
X287056780Y72923003D02*
G01*
X287168535Y72818187D01*
X287145610Y72757928D01*
X287131057Y72756915D01*
X287043009Y72830854D01*
X287010875Y72877097D01*
X286998605Y72948331D01*
X287056780Y72923003D01*
G37*
G36*
X286968766Y73121259D02*
G01*
X286916717Y73069210D01*
X286864668Y73121259D01*
X286916717Y73173308D01*
X286968766Y73121259D01*
G37*
G36*
X285120674Y75293828D02*
G01*
X285443591Y75125983D01*
X285775150Y74899032D01*
X286045210Y74656164D01*
X286076602Y74620410D01*
X286229603Y74412174D01*
X286408885Y74131018D01*
X286586396Y73826961D01*
X286734085Y73550022D01*
X286823900Y73350218D01*
X286829776Y73277406D01*
X286761689Y73359640D01*
X286613522Y73578814D01*
X286412809Y73893643D01*
X286333556Y74021528D01*
X286061838Y74433985D01*
X285820344Y74715942D01*
X285551871Y74925850D01*
X285314812Y75062512D01*
X285043400Y75215500D01*
X284886986Y75322682D01*
X284876541Y75359374D01*
X285120674Y75293828D01*
G37*
G36*
X296204326Y75995587D02*
G01*
X296317207Y75942470D01*
X296613044Y75689243D01*
X296840491Y75308961D01*
X296955909Y74881286D01*
X296962209Y74764972D01*
X297014759Y74467552D01*
X297115046Y74260213D01*
X297239764Y74000768D01*
X297271193Y73823923D01*
X297232413Y73652120D01*
X297069929Y73598622D01*
X296988233Y73598649D01*
X296670241Y73638954D01*
X296389668Y73707987D01*
X296109725Y73754464D01*
X295727037Y73765789D01*
X295470587Y73751825D01*
X294989194Y73732783D01*
X294680798Y73793078D01*
X294520379Y73947737D01*
X294482919Y74211783D01*
X294494885Y74337773D01*
X294614650Y74756513D01*
X294841191Y75191875D01*
X295132509Y75584101D01*
X295446605Y75873435D01*
X295649102Y75980044D01*
X295951674Y76046162D01*
X296204326Y75995587D01*
G37*
G36*
X298524225Y76608554D02*
G01*
X298649662Y75993606D01*
X298796955Y75533730D01*
X298987127Y75175804D01*
X299193644Y74916956D01*
X299429953Y74691963D01*
X299633109Y74550892D01*
X299709364Y74526587D01*
X299888863Y74465196D01*
X299929012Y74422488D01*
X299921947Y74337025D01*
X299784412Y74333214D01*
X299576880Y74409717D01*
X299538093Y74431135D01*
X299042927Y74835219D01*
X298681263Y75374347D01*
X298474667Y76008018D01*
X298434116Y76504456D01*
X298444074Y77076997D01*
X298524225Y76608554D01*
G37*
G36*
X301230241Y74474538D02*
G01*
X301178192Y74422488D01*
X301126143Y74474538D01*
X301178192Y74526587D01*
X301230241Y74474538D01*
G37*
G36*
X294222992Y74771640D02*
G01*
X294203602Y74734784D01*
X294105519Y74635369D01*
X294087217Y74630685D01*
X294080114Y74697927D01*
X294099504Y74734784D01*
X294197587Y74834198D01*
X294215889Y74838882D01*
X294222992Y74771640D01*
G37*
G36*
X295166701Y76033419D02*
G01*
X295010313Y75815265D01*
X294878718Y75645644D01*
X294574844Y75268873D01*
X294377707Y75039454D01*
X294292213Y74961296D01*
X294323267Y75038303D01*
X294475776Y75274384D01*
X294551887Y75385398D01*
X294795962Y75705994D01*
X295053727Y75997644D01*
X295146585Y76088062D01*
X295216254Y76131172D01*
X295166701Y76033419D01*
G37*
G36*
X287049710Y77968583D02*
G01*
X286944980Y78192911D01*
X286968445Y78262654D01*
X287107800Y78176870D01*
X287301750Y77987857D01*
X287574354Y77642545D01*
X287792421Y77230105D01*
X287978409Y76700244D01*
X288119478Y76156820D01*
X288318324Y75307325D01*
X288287193Y76296259D01*
X288250519Y76891664D01*
X288167614Y77359680D01*
X288014405Y77779932D01*
X287766819Y78232043D01*
X287642008Y78430275D01*
X287532621Y78618095D01*
X287548675Y78652086D01*
X287603657Y78614243D01*
X287740606Y78455617D01*
X287924579Y78179665D01*
X288064574Y77938274D01*
X288198958Y77671244D01*
X288289208Y77421174D01*
X288346602Y77131516D01*
X288382418Y76745720D01*
X288407489Y76218856D01*
X288417018Y75662114D01*
X288399013Y75277125D01*
X288357106Y75070996D01*
X288294930Y75050834D01*
X288216118Y75223746D01*
X288124302Y75596839D01*
X288114503Y75645644D01*
X287991778Y76190946D01*
X287849312Y76703860D01*
X287699240Y77152863D01*
X287553697Y77506429D01*
X287424819Y77733033D01*
X287324741Y77801150D01*
X287294602Y77775545D01*
X287203225Y77773595D01*
X287090964Y77909784D01*
X287176963Y77909784D01*
X287229012Y77857734D01*
X287281061Y77909784D01*
X287229012Y77961833D01*
X287176963Y77909784D01*
X287090964Y77909784D01*
X287068128Y77937488D01*
X287049710Y77968583D01*
G37*
G36*
X286735775Y77169014D02*
G01*
X286782092Y77024947D01*
X286830496Y76730208D01*
X286847911Y76348993D01*
X286837225Y75946074D01*
X286801330Y75586220D01*
X286743115Y75334204D01*
X286703605Y75265934D01*
X286588802Y75282844D01*
X286421740Y75469470D01*
X286367453Y75551914D01*
X286130484Y75931915D01*
X286390814Y75642935D01*
X286651145Y75353956D01*
X286720000Y75628299D01*
X286747272Y75870199D01*
X286752159Y76238658D01*
X286734080Y76645967D01*
X286710946Y77005921D01*
X286710830Y77174887D01*
X286735775Y77169014D01*
G37*
G36*
X284650409Y75422266D02*
G01*
X284619363Y75374953D01*
X284513780Y75367592D01*
X284402703Y75393015D01*
X284450887Y75430485D01*
X284613580Y75442895D01*
X284650409Y75422266D01*
G37*
G36*
X283975938Y75532414D02*
G01*
X283989015Y75494419D01*
X283845815Y75479909D01*
X283698034Y75496268D01*
X283715692Y75532414D01*
X283928818Y75546163D01*
X283975938Y75532414D01*
G37*
G36*
X283394722Y75636969D02*
G01*
X283380433Y75575083D01*
X283325323Y75567570D01*
X283239639Y75605658D01*
X283255925Y75636969D01*
X283379465Y75649428D01*
X283394722Y75636969D01*
G37*
G36*
X282978329Y75741068D02*
G01*
X282964039Y75679181D01*
X282908930Y75671669D01*
X282823245Y75709757D01*
X282839531Y75741068D01*
X282963072Y75753526D01*
X282978329Y75741068D01*
G37*
G36*
X282700733Y75827816D02*
G01*
X282648684Y75775767D01*
X282596635Y75827816D01*
X282648684Y75879866D01*
X282700733Y75827816D01*
G37*
G36*
X282492537Y75931915D02*
G01*
X282440487Y75879866D01*
X282388438Y75931915D01*
X282440487Y75983964D01*
X282492537Y75931915D01*
G37*
G36*
X285911698Y76045954D02*
G01*
X286023453Y75941138D01*
X286000528Y75880879D01*
X285985975Y75879866D01*
X285897927Y75953804D01*
X285865793Y76000048D01*
X285853523Y76071282D01*
X285911698Y76045954D01*
G37*
G36*
X293943356Y75931915D02*
G01*
X293891307Y75879866D01*
X293839258Y75931915D01*
X293891307Y75983964D01*
X293943356Y75931915D01*
G37*
G36*
X281753772Y76539350D02*
G01*
X281954279Y76366452D01*
X282024094Y76296259D01*
X282191534Y76105662D01*
X282259298Y75995123D01*
X282250819Y75983964D01*
X282137605Y76049758D01*
X281938960Y76215120D01*
X281851560Y76296259D01*
X281676456Y76482616D01*
X281609923Y76594310D01*
X281624835Y76608554D01*
X281753772Y76539350D01*
G37*
G36*
X285230919Y76895888D02*
G01*
X285738560Y76754797D01*
X286033098Y76555338D01*
X286214762Y76362388D01*
X286298971Y76234340D01*
X286297365Y76214749D01*
X286183081Y76222469D01*
X285942329Y76292175D01*
X285784006Y76349116D01*
X285462655Y76452271D01*
X285189671Y76472971D01*
X284852875Y76416792D01*
X284777676Y76399152D01*
X284492149Y76313478D01*
X284354903Y76234801D01*
X284363633Y76193813D01*
X284369036Y76124756D01*
X284190071Y76058482D01*
X284153495Y76050705D01*
X283887292Y76002431D01*
X283723397Y76001863D01*
X283560214Y76054650D01*
X283481471Y76088062D01*
X283341402Y76156931D01*
X283390270Y76180866D01*
X283465311Y76184844D01*
X283656584Y76217731D01*
X283978715Y76297342D01*
X284364281Y76406916D01*
X284390064Y76414716D01*
X284824053Y76533333D01*
X285143588Y76580184D01*
X285426614Y76563050D01*
X285577331Y76533256D01*
X285891353Y76469622D01*
X286010644Y76470222D01*
X285939705Y76538865D01*
X285724755Y76657930D01*
X285305053Y76787926D01*
X284767771Y76796285D01*
X284088539Y76683076D01*
X284001963Y76662685D01*
X283207851Y76535594D01*
X282475871Y76544599D01*
X281919996Y76666211D01*
X281701475Y76748303D01*
X281677113Y76775490D01*
X281815897Y76757019D01*
X282483240Y76660058D01*
X283024319Y76634551D01*
X283508529Y76680786D01*
X283886862Y76765614D01*
X284605592Y76900287D01*
X285230919Y76895888D01*
G37*
G36*
X293703387Y77061410D02*
G01*
X293648104Y76953717D01*
X293541681Y76622159D01*
X293551955Y76304025D01*
X293651881Y76108882D01*
X293715234Y76001953D01*
X293663018Y75983964D01*
X293531937Y76067642D01*
X293486051Y76148625D01*
X293423578Y76480698D01*
X293462339Y76806444D01*
X293590963Y77033911D01*
X293596055Y77038226D01*
X293712259Y77123125D01*
X293703387Y77061410D01*
G37*
G36*
X296861331Y77441625D02*
G01*
X296826568Y77410787D01*
X296714863Y77279191D01*
X296726453Y77217634D01*
X296688674Y77148459D01*
X296510342Y76997419D01*
X296226989Y76793735D01*
X296140890Y76736019D01*
X295855188Y76556481D01*
X295677907Y76464230D01*
X295635851Y76472282D01*
X295658574Y76501798D01*
X295769301Y76631113D01*
X295791321Y76689842D01*
X295701274Y76672429D01*
X295475800Y76573320D01*
X295091538Y76386962D01*
X295013013Y76348308D01*
X294570421Y76135823D01*
X294304114Y76019346D01*
X294208655Y75993276D01*
X294278612Y76052012D01*
X294508548Y76189955D01*
X294893030Y76401504D01*
X295244586Y76586939D01*
X295718421Y76835826D01*
X296152942Y77068408D01*
X296498882Y77258044D01*
X296701963Y77374992D01*
X296855538Y77460597D01*
X296861331Y77441625D01*
G37*
G36*
X285719586Y76140111D02*
G01*
X285667537Y76088062D01*
X285615487Y76140111D01*
X285667537Y76192161D01*
X285719586Y76140111D01*
G37*
G36*
X284962704Y76255053D02*
G01*
X284931658Y76207739D01*
X284826075Y76200379D01*
X284714998Y76225802D01*
X284763182Y76263272D01*
X284925875Y76275682D01*
X284962704Y76255053D01*
G37*
G36*
X285483196Y76255053D02*
G01*
X285452150Y76207739D01*
X285346567Y76200379D01*
X285235490Y76225802D01*
X285283674Y76263272D01*
X285446367Y76275682D01*
X285483196Y76255053D01*
G37*
G36*
X287662299Y76530480D02*
G01*
X287676048Y76317355D01*
X287662299Y76270234D01*
X287624303Y76257157D01*
X287609793Y76400357D01*
X287626152Y76548138D01*
X287662299Y76530480D01*
G37*
G36*
X302866003Y76993309D02*
G01*
X302866115Y76813530D01*
X302916446Y76751951D01*
X302982014Y76743367D01*
X302949458Y76814172D01*
X302931604Y76909722D01*
X303004942Y76901823D01*
X303156812Y76788781D01*
X303179979Y76744997D01*
X303144159Y76620914D01*
X302997228Y76568720D01*
X302831230Y76614757D01*
X302804402Y76637508D01*
X302694195Y76849609D01*
X302754390Y77042817D01*
X302809407Y77087930D01*
X302887897Y77092945D01*
X302866003Y76993309D01*
G37*
G36*
X287436927Y77178930D02*
G01*
X287488765Y77099099D01*
X287564548Y76892956D01*
X287556893Y76786804D01*
X287509657Y76720409D01*
X287497476Y76782212D01*
X287460679Y76981682D01*
X287429349Y77094507D01*
X287392988Y77226197D01*
X287436927Y77178930D01*
G37*
G36*
X302759936Y77281925D02*
G01*
X302700536Y77205385D01*
X302613010Y77139601D01*
X302634851Y77243909D01*
X302642262Y77263658D01*
X302724728Y77391131D01*
X302771613Y77392046D01*
X302759936Y77281925D01*
G37*
G36*
X294014795Y77374099D02*
G01*
X293995405Y77337243D01*
X293897322Y77237828D01*
X293879020Y77233144D01*
X293871918Y77300386D01*
X293891307Y77337243D01*
X293989390Y77436657D01*
X294007693Y77441341D01*
X294014795Y77374099D01*
G37*
G36*
X297066307Y77285193D02*
G01*
X297014258Y77233144D01*
X296962209Y77285193D01*
X297014258Y77337243D01*
X297066307Y77285193D01*
G37*
G36*
X299217673Y77302543D02*
G01*
X299203384Y77240657D01*
X299148274Y77233144D01*
X299062590Y77271232D01*
X299078875Y77302543D01*
X299202416Y77315002D01*
X299217673Y77302543D01*
G37*
G36*
X287350460Y77510740D02*
G01*
X287362919Y77387199D01*
X287350460Y77371942D01*
X287288574Y77386232D01*
X287281061Y77441341D01*
X287319149Y77527026D01*
X287350460Y77510740D01*
G37*
G36*
X297553371Y77499295D02*
G01*
X297482701Y77441341D01*
X297292927Y77353254D01*
X297222455Y77340431D01*
X297203834Y77383387D01*
X297274504Y77441341D01*
X297464277Y77529428D01*
X297534750Y77542251D01*
X297553371Y77499295D01*
G37*
G36*
X298796445Y77854715D02*
G01*
X298856307Y77661694D01*
X298858340Y77648475D01*
X298879048Y77406859D01*
X298849929Y77347205D01*
X298778952Y77480487D01*
X298764612Y77519415D01*
X298690386Y77710787D01*
X298662082Y77772468D01*
X298694969Y77883605D01*
X298718524Y77901528D01*
X298796445Y77854715D01*
G37*
G36*
X299532887Y77490122D02*
G01*
X299473487Y77413581D01*
X299385961Y77347797D01*
X299407802Y77452106D01*
X299415213Y77471855D01*
X299497679Y77599328D01*
X299544563Y77600243D01*
X299532887Y77490122D01*
G37*
G36*
X285313695Y79616211D02*
G01*
X285627064Y79577217D01*
X285961633Y79513363D01*
X286257316Y79433879D01*
X286432667Y79361224D01*
X286708520Y79203407D01*
X286448274Y79275331D01*
X285910214Y79418208D01*
X285556483Y79492894D01*
X285373177Y79494831D01*
X285346392Y79419466D01*
X285462225Y79262241D01*
X285695978Y79028841D01*
X286014906Y78686048D01*
X286293348Y78314935D01*
X286503416Y77961357D01*
X286617220Y77671171D01*
X286618723Y77511639D01*
X286573239Y77477428D01*
X286560591Y77550263D01*
X286505654Y77711455D01*
X286373498Y77969800D01*
X286198737Y78268896D01*
X286015986Y78552341D01*
X285859857Y78763733D01*
X285764990Y78846669D01*
X285647890Y78913933D01*
X285452201Y79077864D01*
X285237656Y79281665D01*
X285063986Y79468543D01*
X284990922Y79581704D01*
X284990897Y79582699D01*
X285081611Y79621115D01*
X285313695Y79616211D01*
G37*
G36*
X294255651Y77493390D02*
G01*
X294203602Y77441341D01*
X294151553Y77493390D01*
X294203602Y77545439D01*
X294255651Y77493390D01*
G37*
G36*
X294637345Y77614838D02*
G01*
X294623056Y77552952D01*
X294567946Y77545439D01*
X294482262Y77583527D01*
X294498547Y77614838D01*
X294622088Y77627297D01*
X294637345Y77614838D01*
G37*
G36*
X296571840Y77614382D02*
G01*
X296584917Y77576387D01*
X296441717Y77561876D01*
X296293936Y77578235D01*
X296311594Y77614382D01*
X296524719Y77628131D01*
X296571840Y77614382D01*
G37*
G36*
X297864394Y77614838D02*
G01*
X297850105Y77552952D01*
X297794996Y77545439D01*
X297709311Y77583527D01*
X297725597Y77614838D01*
X297849137Y77627297D01*
X297864394Y77614838D01*
G37*
G36*
X301499840Y79474062D02*
G01*
X301542537Y79269206D01*
X301580919Y79048788D01*
X301646635Y78950767D01*
X301730050Y78805886D01*
X301750733Y78655151D01*
X301837608Y78436851D01*
X302049115Y78311244D01*
X302291595Y78151454D01*
X302395247Y77873271D01*
X302395431Y77872028D01*
X302406635Y77648169D01*
X302369009Y77546061D01*
X302364209Y77545439D01*
X302296109Y77635350D01*
X302252115Y77829298D01*
X302133766Y78103932D01*
X301847995Y78281786D01*
X301385756Y78367230D01*
X301119013Y78376692D01*
X300725531Y78353933D01*
X300323381Y78292174D01*
X299959146Y78204157D01*
X299679407Y78102627D01*
X299530748Y78000326D01*
X299525618Y77940800D01*
X299532954Y77874839D01*
X299476653Y77899843D01*
X299364897Y78026253D01*
X299356471Y78064688D01*
X299450405Y78150618D01*
X299695088Y78249072D01*
X300034840Y78345499D01*
X300413980Y78425347D01*
X300776829Y78474063D01*
X300954477Y78482325D01*
X301427407Y78482325D01*
X301411095Y78891372D01*
X301399517Y78992262D01*
X301467928Y78992262D01*
X301489769Y78887953D01*
X301497180Y78868204D01*
X301579646Y78740731D01*
X301626531Y78739816D01*
X301614854Y78849937D01*
X301555454Y78926478D01*
X301467928Y78992262D01*
X301399517Y78992262D01*
X301383057Y79135690D01*
X301332719Y79250884D01*
X301313705Y79250309D01*
X301274037Y79282076D01*
X301294620Y79361754D01*
X301401548Y79511462D01*
X301499840Y79474062D01*
G37*
G36*
X295470132Y77718937D02*
G01*
X295455843Y77657050D01*
X295400733Y77649538D01*
X295315049Y77687626D01*
X295331334Y77718937D01*
X295454875Y77731395D01*
X295470132Y77718937D01*
G37*
G36*
X298176690Y77718937D02*
G01*
X298162400Y77657050D01*
X298107291Y77649538D01*
X298021606Y77687626D01*
X298037892Y77718937D01*
X298161432Y77731395D01*
X298176690Y77718937D01*
G37*
G36*
X298488985Y77823035D02*
G01*
X298474695Y77761149D01*
X298419586Y77753636D01*
X298333901Y77791724D01*
X298350187Y77823035D01*
X298473727Y77835493D01*
X298488985Y77823035D01*
G37*
G36*
X286936944Y79113341D02*
G01*
X287140624Y78986193D01*
X287229358Y78898158D01*
X287268275Y78807091D01*
X287186014Y78843338D01*
X286968766Y79012118D01*
X286812548Y79145747D01*
X286816310Y79167996D01*
X286936944Y79113341D01*
G37*
G36*
X300231732Y82748629D02*
G01*
X300341624Y82586882D01*
X300455947Y82383891D01*
X300686588Y81966239D01*
X300876510Y81677581D01*
X301073423Y81458424D01*
X301325039Y81249279D01*
X301426765Y81173379D01*
X301671331Y80976360D01*
X301826282Y80818539D01*
X301854832Y80763483D01*
X301764297Y80696622D01*
X301534032Y80677524D01*
X301226046Y80702503D01*
X300902348Y80767874D01*
X300709750Y80831545D01*
X300345405Y80978861D01*
X300683725Y80927724D01*
X301047481Y80867883D01*
X301354263Y80811891D01*
X301686481Y80747195D01*
X301157125Y81262803D01*
X300824268Y81627210D01*
X300531210Y82020482D01*
X300311255Y82391041D01*
X300197707Y82687310D01*
X300189258Y82761715D01*
X300231732Y82748629D01*
G37*
G36*
X285199094Y81345029D02*
G01*
X285111254Y81493091D01*
X285101594Y81585394D01*
X285125128Y81669108D01*
X285189465Y81558537D01*
X285202338Y81527202D01*
X285302890Y81327756D01*
X285356914Y81326082D01*
X285355514Y81515185D01*
X285338778Y81634510D01*
X285283356Y81976041D01*
X285913813Y81963301D01*
X286274528Y81971131D01*
X286462136Y82010314D01*
X286479994Y82054562D01*
X286505110Y82116341D01*
X286640193Y82099862D01*
X286814522Y82091964D01*
X286864668Y82142528D01*
X286945514Y82198235D01*
X287064104Y82180597D01*
X287255895Y82174641D01*
X287329756Y82224439D01*
X287318295Y82289126D01*
X287242402Y82272649D01*
X287080922Y82296960D01*
X286973599Y82466443D01*
X286948686Y82719692D01*
X286974733Y82854456D01*
X287024270Y82992895D01*
X287049779Y82958900D01*
X287061860Y82735208D01*
X287062488Y82711586D01*
X287081685Y82460748D01*
X287133713Y82383438D01*
X287216855Y82427973D01*
X287350497Y82485441D01*
X287425052Y82380156D01*
X287480697Y82215291D01*
X287489258Y82173335D01*
X287395748Y82108139D01*
X287153666Y82027627D01*
X286820685Y81944932D01*
X286454476Y81873185D01*
X286112712Y81825519D01*
X285908888Y81813472D01*
X285585129Y81797940D01*
X285439224Y81727109D01*
X285441695Y81564631D01*
X285529850Y81346082D01*
X285597751Y81121415D01*
X285528559Y80957237D01*
X285477801Y80902484D01*
X285351622Y80794993D01*
X285307870Y80852823D01*
X285303192Y81004284D01*
X285281371Y81145508D01*
X285415509Y81145508D01*
X285434648Y81010490D01*
X285470183Y81008878D01*
X285495034Y81148203D01*
X285478402Y81208400D01*
X285432179Y81247831D01*
X285415509Y81145508D01*
X285281371Y81145508D01*
X285267789Y81233408D01*
X285199094Y81345029D01*
G37*
G36*
X300293356Y81032734D02*
G01*
X300241307Y80980685D01*
X300189258Y81032734D01*
X300241307Y81084784D01*
X300293356Y81032734D01*
G37*
G36*
X285823684Y81136833D02*
G01*
X285771635Y81084784D01*
X285719586Y81136833D01*
X285771635Y81188882D01*
X285823684Y81136833D01*
G37*
G36*
X299964977Y81250872D02*
G01*
X300075854Y81154104D01*
X300085160Y81130689D01*
X300035757Y81087904D01*
X299932901Y81183775D01*
X299919071Y81204966D01*
X299906802Y81276200D01*
X299964977Y81250872D01*
G37*
G36*
X299666678Y81451643D02*
G01*
X299733810Y81320752D01*
X299687656Y81292980D01*
X299535082Y81369592D01*
X299508338Y81404004D01*
X299469371Y81539521D01*
X299550154Y81550639D01*
X299666678Y81451643D01*
G37*
G36*
X298631460Y83108593D02*
G01*
X298722307Y82871548D01*
X298875666Y82493182D01*
X299053520Y82145703D01*
X299144468Y82004553D01*
X299281516Y81791180D01*
X299330070Y81656184D01*
X299324945Y81643148D01*
X299239744Y81685342D01*
X299091656Y81852671D01*
X299052743Y81905539D01*
X298804308Y82317898D01*
X298619839Y82745627D01*
X298530734Y83112039D01*
X298527082Y83189432D01*
X298556328Y83238605D01*
X298631460Y83108593D01*
G37*
G36*
X284056978Y83591420D02*
G01*
X284212883Y83332436D01*
X284336817Y83089982D01*
X284450853Y82950395D01*
X284466912Y82942067D01*
X284551742Y82824234D01*
X284609509Y82589370D01*
X284610249Y82583160D01*
X284686289Y82227381D01*
X284818475Y82051278D01*
X284938848Y82021669D01*
X285113461Y81955672D01*
X285147045Y81917570D01*
X285156254Y81825056D01*
X285005168Y81848746D01*
X284782701Y81947735D01*
X284569183Y82139089D01*
X284486117Y82333992D01*
X284379429Y82590949D01*
X284251896Y82727658D01*
X284096020Y82876396D01*
X284054012Y82968810D01*
X283989098Y83112717D01*
X283845815Y83294831D01*
X283670744Y83520985D01*
X283669518Y83646902D01*
X283842336Y83687203D01*
X283851127Y83687243D01*
X284056978Y83591420D01*
G37*
G36*
X298944421Y83724753D02*
G01*
X299030577Y83478657D01*
X299182504Y83067860D01*
X299348360Y82719847D01*
X299504912Y82475208D01*
X299628924Y82374537D01*
X299659317Y82380173D01*
X299762060Y82339637D01*
X299857009Y82223132D01*
X299930277Y82060890D01*
X299877066Y82033646D01*
X299722856Y82134080D01*
X299528321Y82317574D01*
X299327699Y82591301D01*
X299126453Y82967012D01*
X298958231Y83368619D01*
X298856680Y83720035D01*
X298841577Y83870531D01*
X298871660Y83880208D01*
X298944421Y83724753D01*
G37*
G36*
X286760569Y82281915D02*
G01*
X286708520Y82229866D01*
X286656471Y82281915D01*
X286708520Y82333964D01*
X286760569Y82281915D01*
G37*
G36*
X288085626Y82646259D02*
G01*
X288207158Y82459021D01*
X288259580Y82413632D01*
X288285268Y82350230D01*
X288191922Y82335558D01*
X288044037Y82413101D01*
X288017968Y82568185D01*
X288039870Y82706006D01*
X288085626Y82646259D01*
G37*
G36*
X288530241Y82490111D02*
G01*
X288478192Y82438062D01*
X288426143Y82490111D01*
X288478192Y82542161D01*
X288530241Y82490111D01*
G37*
G36*
X288842537Y82594210D02*
G01*
X288790487Y82542161D01*
X288738438Y82594210D01*
X288790487Y82646259D01*
X288842537Y82594210D01*
G37*
G36*
X299668766Y82594210D02*
G01*
X299616717Y82542161D01*
X299564668Y82594210D01*
X299616717Y82646259D01*
X299668766Y82594210D01*
G37*
G36*
X287385160Y82698308D02*
G01*
X287333110Y82646259D01*
X287281061Y82698308D01*
X287333110Y82750357D01*
X287385160Y82698308D01*
G37*
G36*
X288820121Y82911571D02*
G01*
X288786705Y82863877D01*
X288697595Y82854456D01*
X288576931Y82808011D01*
X288582291Y82750357D01*
X288623410Y82670370D01*
X288564868Y82670558D01*
X288377888Y82740809D01*
X288257387Y82802246D01*
X288309629Y82850187D01*
X288468246Y82894707D01*
X288697455Y82930369D01*
X288820121Y82911571D01*
G37*
G36*
X289226270Y82787214D02*
G01*
X289206881Y82750357D01*
X289108798Y82650943D01*
X289090495Y82646259D01*
X289083393Y82713501D01*
X289102782Y82750357D01*
X289200865Y82849772D01*
X289219168Y82854456D01*
X289226270Y82787214D01*
G37*
G36*
X290534135Y82715201D02*
G01*
X290547212Y82677206D01*
X290404012Y82662696D01*
X290256231Y82679055D01*
X290273889Y82715201D01*
X290487014Y82728950D01*
X290534135Y82715201D01*
G37*
G36*
X292457786Y82709152D02*
G01*
X292426740Y82661838D01*
X292321157Y82654477D01*
X292210080Y82679900D01*
X292258264Y82717370D01*
X292420957Y82729780D01*
X292457786Y82709152D01*
G37*
G36*
X289987619Y82802406D02*
G01*
X289935569Y82750357D01*
X289883520Y82802406D01*
X289935569Y82854456D01*
X289987619Y82802406D01*
G37*
G36*
X293360419Y83315905D02*
G01*
X293256892Y83182184D01*
X293083276Y83015668D01*
X292888640Y82861290D01*
X292722050Y82763986D01*
X292666509Y82750746D01*
X292660753Y82796351D01*
X292801932Y82909922D01*
X292876348Y82957413D01*
X293095335Y83116206D01*
X293209823Y83248556D01*
X293214668Y83269319D01*
X293296518Y83365449D01*
X293344791Y83371896D01*
X293360419Y83315905D01*
G37*
G36*
X299632983Y82894779D02*
G01*
X299616717Y82854456D01*
X299523173Y82755148D01*
X299506475Y82750357D01*
X299461763Y82830897D01*
X299460569Y82854456D01*
X299540595Y82954554D01*
X299570811Y82958554D01*
X299632983Y82894779D01*
G37*
G36*
X286760569Y82906505D02*
G01*
X286708520Y82854456D01*
X286656471Y82906505D01*
X286708520Y82958554D01*
X286760569Y82906505D01*
G37*
G36*
X287624132Y82986686D02*
G01*
X287645405Y82958554D01*
X287640647Y82862476D01*
X287605643Y82854456D01*
X287458482Y82930422D01*
X287437209Y82958554D01*
X287441967Y83054632D01*
X287476971Y83062652D01*
X287624132Y82986686D01*
G37*
G36*
X288006725Y82983436D02*
G01*
X288009750Y82958554D01*
X287930533Y82857481D01*
X287905651Y82854456D01*
X287804578Y82933672D01*
X287801553Y82958554D01*
X287880769Y83059627D01*
X287905651Y83062652D01*
X288006725Y82983436D01*
G37*
G36*
X289467127Y82906505D02*
G01*
X289415078Y82854456D01*
X289363028Y82906505D01*
X289415078Y82958554D01*
X289467127Y82906505D01*
G37*
G36*
X292609512Y84262567D02*
G01*
X292399673Y84140368D01*
X292067341Y83959147D01*
X291644110Y83736477D01*
X291552321Y83689024D01*
X291103336Y83461734D01*
X290725436Y83278319D01*
X290454339Y83155535D01*
X290325762Y83110135D01*
X290320675Y83111290D01*
X290210341Y83099945D01*
X289985457Y83024026D01*
X289927079Y83000347D01*
X289699148Y82928112D01*
X289577486Y82934374D01*
X289571225Y82950142D01*
X289657240Y83049286D01*
X289850002Y83144087D01*
X290051593Y83192039D01*
X290117741Y83187375D01*
X290186937Y83251385D01*
X290195815Y83319631D01*
X290125163Y83426186D01*
X290013643Y83413910D01*
X289894899Y83385277D01*
X289961411Y83448592D01*
X289987619Y83467632D01*
X290193474Y83573685D01*
X290289338Y83509339D01*
X290299914Y83418506D01*
X290325470Y83328004D01*
X290432255Y83346247D01*
X290648288Y83469176D01*
X290880810Y83593517D01*
X291030936Y83638071D01*
X291049293Y83631852D01*
X291160336Y83649984D01*
X291408302Y83744963D01*
X291745263Y83897849D01*
X291843114Y83945527D01*
X292201020Y84117251D01*
X292486814Y84244813D01*
X292649882Y84305887D01*
X292665265Y84308166D01*
X292609512Y84262567D01*
G37*
G36*
X290298720Y82982112D02*
G01*
X290299914Y82958554D01*
X290219888Y82858456D01*
X290189672Y82854456D01*
X290127500Y82918230D01*
X290143766Y82958554D01*
X290237310Y83057862D01*
X290254008Y83062652D01*
X290298720Y82982112D01*
G37*
G36*
X284782701Y83010603D02*
G01*
X284730651Y82958554D01*
X284678602Y83010603D01*
X284730651Y83062652D01*
X284782701Y83010603D01*
G37*
G36*
X288322045Y83010603D02*
G01*
X288269996Y82958554D01*
X288217946Y83010603D01*
X288269996Y83062652D01*
X288322045Y83010603D01*
G37*
G36*
X300154102Y83296874D02*
G01*
X300167851Y83083748D01*
X300154102Y83036628D01*
X300116107Y83023551D01*
X300101596Y83166751D01*
X300117955Y83314532D01*
X300154102Y83296874D01*
G37*
G36*
X299425870Y83236150D02*
G01*
X299438328Y83112609D01*
X299425870Y83097352D01*
X299363984Y83111641D01*
X299356471Y83166751D01*
X299394559Y83252436D01*
X299425870Y83236150D01*
G37*
G36*
X284643446Y83505070D02*
G01*
X284657195Y83291945D01*
X284643446Y83244825D01*
X284605451Y83231747D01*
X284590940Y83374947D01*
X284607300Y83522729D01*
X284643446Y83505070D01*
G37*
G36*
X298717333Y87902326D02*
G01*
X298760798Y87728823D01*
X298818434Y87389968D01*
X298884063Y86927607D01*
X298951508Y86383587D01*
X298983209Y86101162D01*
X299051412Y85498169D01*
X299121584Y84923113D01*
X299186909Y84428958D01*
X299240568Y84068666D01*
X299256605Y83977222D01*
X299313296Y83619884D01*
X299320626Y83438059D01*
X299286067Y83440410D01*
X299217091Y83635602D01*
X299158786Y83863796D01*
X299105138Y84151753D01*
X299039619Y84592717D01*
X298969603Y85132392D01*
X298902461Y85716479D01*
X298885932Y85873308D01*
X298825926Y86444432D01*
X298768704Y86970770D01*
X298719727Y87403345D01*
X298684454Y87693178D01*
X298677055Y87747079D01*
X298654264Y87958481D01*
X298678585Y87978197D01*
X298717333Y87902326D01*
G37*
G36*
X304601017Y84342702D02*
G01*
X304825281Y84163238D01*
X305054628Y83935662D01*
X305229219Y83718786D01*
X305290078Y83581419D01*
X305209287Y83501490D01*
X305003807Y83525097D01*
X304157729Y83650329D01*
X303328065Y83618830D01*
X302932838Y83541222D01*
X302160499Y83399760D01*
X301515607Y83408522D01*
X301043620Y83548622D01*
X300829551Y83686386D01*
X300647389Y83854776D01*
X300536906Y84006940D01*
X300537873Y84096027D01*
X300572484Y84103636D01*
X300709663Y84069277D01*
X300964498Y83982594D01*
X301092148Y83935061D01*
X301592374Y83819630D01*
X301928415Y83843408D01*
X302166648Y83898653D01*
X302222215Y83947117D01*
X302118742Y84010105D01*
X302115078Y84011719D01*
X302030954Y84063282D01*
X302137010Y84064179D01*
X302271225Y84045006D01*
X302492457Y84024622D01*
X302521210Y84063426D01*
X302497423Y84082397D01*
X302484687Y84154724D01*
X302621548Y84216439D01*
X302849405Y84256676D01*
X303109658Y84264568D01*
X303322062Y84235320D01*
X303424273Y84190703D01*
X303369652Y84137775D01*
X303137417Y84061650D01*
X303043345Y84035670D01*
X302460350Y83879978D01*
X302039421Y83775917D01*
X301742419Y83717977D01*
X301531207Y83700648D01*
X301367649Y83718419D01*
X301213607Y83765782D01*
X301202954Y83769776D01*
X300930863Y83850016D01*
X300837762Y83835090D01*
X300931296Y83748093D01*
X301158866Y83636560D01*
X301575348Y83513570D01*
X302032454Y83491652D01*
X302586742Y83571157D01*
X302911878Y83647481D01*
X303431090Y83737252D01*
X303998758Y83766825D01*
X304536504Y83736943D01*
X304965952Y83648349D01*
X305022548Y83627503D01*
X305155575Y83583758D01*
X305152333Y83641239D01*
X305054305Y83787991D01*
X304841119Y84022552D01*
X304593146Y84222027D01*
X304436771Y84347934D01*
X304423620Y84412878D01*
X304441676Y84415245D01*
X304601017Y84342702D01*
G37*
G36*
X290492026Y83645134D02*
G01*
X290603781Y83540318D01*
X290580856Y83480059D01*
X290566303Y83479046D01*
X290478255Y83552985D01*
X290446121Y83599228D01*
X290433851Y83670462D01*
X290492026Y83645134D01*
G37*
G36*
X293390524Y83973513D02*
G01*
X293406713Y83709496D01*
X293390524Y83609169D01*
X293360351Y83576771D01*
X293343924Y83720712D01*
X293342917Y83791341D01*
X293353770Y83980729D01*
X293380792Y84003049D01*
X293390524Y83973513D01*
G37*
G36*
X298492190Y84462318D02*
G01*
X298494890Y84441956D01*
X298512118Y84076933D01*
X298494890Y83765316D01*
X298474479Y83686749D01*
X298459548Y83793028D01*
X298452991Y84060819D01*
X298452905Y84103636D01*
X298458235Y84389626D01*
X298472295Y84516965D01*
X298492190Y84462318D01*
G37*
G36*
X300055622Y84389906D02*
G01*
X300073048Y84053658D01*
X300055622Y83817366D01*
X300032929Y83752784D01*
X300017231Y83871010D01*
X300012256Y84103636D01*
X300018711Y84360633D01*
X300035514Y84456953D01*
X300055622Y84389906D01*
G37*
G36*
X285145590Y84900662D02*
G01*
X285070629Y84650093D01*
X284949673Y84313497D01*
X284945214Y84301880D01*
X284819021Y83991772D01*
X284725894Y83797006D01*
X284684300Y83755747D01*
X284683690Y83761411D01*
X284712930Y83919185D01*
X284792535Y84177137D01*
X284899727Y84475286D01*
X285011729Y84753650D01*
X285105764Y84952249D01*
X285158489Y85011727D01*
X285145590Y84900662D01*
G37*
G36*
X289831471Y83828986D02*
G01*
X289968440Y83755098D01*
X289987619Y83728154D01*
X289902614Y83691764D01*
X289831471Y83687243D01*
X289692914Y83741721D01*
X289675323Y83788074D01*
X289751628Y83845350D01*
X289831471Y83828986D01*
G37*
G36*
X291222149Y83866450D02*
G01*
X291199417Y83823358D01*
X291047220Y83752258D01*
X290895797Y83718968D01*
X290747532Y83711119D01*
X290786281Y83766134D01*
X290820405Y83789456D01*
X290988095Y83865180D01*
X291146336Y83893020D01*
X291222149Y83866450D01*
G37*
G36*
X287755099Y86355587D02*
G01*
X287677168Y86393009D01*
X288016569Y86393009D01*
X288042418Y86339102D01*
X288100570Y86263677D01*
X288252512Y86101837D01*
X288320336Y86102541D01*
X288322045Y86120808D01*
X288250907Y86207703D01*
X288139873Y86302980D01*
X288016569Y86393009D01*
X287677168Y86393009D01*
X287645604Y86408166D01*
X287229012Y86597424D01*
X287578503Y86599710D01*
X287875154Y86517029D01*
X288228029Y86293694D01*
X288593527Y85971760D01*
X288928047Y85593276D01*
X289187988Y85200294D01*
X289303081Y84936423D01*
X289411539Y84567947D01*
X289498697Y84220668D01*
X289552879Y83947935D01*
X289562405Y83803101D01*
X289553472Y83792469D01*
X289503904Y83883166D01*
X289401969Y84123600D01*
X289266771Y84467964D01*
X289218713Y84595004D01*
X288846680Y85351597D01*
X288802402Y85404866D01*
X288946635Y85404866D01*
X288998684Y85352816D01*
X289050733Y85404866D01*
X288998684Y85456915D01*
X288946635Y85404866D01*
X288802402Y85404866D01*
X288360411Y85936611D01*
X287755099Y86355587D01*
G37*
G36*
X290612209Y83843390D02*
G01*
X290560160Y83791341D01*
X290508110Y83843390D01*
X290560160Y83895439D01*
X290612209Y83843390D01*
G37*
G36*
X290267254Y84036394D02*
G01*
X290247864Y83999538D01*
X290149781Y83900123D01*
X290131479Y83895439D01*
X290124377Y83962681D01*
X290143766Y83999538D01*
X290241849Y84098952D01*
X290260152Y84103636D01*
X290267254Y84036394D01*
G37*
G36*
X291261372Y84204526D02*
G01*
X291230655Y84207734D01*
X291168484Y84271509D01*
X291184750Y84311833D01*
X291322650Y84412045D01*
X291353184Y84415931D01*
X291411708Y84352810D01*
X291397392Y84319026D01*
X291410446Y84185329D01*
X291443298Y84156735D01*
X291543221Y84148593D01*
X291552365Y84175566D01*
X291631667Y84287260D01*
X291820072Y84445166D01*
X291838636Y84458367D01*
X291982078Y84552244D01*
X291993151Y84533008D01*
X291865978Y84386527D01*
X291762895Y84276195D01*
X291530621Y84034434D01*
X291403617Y83922402D01*
X291347051Y83915825D01*
X291328570Y83973513D01*
X291328570Y84051587D01*
X291340897Y84051587D01*
X291392946Y83999538D01*
X291444996Y84051587D01*
X291392946Y84103636D01*
X291340897Y84051587D01*
X291328570Y84051587D01*
X291328570Y84129661D01*
X291261372Y84204526D01*
G37*
G36*
X290896310Y84062430D02*
G01*
X290865264Y84015116D01*
X290759681Y84007756D01*
X290648605Y84033179D01*
X290696789Y84070649D01*
X290859482Y84083059D01*
X290896310Y84062430D01*
G37*
G36*
X301618442Y84062430D02*
G01*
X301587396Y84015116D01*
X301481813Y84007756D01*
X301370736Y84033179D01*
X301418920Y84070649D01*
X301581613Y84083059D01*
X301618442Y84062430D01*
G37*
G36*
X290091717Y84155685D02*
G01*
X290039668Y84103636D01*
X289987619Y84155685D01*
X290039668Y84207734D01*
X290091717Y84155685D01*
G37*
G36*
X298802992Y84331351D02*
G01*
X298815402Y84168658D01*
X298794774Y84131829D01*
X298747460Y84162875D01*
X298740099Y84268458D01*
X298765522Y84379535D01*
X298802992Y84331351D01*
G37*
G36*
X301230241Y84155685D02*
G01*
X301178192Y84103636D01*
X301126143Y84155685D01*
X301178192Y84207734D01*
X301230241Y84155685D01*
G37*
G36*
X290396675Y84589087D02*
G01*
X290470140Y84537827D01*
X290665504Y84361573D01*
X290704517Y84242793D01*
X290608942Y84207734D01*
X290482078Y84290897D01*
X290441886Y84363284D01*
X290352137Y84474493D01*
X290306355Y84471962D01*
X290238687Y84508950D01*
X290230515Y84568431D01*
X290265267Y84646867D01*
X290396675Y84589087D01*
G37*
G36*
X290993903Y84277133D02*
G01*
X290979613Y84215247D01*
X290924504Y84207734D01*
X290838819Y84245822D01*
X290855105Y84277133D01*
X290978645Y84289592D01*
X290993903Y84277133D01*
G37*
G36*
X293183748Y84371565D02*
G01*
X293266717Y84311833D01*
X293306063Y84221132D01*
X293298885Y84218111D01*
X293187150Y84253950D01*
X293006471Y84311833D01*
X292834386Y84372753D01*
X292854028Y84397538D01*
X292974303Y84405555D01*
X293183748Y84371565D01*
G37*
G36*
X300285308Y85087164D02*
G01*
X300293356Y85051676D01*
X300362628Y84924031D01*
X300539518Y84714175D01*
X300673669Y84577090D01*
X300876800Y84369575D01*
X300987730Y84235578D01*
X300993376Y84207734D01*
X300888779Y84273117D01*
X300690487Y84439521D01*
X300564131Y84555406D01*
X300342176Y84736130D01*
X300187900Y84807928D01*
X300148544Y84789627D01*
X300106319Y84772654D01*
X300093378Y84852206D01*
X300140287Y85039911D01*
X300189258Y85092570D01*
X300285308Y85087164D01*
G37*
G36*
X289987619Y84363882D02*
G01*
X289935569Y84311833D01*
X289883520Y84363882D01*
X289935569Y84415931D01*
X289987619Y84363882D01*
G37*
G36*
X291954573Y85040521D02*
G01*
X291852369Y84826402D01*
X291813029Y84707407D01*
X291747149Y84571974D01*
X291620925Y84474865D01*
X291521335Y84481978D01*
X291519394Y84484935D01*
X291549391Y84608340D01*
X291686314Y84821072D01*
X291779312Y84936423D01*
X291950360Y85124514D01*
X292002376Y85149884D01*
X291954573Y85040521D01*
G37*
G36*
X304249094Y84467980D02*
G01*
X304197045Y84415931D01*
X304144996Y84467980D01*
X304197045Y84520029D01*
X304249094Y84467980D01*
G37*
G36*
X304006198Y84589428D02*
G01*
X303991908Y84527542D01*
X303936799Y84520029D01*
X303851114Y84558117D01*
X303867400Y84589428D01*
X303990940Y84601887D01*
X304006198Y84589428D01*
G37*
G36*
X285703502Y84790216D02*
G01*
X285815256Y84685400D01*
X285792331Y84625141D01*
X285777778Y84624128D01*
X285689730Y84698067D01*
X285657596Y84744310D01*
X285645327Y84815544D01*
X285703502Y84790216D01*
G37*
G36*
X289952919Y84693527D02*
G01*
X289938630Y84631640D01*
X289883520Y84624128D01*
X289797835Y84662216D01*
X289814121Y84693527D01*
X289937662Y84705985D01*
X289952919Y84693527D01*
G37*
G36*
X298698894Y84851843D02*
G01*
X298711304Y84689150D01*
X298690675Y84652321D01*
X298643361Y84683367D01*
X298636001Y84788950D01*
X298661424Y84900027D01*
X298698894Y84851843D01*
G37*
G36*
X303693903Y84693527D02*
G01*
X303679613Y84631640D01*
X303624504Y84624128D01*
X303538819Y84662216D01*
X303555105Y84693527D01*
X303678645Y84705985D01*
X303693903Y84693527D01*
G37*
G36*
X292580283Y85707106D02*
G01*
X292590078Y85665111D01*
X292654834Y85600372D01*
X292704562Y85619481D01*
X292749162Y85603562D01*
X292698122Y85463007D01*
X292574502Y85244229D01*
X292401359Y84993637D01*
X292379373Y84964951D01*
X292199709Y84733234D01*
X292201763Y85017001D01*
X292216502Y85178393D01*
X292249146Y85171528D01*
X292249691Y85169996D01*
X292349092Y85087329D01*
X292395827Y85101189D01*
X292427574Y85220515D01*
X292372212Y85312418D01*
X292307481Y85415626D01*
X292405802Y85402108D01*
X292445231Y85387758D01*
X292578640Y85352467D01*
X292544705Y85432471D01*
X292506949Y85480206D01*
X292432863Y85649085D01*
X292480924Y85714037D01*
X292580283Y85707106D01*
G37*
G36*
X303130037Y84797169D02*
G01*
X303143114Y84759173D01*
X302999914Y84744663D01*
X302852132Y84761022D01*
X302869791Y84797169D01*
X303082916Y84810918D01*
X303130037Y84797169D01*
G37*
G36*
X289779422Y84884374D02*
G01*
X289727373Y84832325D01*
X289675323Y84884374D01*
X289727373Y84936423D01*
X289779422Y84884374D01*
G37*
G36*
X298523684Y84884374D02*
G01*
X298471635Y84832325D01*
X298419586Y84884374D01*
X298471635Y84936423D01*
X298523684Y84884374D01*
G37*
G36*
X302555327Y84895217D02*
G01*
X302524281Y84847903D01*
X302418698Y84840543D01*
X302307621Y84865966D01*
X302355805Y84903436D01*
X302518498Y84915846D01*
X302555327Y84895217D01*
G37*
G36*
X289845336Y86665815D02*
G01*
X289822565Y86623413D01*
X289676465Y86453234D01*
X289645290Y86264186D01*
X289740544Y86142904D01*
X289843092Y86039503D01*
X289831925Y85978142D01*
X289831897Y85881357D01*
X289864072Y85873308D01*
X289930352Y85783175D01*
X289999544Y85566662D01*
X290054310Y85304599D01*
X290077313Y85077816D01*
X290057485Y84971590D01*
X290009097Y85037312D01*
X289930355Y85250441D01*
X289877070Y85427905D01*
X289802335Y85721733D01*
X289765908Y85920472D01*
X289767498Y85965768D01*
X289722243Y86046153D01*
X289666537Y86086935D01*
X289559804Y86245440D01*
X289524978Y86416510D01*
X289571391Y86619673D01*
X289723515Y86681103D01*
X289845336Y86665815D01*
G37*
G36*
X300077158Y86955712D02*
G01*
X300218060Y86745020D01*
X300349082Y86523923D01*
X300812608Y85851386D01*
X301323215Y85360602D01*
X301698684Y85134194D01*
X301912575Y85021609D01*
X301986982Y84953167D01*
X301958930Y84943310D01*
X301771452Y84991182D01*
X301499720Y85107254D01*
X301423830Y85145850D01*
X300998695Y85463260D01*
X300583239Y85946048D01*
X300212723Y86552974D01*
X300200995Y86575972D01*
X300059873Y86874264D01*
X300021511Y86999819D01*
X300077158Y86955712D01*
G37*
G36*
X298593083Y85214019D02*
G01*
X298605542Y85090478D01*
X298593083Y85075221D01*
X298531197Y85089510D01*
X298523684Y85144620D01*
X298561772Y85230304D01*
X298593083Y85214019D01*
G37*
G36*
X285303192Y85196669D02*
G01*
X285251143Y85144620D01*
X285199094Y85196669D01*
X285251143Y85248718D01*
X285303192Y85196669D01*
G37*
G36*
X285669566Y85330880D02*
G01*
X285719586Y85303310D01*
X285885345Y85201939D01*
X285874837Y85168616D01*
X285763862Y85171629D01*
X285523978Y85246221D01*
X285421438Y85321545D01*
X285351907Y85432775D01*
X285440805Y85435508D01*
X285669566Y85330880D01*
G37*
G36*
X286208296Y85401597D02*
G01*
X286148897Y85325057D01*
X286061371Y85259273D01*
X286083212Y85363581D01*
X286090623Y85383330D01*
X286173089Y85510803D01*
X286219973Y85511718D01*
X286208296Y85401597D01*
G37*
G36*
X292173684Y85404866D02*
G01*
X292121635Y85352816D01*
X292069586Y85404866D01*
X292121635Y85456915D01*
X292173684Y85404866D01*
G37*
G36*
X292435970Y86270257D02*
G01*
X292439170Y86267112D01*
X292438972Y86144229D01*
X292365394Y85913993D01*
X292342367Y85859393D01*
X292188275Y85508964D01*
X292247981Y85873308D01*
X292306734Y86169750D01*
X292364133Y86291225D01*
X292435970Y86270257D01*
G37*
G36*
X287940170Y88667191D02*
G01*
X287962307Y88688291D01*
X288131583Y88826704D01*
X288215849Y88855209D01*
X288217946Y88846725D01*
X288272751Y88858148D01*
X288405730Y88997016D01*
X288416303Y89009957D01*
X288548692Y89249372D01*
X288517992Y89435540D01*
X288473733Y89564348D01*
X288574386Y89557276D01*
X288590388Y89551288D01*
X288781221Y89566454D01*
X288851449Y89631705D01*
X288929564Y89707831D01*
X288945041Y89652046D01*
X288866307Y89502094D01*
X288764463Y89420991D01*
X288652889Y89335844D01*
X288665662Y89311720D01*
X288660196Y89237486D01*
X288550404Y89053305D01*
X288471135Y88944210D01*
X288315553Y88726240D01*
X288243242Y88596064D01*
X288246588Y88579866D01*
X288195388Y88510464D01*
X288019738Y88318458D01*
X287742721Y88028141D01*
X287387421Y87663809D01*
X287103314Y87376562D01*
X286660497Y86929409D01*
X286347463Y86604510D01*
X286146455Y86377227D01*
X286039717Y86222919D01*
X286009491Y86116948D01*
X286038021Y86034672D01*
X286090094Y85970595D01*
X286222960Y85787948D01*
X286204157Y85735800D01*
X286060105Y85836811D01*
X286001716Y85894798D01*
X285886595Y86036483D01*
X285885556Y86161439D01*
X286003973Y86354432D01*
X286033497Y86396069D01*
X286249415Y86654302D01*
X286469851Y86855170D01*
X286476225Y86859693D01*
X286655839Y87087626D01*
X286691054Y87356032D01*
X286692762Y87539345D01*
X286714832Y87516724D01*
X286729609Y87449667D01*
X286777969Y87204305D01*
X287077863Y87491622D01*
X287252377Y87696179D01*
X287320154Y87854282D01*
X287313325Y87883191D01*
X287317722Y87937420D01*
X287363852Y87916395D01*
X287478869Y87947101D01*
X287615112Y88091627D01*
X287712562Y88272102D01*
X287724177Y88383875D01*
X287745910Y88425488D01*
X287849830Y88425488D01*
X287892538Y88433804D01*
X287915229Y88450633D01*
X288071886Y88532885D01*
X288132101Y88526913D01*
X288176673Y88562144D01*
X288183247Y88631915D01*
X288176231Y88757549D01*
X288127333Y88754959D01*
X287994779Y88610610D01*
X287947810Y88555635D01*
X287849830Y88425488D01*
X287745910Y88425488D01*
X287780179Y88491104D01*
X287940170Y88667191D01*
G37*
G36*
X292695770Y86454046D02*
G01*
X292740368Y86465672D01*
X292798274Y86393800D01*
X292880545Y86303279D01*
X292900779Y86374790D01*
X292978301Y86465804D01*
X293096314Y86450373D01*
X293279493Y86468522D01*
X293488576Y86653340D01*
X293560255Y86742806D01*
X293709942Y86976498D01*
X293766497Y87144771D01*
X293756682Y87178379D01*
X293758933Y87210502D01*
X293818288Y87181960D01*
X293881785Y87141275D01*
X293901739Y87089215D01*
X293859630Y86993841D01*
X293736938Y86823216D01*
X293515143Y86545400D01*
X293285812Y86263677D01*
X293022114Y85957512D01*
X292845114Y85805652D01*
X292724529Y85790174D01*
X292637846Y85880234D01*
X292614276Y86025024D01*
X292631703Y86053731D01*
X292689694Y86037381D01*
X292694176Y85998023D01*
X292770132Y85926865D01*
X292854818Y85941486D01*
X292960465Y86006643D01*
X292914567Y86111944D01*
X292854818Y86180637D01*
X292812129Y86240738D01*
X292946085Y86240738D01*
X292954422Y86185603D01*
X293043463Y86086404D01*
X293058520Y86081505D01*
X293141283Y86154109D01*
X293162619Y86185603D01*
X293137899Y86273795D01*
X293058520Y86289702D01*
X292946085Y86240738D01*
X292812129Y86240738D01*
X292727937Y86359272D01*
X292695770Y86454046D01*
G37*
G36*
X289258930Y86445849D02*
G01*
X289206881Y86393800D01*
X289154832Y86445849D01*
X289206881Y86497898D01*
X289258930Y86445849D01*
G37*
G36*
X290846430Y86462742D02*
G01*
X290859507Y86424747D01*
X290716307Y86410237D01*
X290568526Y86426596D01*
X290586184Y86462742D01*
X290799310Y86476491D01*
X290846430Y86462742D01*
G37*
G36*
X291627168Y86465558D02*
G01*
X291659566Y86435385D01*
X291515625Y86418958D01*
X291444996Y86417951D01*
X291255608Y86428804D01*
X291233288Y86455826D01*
X291262823Y86465558D01*
X291526841Y86481747D01*
X291627168Y86465558D01*
G37*
G36*
X291841860Y86678944D02*
G01*
X291993164Y86636722D01*
X292009050Y86588266D01*
X292052277Y86505057D01*
X292146385Y86465803D01*
X292248661Y86425262D01*
X292173684Y86409186D01*
X291970306Y86461498D01*
X291823047Y86547716D01*
X291690863Y86657552D01*
X291732592Y86685031D01*
X291841860Y86678944D01*
G37*
G36*
X290404012Y86549947D02*
G01*
X290351963Y86497898D01*
X290299914Y86549947D01*
X290351963Y86601997D01*
X290404012Y86549947D01*
G37*
G36*
X290370584Y86764049D02*
G01*
X290299914Y86706095D01*
X290110140Y86618008D01*
X290039668Y86605185D01*
X290021047Y86648141D01*
X290091717Y86706095D01*
X290281490Y86794182D01*
X290351963Y86807005D01*
X290370584Y86764049D01*
G37*
G36*
X290681608Y86671396D02*
G01*
X290667318Y86609509D01*
X290612209Y86601997D01*
X290526524Y86640085D01*
X290542810Y86671396D01*
X290666350Y86683854D01*
X290681608Y86671396D01*
G37*
G36*
X291202099Y86775494D02*
G01*
X291214558Y86651954D01*
X291202099Y86636696D01*
X291140213Y86650986D01*
X291132701Y86706095D01*
X291170788Y86791780D01*
X291202099Y86775494D01*
G37*
G36*
X292365797Y86768085D02*
G01*
X292477551Y86663269D01*
X292454626Y86603010D01*
X292440074Y86601997D01*
X292352025Y86675936D01*
X292319891Y86722179D01*
X292307622Y86793413D01*
X292365797Y86768085D01*
G37*
G36*
X291028602Y86758144D02*
G01*
X290976553Y86706095D01*
X290924504Y86758144D01*
X290976553Y86810193D01*
X291028602Y86758144D01*
G37*
G36*
X300458874Y87393303D02*
G01*
X300532128Y87306279D01*
X300667941Y87186901D01*
X300735657Y87183096D01*
X300775994Y87148959D01*
X300777414Y87051355D01*
X300823978Y86906414D01*
X300899659Y86890846D01*
X300986295Y86859544D01*
X300971590Y86812773D01*
X300881753Y86714640D01*
X300780894Y86781893D01*
X300736308Y86836218D01*
X300614163Y87027265D01*
X300509622Y87226587D01*
X300434838Y87394635D01*
X300458874Y87393303D01*
G37*
G36*
X289050733Y86862243D02*
G01*
X288998684Y86810193D01*
X288946635Y86862243D01*
X288998684Y86914292D01*
X289050733Y86862243D01*
G37*
G36*
X290091717Y86862243D02*
G01*
X290039668Y86810193D01*
X289987619Y86862243D01*
X290039668Y86914292D01*
X290091717Y86862243D01*
G37*
G36*
X290820405Y86862243D02*
G01*
X290768356Y86810193D01*
X290716307Y86862243D01*
X290768356Y86914292D01*
X290820405Y86862243D01*
G37*
G36*
X292798274Y86862243D02*
G01*
X292746225Y86810193D01*
X292694176Y86862243D01*
X292746225Y86914292D01*
X292798274Y86862243D01*
G37*
G36*
X293006471Y86862243D02*
G01*
X292954422Y86810193D01*
X292902373Y86862243D01*
X292954422Y86914292D01*
X293006471Y86862243D01*
G37*
G36*
X293422864Y86862243D02*
G01*
X293370815Y86810193D01*
X293318766Y86862243D01*
X293370815Y86914292D01*
X293422864Y86862243D01*
G37*
G36*
X287234925Y87157045D02*
G01*
X287216682Y87075846D01*
X287132679Y86929321D01*
X287078361Y86953867D01*
X287072864Y87012247D01*
X287148469Y87153406D01*
X287175770Y87173801D01*
X287234925Y87157045D01*
G37*
G36*
X299981061Y87174538D02*
G01*
X299929012Y87122488D01*
X299876963Y87174538D01*
X299929012Y87226587D01*
X299981061Y87174538D01*
G37*
G36*
X301022045Y87174538D02*
G01*
X300969996Y87122488D01*
X300917946Y87174538D01*
X300969996Y87226587D01*
X301022045Y87174538D01*
G37*
G36*
X295224139Y88123100D02*
G01*
X295084512Y88025741D01*
X295036389Y87999768D01*
X294747241Y87827221D01*
X294515897Y87657150D01*
X294200990Y87397332D01*
X294015769Y87277768D01*
X293945087Y87289147D01*
X293943356Y87305193D01*
X294025129Y87465685D01*
X294206268Y87607737D01*
X294307701Y87644538D01*
X294382601Y87739720D01*
X294377099Y87783513D01*
X294389104Y87848597D01*
X294417398Y87828228D01*
X294542935Y87831357D01*
X294751008Y87938032D01*
X294780462Y87958351D01*
X295017683Y88099480D01*
X295200974Y88162591D01*
X295208606Y88162831D01*
X295224139Y88123100D01*
G37*
G36*
X293858959Y87693110D02*
G01*
X293874150Y87670741D01*
X293839778Y87556444D01*
X293702401Y87438895D01*
X293546888Y87348848D01*
X293546754Y87386925D01*
X293627629Y87496133D01*
X293752568Y87661845D01*
X293799377Y87727980D01*
X293858959Y87693110D01*
G37*
G36*
X298992480Y88590425D02*
G01*
X299044176Y88559728D01*
X299184302Y88430516D01*
X299363932Y88206280D01*
X299551621Y87935972D01*
X299715924Y87668546D01*
X299825398Y87452956D01*
X299848596Y87338156D01*
X299833636Y87330685D01*
X299758633Y87415317D01*
X299631983Y87630321D01*
X299558346Y87773103D01*
X299359901Y88105260D01*
X299129920Y88397507D01*
X299061763Y88465042D01*
X298887149Y88624536D01*
X298865023Y88661115D01*
X298992480Y88590425D01*
G37*
G36*
X301022045Y87382734D02*
G01*
X300969996Y87330685D01*
X300917946Y87382734D01*
X300969996Y87434784D01*
X301022045Y87382734D01*
G37*
G36*
X299999652Y87979158D02*
G01*
X299680584Y88400237D01*
X299386443Y88676083D01*
X299058777Y88852233D01*
X298763266Y88944210D01*
X299148274Y88944210D01*
X299200323Y88892161D01*
X299252373Y88944210D01*
X299200323Y88996259D01*
X299148274Y88944210D01*
X298763266Y88944210D01*
X298759317Y88945439D01*
X298479888Y89022744D01*
X298380905Y89075719D01*
X298439185Y89123416D01*
X298512003Y89148699D01*
X298743444Y89167806D01*
X298831273Y89107971D01*
X298976193Y89037624D01*
X299073139Y89053854D01*
X299275387Y89033530D01*
X299474814Y88901232D01*
X299610686Y88752332D01*
X299625413Y88684382D01*
X299620418Y88683964D01*
X299624002Y88627408D01*
X299755035Y88491233D01*
X299756936Y88489581D01*
X299920849Y88312494D01*
X299981061Y88185969D01*
X300057697Y88054793D01*
X300243507Y87885691D01*
X300257022Y87875715D01*
X300426746Y87712907D01*
X300424093Y87607601D01*
X300419644Y87604645D01*
X300300268Y87642287D01*
X300246859Y87695029D01*
X300293356Y87695029D01*
X300345405Y87642980D01*
X300397455Y87695029D01*
X300345405Y87747079D01*
X300293356Y87695029D01*
X300246859Y87695029D01*
X300119272Y87821024D01*
X299999652Y87979158D01*
G37*
G36*
X300174636Y89335436D02*
G01*
X300004538Y89502712D01*
X299770294Y89687936D01*
X299580775Y89799945D01*
X299552043Y89809375D01*
X299384307Y89910518D01*
X299229518Y90069621D01*
X299114231Y90246412D01*
X299138392Y90355919D01*
X299206553Y90415300D01*
X299307569Y90518375D01*
X299224982Y90585535D01*
X299194869Y90597472D01*
X299000316Y90656947D01*
X298962767Y90615069D01*
X298992127Y90557734D01*
X298987368Y90461656D01*
X298952365Y90453636D01*
X298815410Y90512655D01*
X298788560Y90625752D01*
X298859422Y90686997D01*
X298845604Y90739797D01*
X298673218Y90830072D01*
X298482728Y90902195D01*
X298174902Y90989248D01*
X297944426Y91022211D01*
X297874457Y91010951D01*
X297738762Y91027469D01*
X297677280Y91090914D01*
X297581996Y91171821D01*
X297466958Y91081927D01*
X297439187Y91046684D01*
X297310874Y90936344D01*
X297255057Y90980420D01*
X297143883Y91038547D01*
X296886549Y91091007D01*
X296537617Y91134070D01*
X296151649Y91164009D01*
X295783207Y91177095D01*
X295486853Y91169601D01*
X295317148Y91137797D01*
X295296635Y91114243D01*
X295202900Y91057506D01*
X294963036Y91018204D01*
X294771225Y91008138D01*
X294373889Y90981243D01*
X294179152Y90917121D01*
X294184554Y90814535D01*
X294258666Y90750451D01*
X294336635Y90683628D01*
X294237609Y90710597D01*
X294203602Y90723712D01*
X293955024Y90776713D01*
X293641728Y90792271D01*
X293631061Y90791919D01*
X293460673Y90792145D01*
X293426550Y90820012D01*
X293546166Y90890796D01*
X293836993Y91019773D01*
X293943356Y91064956D01*
X294283577Y91198409D01*
X294543128Y91280549D01*
X294669401Y91294926D01*
X294672045Y91292800D01*
X294788825Y91272685D01*
X295076860Y91255561D01*
X295499212Y91242725D01*
X296018946Y91235473D01*
X296337619Y91234335D01*
X297100066Y91223934D01*
X297702101Y91185659D01*
X298190788Y91108962D01*
X298613187Y90983296D01*
X299016363Y90798113D01*
X299447377Y90542866D01*
X299460569Y90534438D01*
X299824914Y90301319D01*
X299544352Y90267015D01*
X299341150Y90201297D01*
X299321039Y90083526D01*
X299416147Y89980786D01*
X299465245Y89988083D01*
X299610719Y89965733D01*
X299828189Y89803805D01*
X300081966Y89540906D01*
X300336359Y89215643D01*
X300555678Y88866622D01*
X300621850Y88736959D01*
X300797073Y88308277D01*
X300895767Y87941711D01*
X300912164Y87674881D01*
X300840495Y87545409D01*
X300805577Y87538882D01*
X300740543Y87628797D01*
X300764659Y87864200D01*
X300794948Y88080734D01*
X300745923Y88128925D01*
X300709729Y88111410D01*
X300628418Y88103158D01*
X300653563Y88254534D01*
X300667788Y88434593D01*
X300606523Y88475767D01*
X300537830Y88539128D01*
X300553602Y88579866D01*
X300541895Y88675636D01*
X300501553Y88683964D01*
X300438555Y88749416D01*
X300459638Y88804460D01*
X300456218Y88883378D01*
X300311440Y88866727D01*
X300156638Y88845687D01*
X300160852Y88938411D01*
X300201141Y89018462D01*
X300210040Y89048308D01*
X300293356Y89048308D01*
X300345405Y88996259D01*
X300397455Y89048308D01*
X300345405Y89100357D01*
X300293356Y89048308D01*
X300210040Y89048308D01*
X300249442Y89180457D01*
X300174636Y89335436D01*
G37*
G36*
X291423794Y87846443D02*
G01*
X291487379Y87691368D01*
X291457015Y87642980D01*
X291344470Y87726443D01*
X291297535Y87814027D01*
X291255423Y87989623D01*
X291312450Y87991500D01*
X291423794Y87846443D01*
G37*
G36*
X291989556Y88183937D02*
G01*
X292035284Y88102712D01*
X292179052Y87932939D01*
X292308967Y87860013D01*
X292448791Y87792516D01*
X292399286Y87737440D01*
X292346536Y87715844D01*
X292202100Y87697152D01*
X292173684Y87730717D01*
X292109403Y87857794D01*
X291961432Y88039745D01*
X291846046Y88196712D01*
X291855144Y88267270D01*
X291860601Y88267570D01*
X291989556Y88183937D01*
G37*
G36*
X292661475Y88194778D02*
G01*
X292695043Y88081854D01*
X292853588Y87972729D01*
X293039828Y87847312D01*
X293113174Y87720653D01*
X293048549Y87646841D01*
X293006471Y87642980D01*
X292906373Y87723006D01*
X292902373Y87753222D01*
X292834362Y87810868D01*
X292772250Y87788582D01*
X292697904Y87765791D01*
X292718582Y87798170D01*
X292710521Y87917104D01*
X292624739Y88007166D01*
X292516463Y88123184D01*
X292589325Y88215055D01*
X292590392Y88215715D01*
X292678325Y88242664D01*
X292661475Y88194778D01*
G37*
G36*
X286831680Y88078892D02*
G01*
X286844090Y87916199D01*
X286823462Y87879370D01*
X286776148Y87910416D01*
X286768788Y88015999D01*
X286794211Y88127076D01*
X286831680Y88078892D01*
G37*
G36*
X296727987Y87925738D02*
G01*
X296792569Y87903044D01*
X296674343Y87887347D01*
X296441717Y87882372D01*
X296184720Y87888827D01*
X296088400Y87905630D01*
X296155446Y87925738D01*
X296491695Y87943164D01*
X296727987Y87925738D01*
G37*
G36*
X288009750Y88007325D02*
G01*
X287957701Y87955275D01*
X287905651Y88007325D01*
X287957701Y88059374D01*
X288009750Y88007325D01*
G37*
G36*
X294463848Y88007325D02*
G01*
X294411799Y87955275D01*
X294359750Y88007325D01*
X294411799Y88059374D01*
X294463848Y88007325D01*
G37*
G36*
X295574231Y88024674D02*
G01*
X295559941Y87962788D01*
X295504832Y87955275D01*
X295419147Y87993363D01*
X295435433Y88024674D01*
X295558973Y88037133D01*
X295574231Y88024674D01*
G37*
G36*
X297448001Y88024674D02*
G01*
X297433711Y87962788D01*
X297378602Y87955275D01*
X297292917Y87993363D01*
X297309203Y88024674D01*
X297432744Y88037133D01*
X297448001Y88024674D01*
G37*
G36*
X287489258Y88111423D02*
G01*
X287437209Y88059374D01*
X287385160Y88111423D01*
X287437209Y88163472D01*
X287489258Y88111423D01*
G37*
G36*
X297220923Y88200380D02*
G01*
X297271261Y88179953D01*
X297222455Y88162802D01*
X297006910Y88126765D01*
X296701747Y88096938D01*
X296363634Y88075808D01*
X296049241Y88065863D01*
X295815239Y88069591D01*
X295718296Y88089479D01*
X295721703Y88096919D01*
X295838413Y88119834D01*
X296112167Y88148500D01*
X296492090Y88177921D01*
X296649914Y88188031D01*
X297004674Y88203475D01*
X297220923Y88200380D01*
G37*
G36*
X297690897Y88111423D02*
G01*
X297638848Y88059374D01*
X297586799Y88111423D01*
X297638848Y88163472D01*
X297690897Y88111423D01*
G37*
G36*
X300393218Y88192004D02*
G01*
X300397455Y88163472D01*
X300361938Y88062080D01*
X300351549Y88059374D01*
X300262673Y88132319D01*
X300241307Y88163472D01*
X300249561Y88259397D01*
X300287213Y88267570D01*
X300393218Y88192004D01*
G37*
G36*
X288322045Y88215521D02*
G01*
X288269996Y88163472D01*
X288217946Y88215521D01*
X288269996Y88267570D01*
X288322045Y88215521D01*
G37*
G36*
X294672045Y88319620D02*
G01*
X294771353Y88226076D01*
X294776143Y88209378D01*
X294695603Y88164666D01*
X294672045Y88163472D01*
X294571947Y88243498D01*
X294567946Y88273714D01*
X294631721Y88335885D01*
X294672045Y88319620D01*
G37*
G36*
X295574231Y88232871D02*
G01*
X295559941Y88170985D01*
X295504832Y88163472D01*
X295419147Y88201560D01*
X295435433Y88232871D01*
X295558973Y88245330D01*
X295574231Y88232871D01*
G37*
G36*
X297899094Y88215521D02*
G01*
X297847045Y88163472D01*
X297794996Y88215521D01*
X297847045Y88267570D01*
X297899094Y88215521D01*
G37*
G36*
X298309610Y88813834D02*
G01*
X298438938Y88630357D01*
X298556098Y88418986D01*
X298615692Y88256977D01*
X298609434Y88218368D01*
X298538057Y88276995D01*
X298400304Y88459749D01*
X298346305Y88540337D01*
X298225457Y88757443D01*
X298196751Y88881188D01*
X298213508Y88892161D01*
X298309610Y88813834D01*
G37*
G36*
X291015590Y88744777D02*
G01*
X291277848Y88703334D01*
X291444398Y88684127D01*
X291451538Y88683964D01*
X291513593Y88597359D01*
X291520472Y88475767D01*
X291490115Y88298929D01*
X291450318Y88280131D01*
X291432668Y88345644D01*
X291432668Y88501792D01*
X291354758Y88563132D01*
X291210774Y88581460D01*
X290949870Y88631176D01*
X290820405Y88694322D01*
X290760855Y88761004D01*
X290872760Y88766380D01*
X291015590Y88744777D01*
G37*
G36*
X286935779Y88599384D02*
G01*
X286948189Y88436691D01*
X286927560Y88399862D01*
X286880247Y88430908D01*
X286872886Y88536491D01*
X286898309Y88647568D01*
X286935779Y88599384D01*
G37*
G36*
X287248074Y88599384D02*
G01*
X287260484Y88436691D01*
X287239856Y88399862D01*
X287192542Y88430908D01*
X287185181Y88536491D01*
X287210604Y88647568D01*
X287248074Y88599384D01*
G37*
G36*
X287489258Y88423718D02*
G01*
X287437209Y88371669D01*
X287385160Y88423718D01*
X287437209Y88475767D01*
X287489258Y88423718D01*
G37*
G36*
X291741207Y88537757D02*
G01*
X291852961Y88432941D01*
X291830036Y88372682D01*
X291815483Y88371669D01*
X291727435Y88445608D01*
X291695301Y88491851D01*
X291683032Y88563085D01*
X291741207Y88537757D01*
G37*
G36*
X292485979Y88423718D02*
G01*
X292433930Y88371669D01*
X292381881Y88423718D01*
X292433930Y88475767D01*
X292485979Y88423718D01*
G37*
G36*
X294463848Y88423718D02*
G01*
X294411799Y88371669D01*
X294359750Y88423718D01*
X294411799Y88475767D01*
X294463848Y88423718D01*
G37*
G36*
X295372540Y88434562D02*
G01*
X295341494Y88387248D01*
X295235911Y88379887D01*
X295124834Y88405310D01*
X295173018Y88442780D01*
X295335711Y88455190D01*
X295372540Y88434562D01*
G37*
G36*
X296101229Y88434562D02*
G01*
X296070182Y88387248D01*
X295964599Y88379887D01*
X295853523Y88405310D01*
X295901707Y88442780D01*
X296064400Y88455190D01*
X296101229Y88434562D01*
G37*
G36*
X296754012Y88423718D02*
G01*
X296701963Y88371669D01*
X296649914Y88423718D01*
X296701963Y88475767D01*
X296754012Y88423718D01*
G37*
G36*
X297632129Y88837576D02*
G01*
X297609267Y88680970D01*
X297580217Y88579866D01*
X297522184Y88433155D01*
X297493077Y88449743D01*
X297396140Y88551813D01*
X297248479Y88580507D01*
X297108700Y88590407D01*
X297133800Y88637283D01*
X297316016Y88738516D01*
X297546746Y88849332D01*
X297632129Y88837576D01*
G37*
G36*
X297989158Y88656087D02*
G01*
X297976455Y88509939D01*
X297933432Y88376315D01*
X297880775Y88437822D01*
X297850295Y88506281D01*
X297811854Y88689823D01*
X297834185Y88757852D01*
X297937108Y88780986D01*
X297989158Y88656087D01*
G37*
G36*
X290161116Y88545166D02*
G01*
X290146826Y88483280D01*
X290091717Y88475767D01*
X290006032Y88513855D01*
X290022318Y88545166D01*
X290145858Y88557625D01*
X290161116Y88545166D01*
G37*
G36*
X292664006Y88907367D02*
G01*
X292719654Y88736013D01*
X292723343Y88529798D01*
X292655776Y88482530D01*
X292558402Y88617447D01*
X292549166Y88640429D01*
X292489380Y88893314D01*
X292558755Y88994772D01*
X292577942Y88996259D01*
X292664006Y88907367D01*
G37*
G36*
X293908657Y88545166D02*
G01*
X293894367Y88483280D01*
X293839258Y88475767D01*
X293753573Y88513855D01*
X293769859Y88545166D01*
X293893399Y88557625D01*
X293908657Y88545166D01*
G37*
G36*
X299981061Y88527816D02*
G01*
X299929012Y88475767D01*
X299876963Y88527816D01*
X299929012Y88579866D01*
X299981061Y88527816D01*
G37*
G36*
X287905651Y88990115D02*
G01*
X287841877Y88927944D01*
X287801553Y88944210D01*
X287711486Y88921778D01*
X287697455Y88852399D01*
X287636375Y88672543D01*
X287593356Y88631915D01*
X287496336Y88613478D01*
X287489258Y88632615D01*
X287533195Y88767029D01*
X287597019Y88899004D01*
X287729519Y89059742D01*
X287852961Y89094629D01*
X287905651Y88990115D01*
G37*
G36*
X294845542Y88753363D02*
G01*
X294858001Y88629822D01*
X294845542Y88614565D01*
X294783656Y88628855D01*
X294776143Y88683964D01*
X294814231Y88769649D01*
X294845542Y88753363D01*
G37*
G36*
X296645677Y88712496D02*
G01*
X296649914Y88683964D01*
X296614397Y88582572D01*
X296604008Y88579866D01*
X296515132Y88652811D01*
X296493766Y88683964D01*
X296502020Y88779889D01*
X296539672Y88788062D01*
X296645677Y88712496D01*
G37*
G36*
X288737245Y88811621D02*
G01*
X288738438Y88788062D01*
X288658412Y88687964D01*
X288628196Y88683964D01*
X288566025Y88747738D01*
X288582291Y88788062D01*
X288675834Y88887370D01*
X288692533Y88892161D01*
X288737245Y88811621D01*
G37*
G36*
X289779422Y88736013D02*
G01*
X289727373Y88683964D01*
X289675323Y88736013D01*
X289727373Y88788062D01*
X289779422Y88736013D01*
G37*
G36*
X290404012Y88840111D02*
G01*
X290503320Y88746568D01*
X290508110Y88729869D01*
X290427570Y88685157D01*
X290404012Y88683964D01*
X290303914Y88763990D01*
X290299914Y88794206D01*
X290363688Y88856377D01*
X290404012Y88840111D01*
G37*
G36*
X292381881Y88736013D02*
G01*
X292329832Y88683964D01*
X292277782Y88736013D01*
X292329832Y88788062D01*
X292381881Y88736013D01*
G37*
G36*
X293596362Y88857461D02*
G01*
X293608820Y88733921D01*
X293596362Y88718663D01*
X293534475Y88732953D01*
X293526963Y88788062D01*
X293565051Y88873747D01*
X293596362Y88857461D01*
G37*
G36*
X295958307Y89932802D02*
G01*
X296008394Y89845190D01*
X295881894Y89847195D01*
X295869176Y89849633D01*
X295639407Y89805833D01*
X295469469Y89677565D01*
X295346866Y89521100D01*
X295369089Y89452304D01*
X295443444Y89431044D01*
X295588177Y89349879D01*
X295608930Y89297259D01*
X295534579Y89257044D01*
X295400733Y89308554D01*
X295191080Y89354200D01*
X294981768Y89310879D01*
X294843121Y89207442D01*
X294841361Y89079050D01*
X294848420Y89013385D01*
X294792227Y89038368D01*
X294689183Y89028802D01*
X294672045Y88950353D01*
X294622071Y88807860D01*
X294576460Y88788062D01*
X294403564Y88758411D01*
X294290190Y88726193D01*
X294166666Y88695666D01*
X294226980Y88755759D01*
X294255651Y88776648D01*
X294346745Y88865700D01*
X294249028Y88899309D01*
X294203602Y88902894D01*
X293986818Y88906968D01*
X293904561Y88900231D01*
X293856559Y88961929D01*
X293875269Y89044051D01*
X293861592Y89175390D01*
X293705868Y89216531D01*
X293554269Y89231153D01*
X293602571Y89260215D01*
X293676230Y89279900D01*
X293900715Y89248851D01*
X293996874Y89168002D01*
X294176192Y89056721D01*
X294368099Y89082158D01*
X294744294Y89242563D01*
X295083631Y89463334D01*
X295315869Y89695754D01*
X295357893Y89768640D01*
X295528560Y89964815D01*
X295758815Y90024489D01*
X295958307Y89932802D01*
G37*
G36*
X298627782Y88736013D02*
G01*
X298575733Y88683964D01*
X298523684Y88736013D01*
X298575733Y88788062D01*
X298627782Y88736013D01*
G37*
G36*
X289328111Y89193700D02*
G01*
X289328329Y89166180D01*
X289286238Y89022229D01*
X289119186Y89001400D01*
X289088396Y89005150D01*
X288978967Y88940225D01*
X288924324Y88875027D01*
X288852000Y88789476D01*
X288863239Y88873943D01*
X288959080Y89005864D01*
X289001287Y89019761D01*
X289143247Y89101644D01*
X289215556Y89181874D01*
X289305302Y89279523D01*
X289328111Y89193700D01*
G37*
G36*
X290019174Y89243910D02*
G01*
X290064270Y89126382D01*
X290144074Y88873612D01*
X290133937Y88799862D01*
X290029726Y88894463D01*
X289991769Y88939209D01*
X289902646Y89162818D01*
X289904942Y89277529D01*
X289948647Y89354117D01*
X290019174Y89243910D01*
G37*
G36*
X299842263Y88961560D02*
G01*
X299854722Y88838019D01*
X299842263Y88822762D01*
X299780377Y88837051D01*
X299772864Y88892161D01*
X299810952Y88977845D01*
X299842263Y88961560D01*
G37*
G36*
X287175769Y89019817D02*
G01*
X287176963Y88996259D01*
X287096937Y88896161D01*
X287066721Y88892161D01*
X287004550Y88955935D01*
X287020815Y88996259D01*
X287114359Y89095567D01*
X287131057Y89100357D01*
X287175769Y89019817D01*
G37*
G36*
X292243083Y89065658D02*
G01*
X292255542Y88942117D01*
X292243083Y88926860D01*
X292181197Y88941150D01*
X292173684Y88996259D01*
X292211772Y89081944D01*
X292243083Y89065658D01*
G37*
G36*
X295157837Y88961560D02*
G01*
X295143548Y88899673D01*
X295088438Y88892161D01*
X295002753Y88930249D01*
X295019039Y88961560D01*
X295142580Y88974018D01*
X295157837Y88961560D01*
G37*
G36*
X297274504Y89129604D02*
G01*
X297534750Y89060065D01*
X297274504Y88986489D01*
X296949775Y88917405D01*
X296707431Y88907453D01*
X296594261Y88955460D01*
X296602250Y89003356D01*
X296744803Y89073295D01*
X296809865Y89061253D01*
X296952925Y89067015D01*
X296981508Y89103549D01*
X297092673Y89151472D01*
X297274504Y89129604D01*
G37*
G36*
X299901194Y89332854D02*
G01*
X299981061Y89204456D01*
X300048072Y89043507D01*
X300040435Y88996259D01*
X299956830Y89076057D01*
X299876963Y89204456D01*
X299809952Y89365405D01*
X299817588Y89412652D01*
X299901194Y89332854D01*
G37*
G36*
X287310828Y89232807D02*
G01*
X287333110Y89204456D01*
X287369750Y89110829D01*
X287271262Y89146091D01*
X287176963Y89204456D01*
X287096934Y89288023D01*
X287144795Y89306960D01*
X287310828Y89232807D01*
G37*
G36*
X292533185Y89584747D02*
G01*
X292599641Y89488537D01*
X292725411Y89364514D01*
X292803480Y89363820D01*
X292856073Y89340928D01*
X292837994Y89261911D01*
X292779316Y89127849D01*
X292721325Y89144500D01*
X292615118Y89307142D01*
X292514632Y89500647D01*
X292489145Y89593412D01*
X292533185Y89584747D01*
G37*
G36*
X298160895Y89232950D02*
G01*
X298211389Y89183268D01*
X298120475Y89126239D01*
X297899824Y89100481D01*
X297881744Y89100357D01*
X297680038Y89120893D01*
X297624244Y89171073D01*
X297630136Y89178431D01*
X297777238Y89240812D01*
X297986255Y89259252D01*
X298160895Y89232950D01*
G37*
G36*
X287662755Y89273855D02*
G01*
X287648466Y89211968D01*
X287593356Y89204456D01*
X287507671Y89242544D01*
X287523957Y89273855D01*
X287647498Y89286313D01*
X287662755Y89273855D01*
G37*
G36*
X289961835Y89577234D02*
G01*
X289944464Y89520621D01*
X289908305Y89516751D01*
X289749224Y89449611D01*
X289630710Y89353168D01*
X289505548Y89266615D01*
X289467127Y89297456D01*
X289545607Y89420902D01*
X289718874Y89537582D01*
X289893663Y89594751D01*
X289961835Y89577234D01*
G37*
G36*
X292245123Y89345410D02*
G01*
X292225733Y89308554D01*
X292127650Y89209140D01*
X292109348Y89204456D01*
X292102245Y89271698D01*
X292121635Y89308554D01*
X292219718Y89407968D01*
X292238020Y89412652D01*
X292245123Y89345410D01*
G37*
G36*
X295886526Y89273855D02*
G01*
X295872236Y89211968D01*
X295817127Y89204456D01*
X295731442Y89242544D01*
X295747728Y89273855D01*
X295871268Y89286313D01*
X295886526Y89273855D01*
G37*
G36*
X288322045Y89360603D02*
G01*
X288269996Y89308554D01*
X288217946Y89360603D01*
X288269996Y89412652D01*
X288322045Y89360603D01*
G37*
G36*
X293867477Y91549026D02*
G01*
X293943212Y91435250D01*
X293943356Y91427242D01*
X293879020Y91313200D01*
X293781802Y91326142D01*
X293674179Y91333972D01*
X293692194Y91271726D01*
X293690808Y91194659D01*
X293619527Y91206802D01*
X293373677Y91195757D01*
X293128399Y91034675D01*
X293006448Y90869986D01*
X292948391Y90724927D01*
X293022407Y90715321D01*
X293056111Y90727362D01*
X293192781Y90754833D01*
X293214668Y90737711D01*
X293124990Y90679084D01*
X292890004Y90574133D01*
X292564053Y90446894D01*
X292221053Y90308737D01*
X291959694Y90182233D01*
X291841025Y90098897D01*
X291728992Y90044754D01*
X291695170Y90064664D01*
X291584628Y90053311D01*
X291483291Y89957551D01*
X291363270Y89837723D01*
X291271111Y89889753D01*
X291240371Y89933144D01*
X291155980Y90027038D01*
X291134295Y89948031D01*
X291061485Y89854847D01*
X290964963Y89871138D01*
X290845758Y89879358D01*
X290858521Y89775768D01*
X290873196Y89670961D01*
X290758467Y89702919D01*
X290721193Y89722332D01*
X290512240Y89765748D01*
X290358235Y89664300D01*
X290251463Y89497476D01*
X290253051Y89404260D01*
X290274267Y89312768D01*
X290180160Y89359821D01*
X290161116Y89377953D01*
X290091272Y89561295D01*
X290199225Y89740993D01*
X290356089Y89830615D01*
X290608680Y89977386D01*
X290866575Y90198841D01*
X290884979Y90218407D01*
X291037232Y90371852D01*
X291096756Y90406735D01*
X291090220Y90387397D01*
X291125258Y90271652D01*
X291237970Y90214971D01*
X291403339Y90209483D01*
X291444996Y90255185D01*
X291528645Y90340620D01*
X291590006Y90349538D01*
X291747418Y90434086D01*
X291800653Y90520585D01*
X291884225Y90634842D01*
X291929708Y90628213D01*
X292029483Y90648858D01*
X292171781Y90795361D01*
X292310406Y91005234D01*
X292399163Y91215988D01*
X292409845Y91277684D01*
X292458409Y91418435D01*
X292513683Y91425449D01*
X292556357Y91296319D01*
X292534615Y91062683D01*
X292534576Y91062508D01*
X292466886Y90754316D01*
X292888875Y91046394D01*
X293134698Y91235480D01*
X293288917Y91390455D01*
X293315022Y91442570D01*
X293408880Y91522203D01*
X293629008Y91568342D01*
X293631268Y91568503D01*
X293867477Y91549026D01*
G37*
G36*
X293237565Y89653877D02*
G01*
X293318766Y89516751D01*
X293375347Y89345444D01*
X293322429Y89308554D01*
X293227876Y89393232D01*
X293214668Y89470845D01*
X293160423Y89576468D01*
X293094485Y89558859D01*
X293023251Y89546590D01*
X293048580Y89604765D01*
X293145408Y89713074D01*
X293237565Y89653877D01*
G37*
G36*
X287339751Y89630330D02*
G01*
X287350460Y89564221D01*
X287302242Y89428524D01*
X287263711Y89412652D01*
X287178628Y89491519D01*
X287176963Y89510607D01*
X287251541Y89653686D01*
X287263711Y89662176D01*
X287339751Y89630330D01*
G37*
G36*
X291933564Y89594632D02*
G01*
X292090205Y89550525D01*
X292108280Y89495141D01*
X292051281Y89424226D01*
X291963466Y89451134D01*
X291862701Y89513737D01*
X291783136Y89584830D01*
X291890195Y89597461D01*
X291933564Y89594632D01*
G37*
G36*
X299460569Y89464702D02*
G01*
X299408520Y89412652D01*
X299356471Y89464702D01*
X299408520Y89516751D01*
X299460569Y89464702D01*
G37*
G36*
X287994482Y89753331D02*
G01*
X288009750Y89679042D01*
X287975443Y89528637D01*
X287885306Y89573724D01*
X287858048Y89613656D01*
X287871102Y89747353D01*
X287903953Y89775947D01*
X287994482Y89753331D01*
G37*
G36*
X290612209Y89568800D02*
G01*
X290560160Y89516751D01*
X290508110Y89568800D01*
X290560160Y89620849D01*
X290612209Y89568800D01*
G37*
G36*
X291881342Y89859315D02*
G01*
X291861389Y89846608D01*
X291638786Y89744058D01*
X291444996Y89680520D01*
X291288334Y89649978D01*
X291320944Y89694678D01*
X291340897Y89707385D01*
X291563500Y89809935D01*
X291757291Y89873474D01*
X291913953Y89904015D01*
X291881342Y89859315D01*
G37*
G36*
X293648592Y90003597D02*
G01*
X293827740Y90138086D01*
X293959511Y90185622D01*
X293977104Y90176992D01*
X294037761Y90194379D01*
X294047455Y90264297D01*
X294140969Y90390622D01*
X294375606Y90431283D01*
X294623557Y90465899D01*
X294764930Y90536379D01*
X294765975Y90537949D01*
X294903149Y90599275D01*
X295159036Y90629136D01*
X295447649Y90627054D01*
X295682999Y90592552D01*
X295773851Y90543539D01*
X295920206Y90473323D01*
X296180051Y90457674D01*
X296466465Y90494760D01*
X296658243Y90562192D01*
X296810724Y90618494D01*
X296833572Y90540899D01*
X296881355Y90419050D01*
X296927509Y90406319D01*
X297097248Y90349876D01*
X297117181Y90333364D01*
X297077562Y90292569D01*
X296888967Y90285782D01*
X296869748Y90286994D01*
X296662076Y90281824D01*
X296634194Y90216943D01*
X296656246Y90185760D01*
X296676241Y90073133D01*
X296521985Y89999330D01*
X296265774Y89942501D01*
X296152721Y89961590D01*
X296129422Y90048380D01*
X296205144Y90117986D01*
X296285569Y90103696D01*
X296419866Y90119691D01*
X296441717Y90196657D01*
X296379230Y90294462D01*
X296169221Y90348583D01*
X295895201Y90366821D01*
X295119152Y90377382D01*
X294557891Y90359881D01*
X294390273Y90285131D01*
X294150332Y90106555D01*
X294016534Y89985193D01*
X293724908Y89733184D01*
X293522654Y89624378D01*
X293427752Y89667208D01*
X293422864Y89706802D01*
X293488409Y89835824D01*
X293656584Y89835824D01*
X293670823Y89829046D01*
X293765822Y89902329D01*
X293787209Y89933144D01*
X293813735Y90030465D01*
X293799496Y90037243D01*
X293704497Y89963959D01*
X293683110Y89933144D01*
X293656584Y89835824D01*
X293488409Y89835824D01*
X293490742Y89840416D01*
X293648592Y90003597D01*
G37*
G36*
X294984340Y89672898D02*
G01*
X294932291Y89620849D01*
X294880241Y89672898D01*
X294932291Y89724947D01*
X294984340Y89672898D01*
G37*
G36*
X299152211Y89851744D02*
G01*
X299185919Y89776997D01*
X299188083Y89642954D01*
X299145007Y89620849D01*
X299055535Y89705214D01*
X299044176Y89776997D01*
X299066448Y89915886D01*
X299085088Y89933144D01*
X299152211Y89851744D01*
G37*
G36*
X287622469Y90155756D02*
G01*
X287855219Y90377047D01*
X288010757Y90488252D01*
X288265708Y90591848D01*
X288427151Y90548974D01*
X288529424Y90467959D01*
X288452482Y90458976D01*
X288426143Y90461629D01*
X288142107Y90463922D01*
X288050916Y90389748D01*
X288071739Y90333454D01*
X288087541Y90254873D01*
X288051858Y90264891D01*
X287927331Y90234707D01*
X287759278Y90107990D01*
X287628477Y89955219D01*
X287602031Y89872420D01*
X287559751Y89763140D01*
X287463462Y89787873D01*
X287455774Y89799006D01*
X287466530Y89881095D01*
X287489258Y89881095D01*
X287541307Y89829046D01*
X287593356Y89881095D01*
X287541307Y89933144D01*
X287489258Y89881095D01*
X287466530Y89881095D01*
X287474931Y89945205D01*
X287622469Y90155756D01*
G37*
G36*
X293006471Y89776997D02*
G01*
X292954422Y89724947D01*
X292902373Y89776997D01*
X292954422Y89829046D01*
X293006471Y89776997D01*
G37*
G36*
X288423118Y89958026D02*
G01*
X288426143Y89933144D01*
X288346927Y89832071D01*
X288322045Y89829046D01*
X288220971Y89908262D01*
X288217946Y89933144D01*
X288297163Y90034218D01*
X288322045Y90037243D01*
X288423118Y89958026D01*
G37*
G36*
X288735268Y90065582D02*
G01*
X288774360Y89989683D01*
X288800997Y89843003D01*
X288731068Y89871472D01*
X288682109Y89940070D01*
X288650111Y90076315D01*
X288663105Y90100707D01*
X288735268Y90065582D01*
G37*
G36*
X289050733Y89881095D02*
G01*
X288998684Y89829046D01*
X288946635Y89881095D01*
X288998684Y89933144D01*
X289050733Y89881095D01*
G37*
G36*
X292053502Y90099232D02*
G01*
X292165256Y89994416D01*
X292142331Y89934158D01*
X292127778Y89933144D01*
X292039730Y90007083D01*
X292007596Y90053327D01*
X291995327Y90124561D01*
X292053502Y90099232D01*
G37*
G36*
X292798274Y89985193D02*
G01*
X292746225Y89933144D01*
X292694176Y89985193D01*
X292746225Y90037243D01*
X292798274Y89985193D01*
G37*
G36*
X292381881Y90193390D02*
G01*
X292329832Y90141341D01*
X292277782Y90193390D01*
X292329832Y90245439D01*
X292381881Y90193390D01*
G37*
G36*
X292590078Y90193390D02*
G01*
X292538028Y90141341D01*
X292485979Y90193390D01*
X292538028Y90245439D01*
X292590078Y90193390D01*
G37*
G36*
X292902373Y90193390D02*
G01*
X292850323Y90141341D01*
X292798274Y90193390D01*
X292850323Y90245439D01*
X292902373Y90193390D01*
G37*
G36*
X293179968Y90210740D02*
G01*
X293165679Y90148853D01*
X293110569Y90141341D01*
X293024885Y90179429D01*
X293041170Y90210740D01*
X293164711Y90223198D01*
X293179968Y90210740D01*
G37*
G36*
X295192537Y90193390D02*
G01*
X295140487Y90141341D01*
X295088438Y90193390D01*
X295140487Y90245439D01*
X295192537Y90193390D01*
G37*
G36*
X288322045Y90297488D02*
G01*
X288269996Y90245439D01*
X288217946Y90297488D01*
X288269996Y90349538D01*
X288322045Y90297488D01*
G37*
G36*
X288807837Y90418937D02*
G01*
X288793548Y90357050D01*
X288738438Y90349538D01*
X288652753Y90387626D01*
X288669039Y90418937D01*
X288792580Y90431395D01*
X288807837Y90418937D01*
G37*
G36*
X291340897Y90401587D02*
G01*
X291288848Y90349538D01*
X291236799Y90401587D01*
X291288848Y90453636D01*
X291340897Y90401587D01*
G37*
G36*
X288945842Y90703042D02*
G01*
X288959552Y90689592D01*
X289041778Y90553107D01*
X289030629Y90502931D01*
X288953193Y90534170D01*
X288901279Y90631319D01*
X288869585Y90752935D01*
X288945842Y90703042D01*
G37*
G36*
X293526963Y90505685D02*
G01*
X293474914Y90453636D01*
X293422864Y90505685D01*
X293474914Y90557734D01*
X293526963Y90505685D01*
G37*
G36*
X293942163Y90581293D02*
G01*
X293943356Y90557734D01*
X293863330Y90457636D01*
X293833114Y90453636D01*
X293770943Y90517411D01*
X293787209Y90557734D01*
X293880752Y90657043D01*
X293897451Y90661833D01*
X293942163Y90581293D01*
G37*
G36*
X297482701Y90505685D02*
G01*
X297430651Y90453636D01*
X297378602Y90505685D01*
X297430651Y90557734D01*
X297482701Y90505685D01*
G37*
G36*
X291478967Y90723454D02*
G01*
X291461992Y90603725D01*
X291334976Y90586803D01*
X291168792Y90606724D01*
X291132701Y90619190D01*
X291200257Y90689774D01*
X291276691Y90755842D01*
X291410218Y90816054D01*
X291478967Y90723454D01*
G37*
G36*
X296416385Y90802650D02*
G01*
X296245917Y90719566D01*
X296146772Y90683479D01*
X295925560Y90631639D01*
X295852289Y90689898D01*
X295851928Y90699321D01*
X295942293Y90791267D01*
X296146873Y90839814D01*
X296383371Y90842942D01*
X296416385Y90802650D01*
G37*
G36*
X288703739Y90731232D02*
G01*
X288689449Y90669345D01*
X288634340Y90661833D01*
X288548655Y90699921D01*
X288564941Y90731232D01*
X288688481Y90743690D01*
X288703739Y90731232D01*
G37*
G36*
X294567946Y90713882D02*
G01*
X294515897Y90661833D01*
X294463848Y90713882D01*
X294515897Y90765931D01*
X294567946Y90713882D01*
G37*
G36*
X297066307Y90713882D02*
G01*
X297014258Y90661833D01*
X296962209Y90713882D01*
X297014258Y90765931D01*
X297066307Y90713882D01*
G37*
G36*
X292029234Y91589020D02*
G01*
X292043101Y91466243D01*
X292033413Y91326056D01*
X291977715Y91370737D01*
X291868236Y91428403D01*
X291756919Y91345922D01*
X291694757Y91184531D01*
X291710542Y91049901D01*
X291707279Y90876436D01*
X291661481Y90823103D01*
X291596158Y90832392D01*
X291620026Y90933749D01*
X291639458Y91055041D01*
X291556399Y91030692D01*
X291483973Y91020781D01*
X291515433Y91123463D01*
X291623320Y91289789D01*
X291780173Y91470816D01*
X291829870Y91518145D01*
X291975127Y91633300D01*
X292029234Y91589020D01*
G37*
G36*
X296649914Y90817980D02*
G01*
X296597864Y90765931D01*
X296545815Y90817980D01*
X296597864Y90870029D01*
X296649914Y90817980D01*
G37*
G36*
X297794996Y90817980D02*
G01*
X297742946Y90765931D01*
X297690897Y90817980D01*
X297742946Y90870029D01*
X297794996Y90817980D01*
G37*
G36*
X292069586Y90922079D02*
G01*
X292017537Y90870029D01*
X291965487Y90922079D01*
X292017537Y90974128D01*
X292069586Y90922079D01*
G37*
G36*
X296259545Y91043070D02*
G01*
X296272622Y91005075D01*
X296129422Y90990564D01*
X295981641Y91006924D01*
X295999299Y91043070D01*
X296212424Y91056819D01*
X296259545Y91043070D01*
G37*
G36*
X295318015Y92259730D02*
G01*
X295363456Y92170301D01*
X295366549Y91911513D01*
X295237886Y91628742D01*
X295020425Y91411242D01*
X294989498Y91393282D01*
X294826324Y91329307D01*
X294776143Y91344415D01*
X294835084Y91481640D01*
X294970693Y91655118D01*
X295121150Y91797719D01*
X295224632Y91842313D01*
X295230766Y91838084D01*
X295293355Y91847221D01*
X295296635Y91876314D01*
X295231008Y92041793D01*
X295073835Y92037800D01*
X295017427Y91999374D01*
X294878476Y91918608D01*
X294835872Y91922204D01*
X294880585Y92004859D01*
X295043070Y92147460D01*
X295047672Y92150914D01*
X295228921Y92270739D01*
X295318015Y92259730D01*
G37*
G36*
X292899348Y91519502D02*
G01*
X292902373Y91494620D01*
X292823156Y91393546D01*
X292798274Y91390521D01*
X292697201Y91469737D01*
X292694176Y91494620D01*
X292773392Y91595693D01*
X292798274Y91598718D01*
X292899348Y91519502D01*
G37*
G36*
X292358805Y91896380D02*
G01*
X292460684Y91866909D01*
X292447528Y91754480D01*
X292349660Y91625982D01*
X292218138Y91509093D01*
X292176586Y91544576D01*
X292173684Y91622317D01*
X292216586Y91754866D01*
X292277782Y91754866D01*
X292329832Y91702816D01*
X292381881Y91754866D01*
X292329832Y91806915D01*
X292277782Y91754866D01*
X292216586Y91754866D01*
X292232087Y91802758D01*
X292358805Y91896380D01*
G37*
G36*
X294255651Y91546669D02*
G01*
X294203602Y91494620D01*
X294151553Y91546669D01*
X294203602Y91598718D01*
X294255651Y91546669D01*
G37*
G36*
X294564921Y91623600D02*
G01*
X294567946Y91598718D01*
X294488730Y91497645D01*
X294463848Y91494620D01*
X294362775Y91573836D01*
X294359750Y91598718D01*
X294438966Y91699791D01*
X294463848Y91702816D01*
X294564921Y91623600D01*
G37*
G36*
X293006471Y91754866D02*
G01*
X292954422Y91702816D01*
X292902373Y91754866D01*
X292954422Y91806915D01*
X293006471Y91754866D01*
G37*
G36*
X293969381Y91875857D02*
G01*
X293982458Y91837862D01*
X293839258Y91823351D01*
X293691477Y91839710D01*
X293709135Y91875857D01*
X293922260Y91889606D01*
X293969381Y91875857D01*
G37*
G36*
X294489873Y91875857D02*
G01*
X294502950Y91837862D01*
X294359750Y91823351D01*
X294211969Y91839710D01*
X294229627Y91875857D01*
X294442752Y91889606D01*
X294489873Y91875857D01*
G37*
D12*
%TO.C,U1*%
X302760994Y103984726D02*
X283810994Y103984726D01*
X302760994Y127334726D02*
X286710994Y127384726D01*
X302760994Y127284726D02*
X302860994Y103984726D01*
X299710994Y106984726D02*
X286660994Y106984726D01*
X286760994Y106884726D02*
X286760994Y127384726D01*
X299760994Y127384726D02*
X299710994Y106984726D01*
X283710994Y127384726D02*
X302760994Y127334726D01*
X283610994Y127384726D02*
X283610994Y103934726D01*
%TO.C,K8*%
X264028491Y50416260D02*
X262852921Y48798226D01*
X264028491Y50416260D02*
X267183657Y48123897D01*
X262852921Y48798226D02*
X266008087Y46505863D01*
%TO.C,K28*%
X364432225Y103241808D02*
X368141345Y104446975D01*
X364432225Y103241808D02*
X365050259Y101339695D01*
X365050259Y101339695D02*
X368759379Y102544862D01*
%TO.C,K27*%
X359152679Y119910738D02*
X362861799Y121115905D01*
X359770713Y118008625D02*
X363479833Y119213792D01*
X359152679Y119910738D02*
X359770713Y118008625D01*
%TO.C,K14*%
X233539559Y93651316D02*
X232921525Y91749203D01*
X232921525Y91749203D02*
X236630645Y90544036D01*
X233539559Y93651316D02*
X237248679Y92446149D01*
%TO.C,K19*%
X326062102Y99840493D02*
X329771222Y101045660D01*
X326680136Y97938380D02*
X330389256Y99143547D01*
X326062102Y99840493D02*
X326680136Y97938380D01*
%TO.C,K26*%
X354430136Y134638379D02*
X358139256Y135843546D01*
X353812102Y136540492D02*
X354430136Y134638379D01*
X353812102Y136540492D02*
X357521222Y137745659D01*
%TO.C,K17*%
X249271526Y82599204D02*
X252980646Y81394037D01*
X249889560Y84501317D02*
X249271526Y82599204D01*
X249889560Y84501317D02*
X253598680Y83296150D01*
%TO.C,K1*%
X188012100Y134028956D02*
X191721220Y132823789D01*
X188630134Y135931069D02*
X188012100Y134028956D01*
X188630134Y135931069D02*
X192339254Y134725902D01*
%TO.C,K3*%
X177789559Y102651315D02*
X177171525Y100749202D01*
X177789559Y102651315D02*
X181498679Y101446148D01*
X177171525Y100749202D02*
X180880645Y99544035D01*
%TO.C,K25*%
X334812438Y58025750D02*
X338189937Y59975750D01*
X334812438Y58025750D02*
X335812438Y56293700D01*
X335812438Y56293700D02*
X339189937Y58243700D01*
%TO.C,K7*%
X198489557Y106701317D02*
X197871523Y104799204D01*
X197871523Y104799204D02*
X201580643Y103594037D01*
X198489557Y106701317D02*
X202198677Y105496150D01*
%TO.C,K24*%
X348332225Y92141808D02*
X348950259Y90239695D01*
X348332225Y92141808D02*
X352041345Y93346975D01*
X348950259Y90239695D02*
X352659379Y91444862D01*
%TO.C,K23*%
X343062102Y108740494D02*
X346771222Y109945661D01*
X343062102Y108740494D02*
X343680136Y106838381D01*
X343680136Y106838381D02*
X347389256Y108043548D01*
%TO.C,K22*%
X337812102Y125540492D02*
X341521222Y126745659D01*
X337812102Y125540492D02*
X338430136Y123638379D01*
X338430136Y123638379D02*
X342139256Y124843546D01*
%TO.C,K31*%
X383482225Y105291808D02*
X387191345Y106496975D01*
X383482225Y105291808D02*
X384100259Y103389695D01*
X384100259Y103389695D02*
X387809379Y104594862D01*
%TO.C,K15*%
X261430134Y117931072D02*
X260812100Y116028959D01*
X261430134Y117931072D02*
X265139254Y116725905D01*
X260812100Y116028959D02*
X264521220Y114823792D01*
%TO.C,K16*%
X255012102Y99328958D02*
X258721222Y98123791D01*
X255630136Y101231071D02*
X255012102Y99328958D01*
X255630136Y101231071D02*
X259339256Y100025904D01*
%TO.C,K4*%
X247812437Y60275750D02*
X246812437Y58543700D01*
X247812437Y60275750D02*
X251189936Y58325750D01*
X246812437Y58543700D02*
X250189936Y56593700D01*
%TO.C,K10*%
X222989560Y121301316D02*
X226698680Y120096149D01*
X222371526Y119399203D02*
X226080646Y118194036D01*
X222989560Y121301316D02*
X222371526Y119399203D01*
%TO.C,K29*%
X373430135Y136638381D02*
X377139255Y137843548D01*
X372812101Y138540494D02*
X376521221Y139745661D01*
X372812101Y138540494D02*
X373430135Y136638381D01*
%TO.C,K13*%
X239080134Y110331072D02*
X238462100Y108428959D01*
X238462100Y108428959D02*
X242171220Y107223792D01*
X239080134Y110331072D02*
X242789254Y109125905D01*
%TO.C,K12*%
X244430134Y126931068D02*
X243812100Y125028955D01*
X243812100Y125028955D02*
X247521220Y123823788D01*
X244430134Y126931068D02*
X248139254Y125725901D01*
%TO.C,K5*%
X209430133Y139931071D02*
X208812099Y138028958D01*
X209430133Y139931071D02*
X213139253Y138725904D01*
X208812099Y138028958D02*
X212521219Y136823791D01*
%TO.C,K30*%
X378820712Y119958625D02*
X382529832Y121163792D01*
X378202678Y121860738D02*
X381911798Y123065905D01*
X378202678Y121860738D02*
X378820712Y119958625D01*
%TO.C,K6*%
X203221526Y121449204D02*
X206930646Y120244037D01*
X203839560Y123351317D02*
X207548680Y122146150D01*
X203839560Y123351317D02*
X203221526Y121449204D01*
%TO.C,K9*%
X228430136Y137931072D02*
X232139256Y136725905D01*
X228430136Y137931072D02*
X227812102Y136028959D01*
X227812102Y136028959D02*
X231521222Y134823792D01*
%TO.C,K32*%
X394230134Y132638379D02*
X397939254Y133843546D01*
X393612100Y134540492D02*
X397321220Y135745659D01*
X393612100Y134540492D02*
X394230134Y132638379D01*
%TO.C,K11*%
X217539560Y104701316D02*
X216921526Y102799203D01*
X217539560Y104701316D02*
X221248680Y103496149D01*
X216921526Y102799203D02*
X220630646Y101594036D01*
%TO.C,K20*%
X331402679Y83110739D02*
X332020713Y81208626D01*
X331402679Y83110739D02*
X335111799Y84315906D01*
X332020713Y81208626D02*
X335729833Y82413793D01*
%TO.C,K18*%
X320812101Y116540493D02*
X324521221Y117745660D01*
X320812101Y116540493D02*
X321430135Y114638380D01*
X321430135Y114638380D02*
X325139255Y115843547D01*
%TO.C,K21*%
X320028491Y46153192D02*
X323183657Y48445555D01*
X318852921Y47771226D02*
X320028491Y46153192D01*
X318852921Y47771226D02*
X322008087Y50063589D01*
%TO.C,K34*%
X404252678Y101260739D02*
X407961798Y102465906D01*
X404870712Y99358626D02*
X408579832Y100563793D01*
X404252678Y101260739D02*
X404870712Y99358626D01*
%TO.C,K33*%
X399002679Y117910739D02*
X402711799Y119115906D01*
X399002679Y117910739D02*
X399620713Y116008626D01*
X399620713Y116008626D02*
X403329833Y117213793D01*
%TO.C,K2*%
X183189559Y119301317D02*
X186898679Y118096150D01*
X183189559Y119301317D02*
X182571525Y117399204D01*
X182571525Y117399204D02*
X186280645Y116194037D01*
%TD*%
M02*
